  0
SECTION
  2
HEADER
  9
$ACADVER
  1
AC1014
  9
$HANDSEED
  5
FFFF
  9
$INSUNITS
 70
     4
  9
$MEASUREMENT
 70
     1
  0
ENDSEC
  0
SECTION
  2
TABLES
  0
TABLE
  2
VPORT
  5
8
330
0
100
AcDbSymbolTable
 70
     4
  0
VPORT
  5
2E
330
8
100
AcDbSymbolTableRecord
100
AcDbViewportTableRecord
  2
*ACTIVE
 70
     0
 10
0.0
 20
0.0
 11
1.0
 21
1.0
 12
210.0
 22
148.5
 13
0.0
 23
0.0
 14
10.0
 24
10.0
 15
10.0
 25
10.0
 16
0.0
 26
0.0
 36
1.0
 17
0.0
 27
0.0
 37
0.0
 40
341.0
 41
1.24
 42
50.0
 43
0.0
 44
0.0
 50
0.0
 51
0.0
 71
     0
 72
   100
 73
     1
 74
     3
 75
     0
 76
     0
 77
     0
 78
     0
  0
ENDTAB
  0
TABLE
  2
LTYPE
  5
5
330
0
100
AcDbSymbolTable
 70
     1
  0
LTYPE
  5
14
330
5
100
AcDbSymbolTableRecord
100
AcDbLinetypeTableRecord
  2
BYBLOCK
 70
     0
  3

 72
    65
 73
     0
 40
0.0
  0
LTYPE
  5
15
330
5
100
AcDbSymbolTableRecord
100
AcDbLinetypeTableRecord
  2
BYLAYER
 70
     0
  3

 72
    65
 73
     0
 40
0.0
  0
LTYPE
  5
16
330
5
100
AcDbSymbolTableRecord
100
AcDbLinetypeTableRecord
  2
CONTINUOUS
 70
     0
  3
Solid line
 72
    65
 73
     0
 40
0.0
  0
ENDTAB
  0
TABLE
  2
LAYER
  5
2
100
AcDbSymbolTable
 70
1
  0
LAYER
  5
50
100
AcDbSymbolTableRecord
100
AcDbLayerTableRecord
  2
0
 70
0
  6
CONTINUOUS
  0
ENDTAB
  0
TABLE
  2
STYLE
  5
3
330
0
100
AcDbSymbolTable
 70
     1
  0
STYLE
  5
11
330
3
100
AcDbSymbolTableRecord
100
AcDbTextStyleTableRecord
  2
STANDARD
 70
     0
 40
0.0
 41
1.0
 50
0.0
 71
     0
 42
2.5
  3
txt
  4

  0
ENDTAB
  0
TABLE
  2
VIEW
  5
6
330
0
100
AcDbSymbolTable
 70
     0
  0
ENDTAB
  0
TABLE
  2
UCS
  5
7
330
0
100
AcDbSymbolTable
 70
     0
  0
ENDTAB
  0
TABLE
  2
APPID
  5
9
330
0
100
AcDbSymbolTable
 70
     2
  0
APPID
  5
12
330
9
100
AcDbSymbolTableRecord
100
AcDbRegAppTableRecord
  2
ACAD
 70
     0
  0
ENDTAB
  0
TABLE
  2
DIMSTYLE
  5
A
330
0
100
AcDbSymbolTable
 70
     1
  0
DIMSTYLE
105
27
330
A
100
AcDbSymbolTableRecord
100
AcDbDimStyleTableRecord
  2
ISO-25
 70
     0
  3

  4

  5

  6

  7

 40
1.0
 41
2.5
 42
0.625
 43
3.75
 44
1.25
 45
0.0
 46
0.0
 47
0.0
 48
0.0
140
2.5
141
2.5
142
0.0
143
0.03937007874016
144
1.0
145
0.0
146
1.0
147
0.625
 71
     0
 72
     0
 73
     0
 74
     0
 75
     0
 76
     0
 77
     1
 78
     8
170
     0
171
     3
172
     1
173
     0
174
     0
175
     0
176
     0
177
     0
178
     0
270
     2
271
     2
272
     2
273
     2
274
     3
340
11
275
     0
280
     0
281
     0
282
     0
283
     0
284
     8
285
     0
286
     0
287
     3
288
     0
  0
ENDTAB
  0
TABLE
  2
BLOCK_RECORD
  5
1
330
0
100
AcDbSymbolTable
 70
     1
  0
BLOCK_RECORD
  5
1F
330
1
100
AcDbSymbolTableRecord
100
AcDbBlockTableRecord
  2
*MODEL_SPACE
  0
BLOCK_RECORD
  5
1B
330
1
100
AcDbSymbolTableRecord
100
AcDbBlockTableRecord
  2
*PAPER_SPACE
  0
ENDTAB
  0
ENDSEC
  0
SECTION
  2
BLOCKS
  0
BLOCK
  5
20
330
1F
100
AcDbEntity
  8
0
100
AcDbBlockBegin
  2
*MODEL_SPACE
 70
     0
 10
0.0
 20
0.0
 30
0.0
  3
*MODEL_SPACE
  1

  0
ENDBLK
  5
21
330
1F
100
AcDbEntity
  8
0
100
AcDbBlockEnd
  0
BLOCK
  5
1C
330
1B
100
AcDbEntity
 67
     1
  8
0
100
AcDbBlockBegin
  2
*PAPER_SPACE
  1

  0
ENDBLK
  5
1D
330
1B
100
AcDbEntity
 67
     1
  8
0
100
AcDbBlockEnd
  0
ENDSEC
  0
SECTION
  2
ENTITIES
  0
SPLINE
  5
100
100
AcDbEntity
  8
0
 62
7
100
AcDbSpline
 70
8
 71
3
 72
8
 73
4
 74
0
 40
0
 40
0
 40
0
 40
0
 40
1
 40
1
 40
1
 40
1
 10
209.481769
 20
34.974205
 30
0.0
 10
206.019200
 20
34.974205
 30
0.0
 10
203.158121
 20
32.113641
 30
0.0
 10
203.158121
 20
28.651072
 30
0.0
  0
SPLINE
  5
101
100
AcDbEntity
  8
0
 62
7
100
AcDbSpline
 70
8
 71
3
 72
8
 73
4
 74
0
 40
0
 40
0
 40
0
 40
0
 40
1
 40
1
 40
1
 40
1
 10
203.158121
 20
28.651072
 30
0.0
 10
203.158121
 20
25.188630
 30
0.0
 10
206.018918
 20
22.327424
 30
0.0
 10
209.481769
 20
22.327424
 30
0.0
  0
SPLINE
  5
102
100
AcDbEntity
  8
0
 62
7
100
AcDbSpline
 70
8
 71
3
 72
8
 73
4
 74
0
 40
0
 40
0
 40
0
 40
0
 40
1
 40
1
 40
1
 40
1
 10
209.481769
 20
22.327424
 30
0.0
 10
212.944494
 20
22.327424
 30
0.0
 10
215.804902
 20
25.188347
 30
0.0
 10
215.804902
 20
28.651072
 30
0.0
  0
SPLINE
  5
103
100
AcDbEntity
  8
0
 62
7
100
AcDbSpline
 70
8
 71
3
 72
8
 73
4
 74
0
 40
0
 40
0
 40
0
 40
0
 40
1
 40
1
 40
1
 40
1
 10
215.804902
 20
28.651072
 30
0.0
 10
215.804902
 20
32.113923
 30
0.0
 10
212.944211
 20
34.974205
 30
0.0
 10
209.481769
 20
34.974205
 30
0.0
  0
SPLINE
  5
104
100
AcDbEntity
  8
0
 62
7
100
AcDbSpline
 70
8
 71
3
 72
8
 73
4
 74
0
 40
0
 40
0
 40
0
 40
0
 40
1
 40
1
 40
1
 40
1
 10
209.481769
 20
74.980057
 30
0.0
 10
206.019088
 20
74.980057
 30
0.0
 10
203.158121
 20
72.118927
 30
0.0
 10
203.158121
 20
68.656408
 30
0.0
  0
SPLINE
  5
105
100
AcDbEntity
  8
0
 62
7
100
AcDbSpline
 70
8
 71
3
 72
8
 73
4
 74
0
 40
0
 40
0
 40
0
 40
0
 40
1
 40
1
 40
1
 40
1
 10
203.158121
 20
68.656408
 30
0.0
 10
203.158121
 20
65.193877
 30
0.0
 10
206.019116
 20
62.332243
 30
0.0
 10
209.481769
 20
62.332243
 30
0.0
  0
SPLINE
  5
106
100
AcDbEntity
  8
0
 62
7
100
AcDbSpline
 70
8
 71
3
 72
8
 73
4
 74
0
 40
0
 40
0
 40
0
 40
0
 40
1
 40
1
 40
1
 40
1
 10
209.481769
 20
62.332243
 30
0.0
 10
212.944296
 20
62.332242
 30
0.0
 10
215.804902
 20
65.193597
 30
0.0
 10
215.804902
 20
68.656408
 30
0.0
  0
SPLINE
  5
107
100
AcDbEntity
  8
0
 62
7
100
AcDbSpline
 70
8
 71
3
 72
8
 73
4
 74
0
 40
0
 40
0
 40
0
 40
0
 40
1
 40
1
 40
1
 40
1
 10
215.804902
 20
68.656408
 30
0.0
 10
215.804902
 20
72.119207
 30
0.0
 10
212.944324
 20
74.980057
 30
0.0
 10
209.481769
 20
74.980057
 30
0.0
  0
LWPOLYLINE
  5
108
100
AcDbEntity
  8
0
 62
7
100
AcDbPolyline
 90
1
 70
1
 10
209.481769
 20
34.974205
 30
0.0
  0
SPLINE
  5
109
100
AcDbEntity
  8
0
 62
7
100
AcDbSpline
 70
8
 71
3
 72
8
 73
4
 74
0
 40
0
 40
0
 40
0
 40
0
 40
1
 40
1
 40
1
 40
1
 10
55.811980
 20
57.199736
 30
0.0
 10
53.218116
 20
57.232025
 30
0.0
 10
50.746871
 20
55.471738
 30
0.0
 10
49.874870
 20
53.038230
 30
0.0
  0
SPLINE
  5
10a
100
AcDbEntity
  8
0
 62
7
100
AcDbSpline
 70
8
 71
3
 72
8
 73
4
 74
0
 40
0
 40
0
 40
0
 40
0
 40
1
 40
1
 40
1
 40
1
 10
49.874870
 20
53.038230
 30
0.0
 10
49.021105
 20
50.814431
 30
0.0
 10
49.615187
 20
48.147976
 30
0.0
 10
51.298040
 20
46.470149
 30
0.0
  0
SPLINE
  5
10b
100
AcDbEntity
  8
0
 62
7
100
AcDbSpline
 70
8
 71
3
 72
8
 73
4
 74
0
 40
0
 40
0
 40
0
 40
0
 40
1
 40
1
 40
1
 40
1
 10
51.298040
 20
46.470149
 30
0.0
 10
52.935512
 20
44.749468
 30
0.0
 10
55.584515
 20
44.089766
 30
0.0
 10
57.828395
 20
44.887817
 30
0.0
  0
SPLINE
  5
10c
100
AcDbEntity
  8
0
 62
7
100
AcDbSpline
 70
8
 71
3
 72
8
 73
4
 74
0
 40
0
 40
0
 40
0
 40
0
 40
1
 40
1
 40
1
 40
1
 10
57.828395
 20
44.887817
 30
0.0
 10
60.306918
 20
45.706950
 30
0.0
 10
62.133387
 20
48.176170
 30
0.0
 10
62.134597
 20
50.794954
 30
0.0
  0
SPLINE
  5
10d
100
AcDbEntity
  8
0
 62
7
100
AcDbSpline
 70
8
 71
3
 72
8
 73
4
 74
0
 40
0
 40
0
 40
0
 40
0
 40
1
 40
1
 40
1
 40
1
 10
62.134597
 20
50.794954
 30
0.0
 10
62.201237
 20
53.389673
 30
0.0
 10
60.470290
 20
55.883533
 30
0.0
 10
58.046472
 20
56.785291
 30
0.0
  0
SPLINE
  5
10e
100
AcDbEntity
  8
0
 62
7
100
AcDbSpline
 70
8
 71
3
 72
8
 73
4
 74
0
 40
0
 40
0
 40
0
 40
0
 40
1
 40
1
 40
1
 40
1
 10
58.046472
 20
56.785291
 30
0.0
 10
57.335405
 20
57.058899
 30
0.0
 10
56.573878
 20
57.200310
 30
0.0
 10
55.811980
 20
57.199736
 30
0.0
  0
LWPOLYLINE
  5
10f
100
AcDbEntity
  8
0
 62
7
100
AcDbPolyline
 90
1
 70
1
 10
209.481769
 20
74.980057
 30
0.0
  0
SPLINE
  5
110
100
AcDbEntity
  8
0
 62
7
100
AcDbSpline
 70
8
 71
3
 72
8
 73
4
 74
0
 40
0
 40
0
 40
0
 40
0
 40
1
 40
1
 40
1
 40
1
 10
209.481769
 20
61.644945
 30
0.0
 10
206.019088
 20
61.644945
 30
0.0
 10
203.158121
 20
58.783298
 30
0.0
 10
203.158121
 20
55.320779
 30
0.0
  0
SPLINE
  5
111
100
AcDbEntity
  8
0
 62
7
100
AcDbSpline
 70
8
 71
3
 72
8
 73
4
 74
0
 40
0
 40
0
 40
0
 40
0
 40
1
 40
1
 40
1
 40
1
 10
203.158121
 20
55.320779
 30
0.0
 10
203.158121
 20
51.858249
 30
0.0
 10
206.019116
 20
48.997649
 30
0.0
 10
209.481769
 20
48.997649
 30
0.0
  0
SPLINE
  5
112
100
AcDbEntity
  8
0
 62
7
100
AcDbSpline
 70
8
 71
3
 72
8
 73
4
 74
0
 40
0
 40
0
 40
0
 40
0
 40
1
 40
1
 40
1
 40
1
 10
209.481769
 20
48.997649
 30
0.0
 10
212.944296
 20
48.997649
 30
0.0
 10
215.804902
 20
51.857968
 30
0.0
 10
215.804902
 20
55.320779
 30
0.0
  0
SPLINE
  5
113
100
AcDbEntity
  8
0
 62
7
100
AcDbSpline
 70
8
 71
3
 72
8
 73
4
 74
0
 40
0
 40
0
 40
0
 40
0
 40
1
 40
1
 40
1
 40
1
 10
215.804902
 20
55.320779
 30
0.0
 10
215.804902
 20
58.783578
 30
0.0
 10
212.944324
 20
61.644945
 30
0.0
 10
209.481769
 20
61.644945
 30
0.0
  0
LWPOLYLINE
  5
114
100
AcDbEntity
  8
0
 62
7
100
AcDbPolyline
 90
1
 70
1
 10
55.811980
 20
57.199736
 30
0.0
  0
SPLINE
  5
115
100
AcDbEntity
  8
0
 62
7
100
AcDbSpline
 70
8
 71
3
 72
8
 73
4
 74
0
 40
0
 40
0
 40
0
 40
0
 40
1
 40
1
 40
1
 40
1
 10
209.481769
 20
48.309315
 30
0.0
 10
206.019200
 20
48.309315
 30
0.0
 10
203.158121
 20
45.448236
 30
0.0
 10
203.158121
 20
41.985667
 30
0.0
  0
SPLINE
  5
116
100
AcDbEntity
  8
0
 62
7
100
AcDbSpline
 70
8
 71
3
 72
8
 73
4
 74
0
 40
0
 40
0
 40
0
 40
0
 40
1
 40
1
 40
1
 40
1
 10
203.158121
 20
41.985667
 30
0.0
 10
203.158121
 20
38.523225
 30
0.0
 10
206.018918
 20
35.662534
 30
0.0
 10
209.481769
 20
35.662534
 30
0.0
  0
SPLINE
  5
117
100
AcDbEntity
  8
0
 62
7
100
AcDbSpline
 70
8
 71
3
 72
8
 73
4
 74
0
 40
0
 40
0
 40
0
 40
0
 40
1
 40
1
 40
1
 40
1
 10
209.481769
 20
35.662534
 30
0.0
 10
212.944494
 20
35.662534
 30
0.0
 10
215.804902
 20
38.522943
 30
0.0
 10
215.804902
 20
41.985667
 30
0.0
  0
SPLINE
  5
118
100
AcDbEntity
  8
0
 62
7
100
AcDbSpline
 70
8
 71
3
 72
8
 73
4
 74
0
 40
0
 40
0
 40
0
 40
0
 40
1
 40
1
 40
1
 40
1
 10
215.804902
 20
41.985667
 30
0.0
 10
215.804902
 20
45.448519
 30
0.0
 10
212.944211
 20
48.309315
 30
0.0
 10
209.481769
 20
48.309315
 30
0.0
  0
LWPOLYLINE
  5
119
100
AcDbEntity
  8
0
 62
7
100
AcDbPolyline
 90
1
 70
1
 10
209.481769
 20
61.644945
 30
0.0
  0
SPLINE
  5
11a
100
AcDbEntity
  8
0
 62
7
100
AcDbSpline
 70
8
 71
3
 72
8
 73
4
 74
0
 40
0
 40
0
 40
0
 40
0
 40
1
 40
1
 40
1
 40
1
 10
99.192057
 20
8.453448
 30
0.0
 10
99.192057
 20
8.989347
 30
0.0
 10
98.906158
 20
9.484538
 30
0.0
 10
98.442056
 20
9.752487
 30
0.0
  0
SPLINE
  5
11b
100
AcDbEntity
  8
0
 62
7
100
AcDbSpline
 70
8
 71
3
 72
8
 73
4
 74
0
 40
0
 40
0
 40
0
 40
0
 40
1
 40
1
 40
1
 40
1
 10
98.442056
 20
9.752487
 30
0.0
 10
97.977954
 20
10.020437
 30
0.0
 10
97.406156
 20
10.020437
 30
0.0
 10
96.942054
 20
9.752487
 30
0.0
  0
SPLINE
  5
11c
100
AcDbEntity
  8
0
 62
7
100
AcDbSpline
 70
8
 71
3
 72
8
 73
4
 74
0
 40
0
 40
0
 40
0
 40
0
 40
1
 40
1
 40
1
 40
1
 10
96.942054
 20
9.752487
 30
0.0
 10
96.477952
 20
9.484538
 30
0.0
 10
96.192054
 20
8.989347
 30
0.0
 10
96.192054
 20
8.453448
 30
0.0
  0
SPLINE
  5
11d
100
AcDbEntity
  8
0
 62
7
100
AcDbSpline
 70
8
 71
3
 72
8
 73
4
 74
0
 40
0
 40
0
 40
0
 40
0
 40
1
 40
1
 40
1
 40
1
 10
96.192054
 20
8.453448
 30
0.0
 10
96.192054
 20
7.917549
 30
0.0
 10
96.477952
 20
7.422358
 30
0.0
 10
96.942054
 20
7.154409
 30
0.0
  0
SPLINE
  5
11e
100
AcDbEntity
  8
0
 62
7
100
AcDbSpline
 70
8
 71
3
 72
8
 73
4
 74
0
 40
0
 40
0
 40
0
 40
0
 40
1
 40
1
 40
1
 40
1
 10
96.942054
 20
7.154409
 30
0.0
 10
97.406156
 20
6.886459
 30
0.0
 10
97.977954
 20
6.886459
 30
0.0
 10
98.442056
 20
7.154409
 30
0.0
  0
SPLINE
  5
11f
100
AcDbEntity
  8
0
 62
7
100
AcDbSpline
 70
8
 71
3
 72
8
 73
4
 74
0
 40
0
 40
0
 40
0
 40
0
 40
1
 40
1
 40
1
 40
1
 10
98.442056
 20
7.154409
 30
0.0
 10
98.906158
 20
7.422358
 30
0.0
 10
99.192057
 20
7.917549
 30
0.0
 10
99.192057
 20
8.453448
 30
0.0
  0
LWPOLYLINE
  5
120
100
AcDbEntity
  8
0
 62
7
100
AcDbPolyline
 90
1
 70
1
 10
209.481769
 20
48.309315
 30
0.0
  0
SPLINE
  5
121
100
AcDbEntity
  8
0
 62
7
100
AcDbSpline
 70
8
 71
3
 72
8
 73
4
 74
0
 40
0
 40
0
 40
0
 40
0
 40
1
 40
1
 40
1
 40
1
 10
123.370827
 20
80.858315
 30
0.0
 10
123.370827
 20
81.394214
 30
0.0
 10
123.084928
 20
81.889406
 30
0.0
 10
122.620826
 20
82.157356
 30
0.0
  0
SPLINE
  5
122
100
AcDbEntity
  8
0
 62
7
100
AcDbSpline
 70
8
 71
3
 72
8
 73
4
 74
0
 40
0
 40
0
 40
0
 40
0
 40
1
 40
1
 40
1
 40
1
 10
122.620826
 20
82.157356
 30
0.0
 10
122.156723
 20
82.425305
 30
0.0
 10
121.584925
 20
82.425305
 30
0.0
 10
121.120823
 20
82.157356
 30
0.0
  0
SPLINE
  5
123
100
AcDbEntity
  8
0
 62
7
100
AcDbSpline
 70
8
 71
3
 72
8
 73
4
 74
0
 40
0
 40
0
 40
0
 40
0
 40
1
 40
1
 40
1
 40
1
 10
121.120823
 20
82.157356
 30
0.0
 10
120.656720
 20
81.889406
 30
0.0
 10
120.370821
 20
81.394214
 30
0.0
 10
120.370821
 20
80.858315
 30
0.0
  0
SPLINE
  5
124
100
AcDbEntity
  8
0
 62
7
100
AcDbSpline
 70
8
 71
3
 72
8
 73
4
 74
0
 40
0
 40
0
 40
0
 40
0
 40
1
 40
1
 40
1
 40
1
 10
120.370821
 20
80.858315
 30
0.0
 10
120.370821
 20
80.322415
 30
0.0
 10
120.656720
 20
79.827224
 30
0.0
 10
121.120823
 20
79.559274
 30
0.0
  0
SPLINE
  5
125
100
AcDbEntity
  8
0
 62
7
100
AcDbSpline
 70
8
 71
3
 72
8
 73
4
 74
0
 40
0
 40
0
 40
0
 40
0
 40
1
 40
1
 40
1
 40
1
 10
121.120823
 20
79.559274
 30
0.0
 10
121.584925
 20
79.291324
 30
0.0
 10
122.156723
 20
79.291324
 30
0.0
 10
122.620826
 20
79.559274
 30
0.0
  0
SPLINE
  5
126
100
AcDbEntity
  8
0
 62
7
100
AcDbSpline
 70
8
 71
3
 72
8
 73
4
 74
0
 40
0
 40
0
 40
0
 40
0
 40
1
 40
1
 40
1
 40
1
 10
122.620826
 20
79.559274
 30
0.0
 10
123.084928
 20
79.827224
 30
0.0
 10
123.370827
 20
80.322415
 30
0.0
 10
123.370827
 20
80.858315
 30
0.0
  0
LWPOLYLINE
  5
127
100
AcDbEntity
  8
0
 62
7
100
AcDbPolyline
 90
1
 70
1
 10
99.192057
 20
8.453448
 30
0.0
  0
SPLINE
  5
128
100
AcDbEntity
  8
0
 62
7
100
AcDbSpline
 70
8
 71
3
 72
8
 73
4
 74
0
 40
0
 40
0
 40
0
 40
0
 40
1
 40
1
 40
1
 40
1
 10
99.197050
 20
80.854690
 30
0.0
 10
99.197050
 20
81.390590
 30
0.0
 10
98.911151
 20
81.885781
 30
0.0
 10
98.447049
 20
82.153731
 30
0.0
  0
SPLINE
  5
129
100
AcDbEntity
  8
0
 62
7
100
AcDbSpline
 70
8
 71
3
 72
8
 73
4
 74
0
 40
0
 40
0
 40
0
 40
0
 40
1
 40
1
 40
1
 40
1
 10
98.447049
 20
82.153731
 30
0.0
 10
97.982946
 20
82.421681
 30
0.0
 10
97.411148
 20
82.421681
 30
0.0
 10
96.947045
 20
82.153731
 30
0.0
  0
SPLINE
  5
12a
100
AcDbEntity
  8
0
 62
7
100
AcDbSpline
 70
8
 71
3
 72
8
 73
4
 74
0
 40
0
 40
0
 40
0
 40
0
 40
1
 40
1
 40
1
 40
1
 10
96.947045
 20
82.153731
 30
0.0
 10
96.482943
 20
81.885781
 30
0.0
 10
96.197044
 20
81.390590
 30
0.0
 10
96.197044
 20
80.854690
 30
0.0
  0
SPLINE
  5
12b
100
AcDbEntity
  8
0
 62
7
100
AcDbSpline
 70
8
 71
3
 72
8
 73
4
 74
0
 40
0
 40
0
 40
0
 40
0
 40
1
 40
1
 40
1
 40
1
 10
96.197044
 20
80.854690
 30
0.0
 10
96.197044
 20
80.318790
 30
0.0
 10
96.482943
 20
79.823599
 30
0.0
 10
96.947045
 20
79.555649
 30
0.0
  0
SPLINE
  5
12c
100
AcDbEntity
  8
0
 62
7
100
AcDbSpline
 70
8
 71
3
 72
8
 73
4
 74
0
 40
0
 40
0
 40
0
 40
0
 40
1
 40
1
 40
1
 40
1
 10
96.947045
 20
79.555649
 30
0.0
 10
97.411148
 20
79.287699
 30
0.0
 10
97.982946
 20
79.287699
 30
0.0
 10
98.447049
 20
79.555649
 30
0.0
  0
SPLINE
  5
12d
100
AcDbEntity
  8
0
 62
7
100
AcDbSpline
 70
8
 71
3
 72
8
 73
4
 74
0
 40
0
 40
0
 40
0
 40
0
 40
1
 40
1
 40
1
 40
1
 10
98.447049
 20
79.555649
 30
0.0
 10
98.911151
 20
79.823599
 30
0.0
 10
99.197050
 20
80.318790
 30
0.0
 10
99.197050
 20
80.854690
 30
0.0
  0
LWPOLYLINE
  5
12e
100
AcDbEntity
  8
0
 62
7
100
AcDbPolyline
 90
1
 70
1
 10
123.370827
 20
80.858315
 30
0.0
  0
SPLINE
  5
12f
100
AcDbEntity
  8
0
 62
7
100
AcDbSpline
 70
8
 71
3
 72
8
 73
4
 74
0
 40
0
 40
0
 40
0
 40
0
 40
1
 40
1
 40
1
 40
1
 10
123.368975
 20
8.450264
 30
0.0
 10
123.368975
 20
8.986164
 30
0.0
 10
123.083076
 20
9.481355
 30
0.0
 10
122.618974
 20
9.749305
 30
0.0
  0
SPLINE
  5
130
100
AcDbEntity
  8
0
 62
7
100
AcDbSpline
 70
8
 71
3
 72
8
 73
4
 74
0
 40
0
 40
0
 40
0
 40
0
 40
1
 40
1
 40
1
 40
1
 10
122.618974
 20
9.749305
 30
0.0
 10
122.154871
 20
10.017255
 30
0.0
 10
121.583073
 20
10.017255
 30
0.0
 10
121.118971
 20
9.749305
 30
0.0
  0
SPLINE
  5
131
100
AcDbEntity
  8
0
 62
7
100
AcDbSpline
 70
8
 71
3
 72
8
 73
4
 74
0
 40
0
 40
0
 40
0
 40
0
 40
1
 40
1
 40
1
 40
1
 10
121.118971
 20
9.749305
 30
0.0
 10
120.654868
 20
9.481355
 30
0.0
 10
120.368969
 20
8.986164
 30
0.0
 10
120.368969
 20
8.450264
 30
0.0
  0
SPLINE
  5
132
100
AcDbEntity
  8
0
 62
7
100
AcDbSpline
 70
8
 71
3
 72
8
 73
4
 74
0
 40
0
 40
0
 40
0
 40
0
 40
1
 40
1
 40
1
 40
1
 10
120.368969
 20
8.450264
 30
0.0
 10
120.368969
 20
7.621836
 30
0.0
 10
121.040543
 20
6.950261
 30
0.0
 10
121.868972
 20
6.950261
 30
0.0
  0
SPLINE
  5
133
100
AcDbEntity
  8
0
 62
7
100
AcDbSpline
 70
8
 71
3
 72
8
 73
4
 74
0
 40
0
 40
0
 40
0
 40
0
 40
1
 40
1
 40
1
 40
1
 10
121.868972
 20
6.950261
 30
0.0
 10
122.697401
 20
6.950261
 30
0.0
 10
123.368975
 20
7.621836
 30
0.0
 10
123.368975
 20
8.450264
 30
0.0
  0
LWPOLYLINE
  5
134
100
AcDbEntity
  8
0
 62
7
100
AcDbPolyline
 90
1
 70
1
 10
99.197050
 20
80.854690
 30
0.0
  0
SPLINE
  5
135
100
AcDbEntity
  8
0
 62
7
100
AcDbSpline
 70
8
 71
3
 72
8
 73
4
 74
0
 40
0
 40
0
 40
0
 40
0
 40
1
 40
1
 40
1
 40
1
 10
125.675504
 20
46.757401
 30
0.0
 10
124.820783
 20
46.757398
 30
0.0
 10
124.116943
 20
46.055623
 30
0.0
 10
124.116943
 20
45.200906
 30
0.0
  0
LWPOLYLINE
  5
136
100
AcDbEntity
  8
0
 62
7
100
AcDbPolyline
 90
1
 70
1
 10
123.368975
 20
8.450264
 30
0.0
  0
SPLINE
  5
137
100
AcDbEntity
  8
0
 62
7
100
AcDbSpline
 70
8
 71
3
 72
8
 73
4
 74
0
 40
0
 40
0
 40
0
 40
0
 40
1
 40
1
 40
1
 40
1
 10
124.116943
 20
38.316050
 30
0.0
 10
124.116943
 20
37.461334
 30
0.0
 10
124.820783
 20
36.757490
 30
0.0
 10
125.675504
 20
36.757488
 30
0.0
  0
LWPOLYLINE
  5
138
100
AcDbEntity
  8
0
 62
7
100
AcDbPolyline
 90
2
 70
0
 10
124.116943
 20
45.200906
 30
0.0
 10
124.116943
 20
38.316050
 30
0.0
  0
SPLINE
  5
139
100
AcDbEntity
  8
0
 62
7
100
AcDbSpline
 70
8
 71
3
 72
8
 73
4
 74
0
 40
0
 40
0
 40
0
 40
0
 40
1
 40
1
 40
1
 40
1
 10
142.560274
 20
36.757488
 30
0.0
 10
143.414985
 20
36.757490
 30
0.0
 10
144.116765
 20
37.461334
 30
0.0
 10
144.116765
 20
38.316050
 30
0.0
  0
LWPOLYLINE
  5
13a
100
AcDbEntity
  8
0
 62
7
100
AcDbPolyline
 90
2
 70
0
 10
125.675504
 20
36.757488
 30
0.0
 10
142.560274
 20
36.757488
 30
0.0
  0
SPLINE
  5
13b
100
AcDbEntity
  8
0
 62
7
100
AcDbSpline
 70
8
 71
3
 72
8
 73
4
 74
0
 40
0
 40
0
 40
0
 40
0
 40
1
 40
1
 40
1
 40
1
 10
144.116765
 20
45.200906
 30
0.0
 10
144.116765
 20
46.055623
 30
0.0
 10
143.414985
 20
46.757398
 30
0.0
 10
142.560274
 20
46.757401
 30
0.0
  0
LWPOLYLINE
  5
13c
100
AcDbEntity
  8
0
 62
7
100
AcDbPolyline
 90
2
 70
0
 10
144.116765
 20
38.316050
 30
0.0
 10
144.116765
 20
45.200906
 30
0.0
  0
SPLINE
  5
13d
100
AcDbEntity
  8
0
 62
7
100
AcDbSpline
 70
8
 71
3
 72
8
 73
4
 74
0
 40
0
 40
0
 40
0
 40
0
 40
1
 40
1
 40
1
 40
1
 10
216.800868
 20
80.856397
 30
0.0
 10
216.800868
 20
81.392295
 30
0.0
 10
216.514970
 20
81.887486
 30
0.0
 10
216.050868
 20
82.155436
 30
0.0
  0
SPLINE
  5
13e
100
AcDbEntity
  8
0
 62
7
100
AcDbSpline
 70
8
 71
3
 72
8
 73
4
 74
0
 40
0
 40
0
 40
0
 40
0
 40
1
 40
1
 40
1
 40
1
 10
216.050868
 20
82.155436
 30
0.0
 10
215.586766
 20
82.423385
 30
0.0
 10
215.014969
 20
82.423385
 30
0.0
 10
214.550867
 20
82.155436
 30
0.0
  0
SPLINE
  5
13f
100
AcDbEntity
  8
0
 62
7
100
AcDbSpline
 70
8
 71
3
 72
8
 73
4
 74
0
 40
0
 40
0
 40
0
 40
0
 40
1
 40
1
 40
1
 40
1
 10
214.550867
 20
82.155436
 30
0.0
 10
214.086765
 20
81.887486
 30
0.0
 10
213.800866
 20
81.392295
 30
0.0
 10
213.800866
 20
80.856397
 30
0.0
  0
SPLINE
  5
140
100
AcDbEntity
  8
0
 62
7
100
AcDbSpline
 70
8
 71
3
 72
8
 73
4
 74
0
 40
0
 40
0
 40
0
 40
0
 40
1
 40
1
 40
1
 40
1
 10
213.800866
 20
80.856397
 30
0.0
 10
213.800866
 20
80.320498
 30
0.0
 10
214.086765
 20
79.825307
 30
0.0
 10
214.550867
 20
79.557357
 30
0.0
  0
SPLINE
  5
141
100
AcDbEntity
  8
0
 62
7
100
AcDbSpline
 70
8
 71
3
 72
8
 73
4
 74
0
 40
0
 40
0
 40
0
 40
0
 40
1
 40
1
 40
1
 40
1
 10
214.550867
 20
79.557357
 30
0.0
 10
215.014969
 20
79.289408
 30
0.0
 10
215.586766
 20
79.289408
 30
0.0
 10
216.050868
 20
79.557357
 30
0.0
  0
SPLINE
  5
142
100
AcDbEntity
  8
0
 62
7
100
AcDbSpline
 70
8
 71
3
 72
8
 73
4
 74
0
 40
0
 40
0
 40
0
 40
0
 40
1
 40
1
 40
1
 40
1
 10
216.050868
 20
79.557357
 30
0.0
 10
216.514970
 20
79.825307
 30
0.0
 10
216.800868
 20
80.320498
 30
0.0
 10
216.800868
 20
80.856397
 30
0.0
  0
LWPOLYLINE
  5
143
100
AcDbEntity
  8
0
 62
7
100
AcDbPolyline
 90
2
 70
0
 10
142.560274
 20
46.757401
 30
0.0
 10
125.675504
 20
46.757401
 30
0.0
  0
SPLINE
  5
144
100
AcDbEntity
  8
0
 62
7
100
AcDbSpline
 70
8
 71
3
 72
8
 73
4
 74
0
 40
0
 40
0
 40
0
 40
0
 40
1
 40
1
 40
1
 40
1
 10
5.901360
 20
80.856397
 30
0.0
 10
5.901360
 20
81.392295
 30
0.0
 10
5.615462
 20
81.887486
 30
0.0
 10
5.151360
 20
82.155436
 30
0.0
  0
SPLINE
  5
145
100
AcDbEntity
  8
0
 62
7
100
AcDbSpline
 70
8
 71
3
 72
8
 73
4
 74
0
 40
0
 40
0
 40
0
 40
0
 40
1
 40
1
 40
1
 40
1
 10
5.151360
 20
82.155436
 30
0.0
 10
4.687258
 20
82.423385
 30
0.0
 10
4.115461
 20
82.423385
 30
0.0
 10
3.651359
 20
82.155436
 30
0.0
  0
SPLINE
  5
146
100
AcDbEntity
  8
0
 62
7
100
AcDbSpline
 70
8
 71
3
 72
8
 73
4
 74
0
 40
0
 40
0
 40
0
 40
0
 40
1
 40
1
 40
1
 40
1
 10
3.651359
 20
82.155436
 30
0.0
 10
3.187257
 20
81.887486
 30
0.0
 10
2.901358
 20
81.392295
 30
0.0
 10
2.901358
 20
80.856397
 30
0.0
  0
SPLINE
  5
147
100
AcDbEntity
  8
0
 62
7
100
AcDbSpline
 70
8
 71
3
 72
8
 73
4
 74
0
 40
0
 40
0
 40
0
 40
0
 40
1
 40
1
 40
1
 40
1
 10
2.901358
 20
80.856397
 30
0.0
 10
2.901358
 20
80.320498
 30
0.0
 10
3.187257
 20
79.825307
 30
0.0
 10
3.651359
 20
79.557357
 30
0.0
  0
SPLINE
  5
148
100
AcDbEntity
  8
0
 62
7
100
AcDbSpline
 70
8
 71
3
 72
8
 73
4
 74
0
 40
0
 40
0
 40
0
 40
0
 40
1
 40
1
 40
1
 40
1
 10
3.651359
 20
79.557357
 30
0.0
 10
4.115461
 20
79.289408
 30
0.0
 10
4.687258
 20
79.289408
 30
0.0
 10
5.151360
 20
79.557357
 30
0.0
  0
SPLINE
  5
149
100
AcDbEntity
  8
0
 62
7
100
AcDbSpline
 70
8
 71
3
 72
8
 73
4
 74
0
 40
0
 40
0
 40
0
 40
0
 40
1
 40
1
 40
1
 40
1
 10
5.151360
 20
79.557357
 30
0.0
 10
5.615462
 20
79.825307
 30
0.0
 10
5.901360
 20
80.320498
 30
0.0
 10
5.901360
 20
80.856397
 30
0.0
  0
LWPOLYLINE
  5
14a
100
AcDbEntity
  8
0
 62
7
100
AcDbPolyline
 90
1
 70
1
 10
216.800868
 20
80.856397
 30
0.0
  0
SPLINE
  5
14b
100
AcDbEntity
  8
0
 62
7
100
AcDbSpline
 70
8
 71
3
 72
8
 73
4
 74
0
 40
0
 40
0
 40
0
 40
0
 40
1
 40
1
 40
1
 40
1
 10
216.800868
 20
8.455768
 30
0.0
 10
216.800868
 20
8.991666
 30
0.0
 10
216.514970
 20
9.486857
 30
0.0
 10
216.050868
 20
9.754807
 30
0.0
  0
SPLINE
  5
14c
100
AcDbEntity
  8
0
 62
7
100
AcDbSpline
 70
8
 71
3
 72
8
 73
4
 74
0
 40
0
 40
0
 40
0
 40
0
 40
1
 40
1
 40
1
 40
1
 10
216.050868
 20
9.754807
 30
0.0
 10
215.586766
 20
10.022756
 30
0.0
 10
215.014969
 20
10.022756
 30
0.0
 10
214.550867
 20
9.754807
 30
0.0
  0
SPLINE
  5
14d
100
AcDbEntity
  8
0
 62
7
100
AcDbSpline
 70
8
 71
3
 72
8
 73
4
 74
0
 40
0
 40
0
 40
0
 40
0
 40
1
 40
1
 40
1
 40
1
 10
214.550867
 20
9.754807
 30
0.0
 10
214.086765
 20
9.486857
 30
0.0
 10
213.800866
 20
8.991666
 30
0.0
 10
213.800866
 20
8.455768
 30
0.0
  0
SPLINE
  5
14e
100
AcDbEntity
  8
0
 62
7
100
AcDbSpline
 70
8
 71
3
 72
8
 73
4
 74
0
 40
0
 40
0
 40
0
 40
0
 40
1
 40
1
 40
1
 40
1
 10
213.800866
 20
8.455768
 30
0.0
 10
213.800866
 20
7.919869
 30
0.0
 10
214.086765
 20
7.424678
 30
0.0
 10
214.550867
 20
7.156729
 30
0.0
  0
SPLINE
  5
14f
100
AcDbEntity
  8
0
 62
7
100
AcDbSpline
 70
8
 71
3
 72
8
 73
4
 74
0
 40
0
 40
0
 40
0
 40
0
 40
1
 40
1
 40
1
 40
1
 10
214.550867
 20
7.156729
 30
0.0
 10
215.014969
 20
6.888779
 30
0.0
 10
215.586766
 20
6.888779
 30
0.0
 10
216.050868
 20
7.156729
 30
0.0
  0
SPLINE
  5
150
100
AcDbEntity
  8
0
 62
7
100
AcDbSpline
 70
8
 71
3
 72
8
 73
4
 74
0
 40
0
 40
0
 40
0
 40
0
 40
1
 40
1
 40
1
 40
1
 10
216.050868
 20
7.156729
 30
0.0
 10
216.514970
 20
7.424678
 30
0.0
 10
216.800868
 20
7.919869
 30
0.0
 10
216.800868
 20
8.455768
 30
0.0
  0
LWPOLYLINE
  5
151
100
AcDbEntity
  8
0
 62
7
100
AcDbPolyline
 90
1
 70
1
 10
5.901360
 20
80.856397
 30
0.0
  0
SPLINE
  5
152
100
AcDbEntity
  8
0
 62
7
100
AcDbSpline
 70
8
 71
3
 72
8
 73
4
 74
0
 40
0
 40
0
 40
0
 40
0
 40
1
 40
1
 40
1
 40
1
 10
5.901360
 20
8.455768
 30
0.0
 10
5.901360
 20
8.991666
 30
0.0
 10
5.615462
 20
9.486857
 30
0.0
 10
5.151360
 20
9.754807
 30
0.0
  0
SPLINE
  5
153
100
AcDbEntity
  8
0
 62
7
100
AcDbSpline
 70
8
 71
3
 72
8
 73
4
 74
0
 40
0
 40
0
 40
0
 40
0
 40
1
 40
1
 40
1
 40
1
 10
5.151360
 20
9.754807
 30
0.0
 10
4.687258
 20
10.022756
 30
0.0
 10
4.115461
 20
10.022756
 30
0.0
 10
3.651359
 20
9.754807
 30
0.0
  0
SPLINE
  5
154
100
AcDbEntity
  8
0
 62
7
100
AcDbSpline
 70
8
 71
3
 72
8
 73
4
 74
0
 40
0
 40
0
 40
0
 40
0
 40
1
 40
1
 40
1
 40
1
 10
3.651359
 20
9.754807
 30
0.0
 10
3.187257
 20
9.486857
 30
0.0
 10
2.901358
 20
8.991666
 30
0.0
 10
2.901358
 20
8.455768
 30
0.0
  0
SPLINE
  5
155
100
AcDbEntity
  8
0
 62
7
100
AcDbSpline
 70
8
 71
3
 72
8
 73
4
 74
0
 40
0
 40
0
 40
0
 40
0
 40
1
 40
1
 40
1
 40
1
 10
2.901358
 20
8.455768
 30
0.0
 10
2.901358
 20
7.919869
 30
0.0
 10
3.187257
 20
7.424678
 30
0.0
 10
3.651359
 20
7.156729
 30
0.0
  0
SPLINE
  5
156
100
AcDbEntity
  8
0
 62
7
100
AcDbSpline
 70
8
 71
3
 72
8
 73
4
 74
0
 40
0
 40
0
 40
0
 40
0
 40
1
 40
1
 40
1
 40
1
 10
3.651359
 20
7.156729
 30
0.0
 10
4.115461
 20
6.888779
 30
0.0
 10
4.687258
 20
6.888779
 30
0.0
 10
5.151360
 20
7.156729
 30
0.0
  0
SPLINE
  5
157
100
AcDbEntity
  8
0
 62
7
100
AcDbSpline
 70
8
 71
3
 72
8
 73
4
 74
0
 40
0
 40
0
 40
0
 40
0
 40
1
 40
1
 40
1
 40
1
 10
5.151360
 20
7.156729
 30
0.0
 10
5.615462
 20
7.424678
 30
0.0
 10
5.901360
 20
7.919869
 30
0.0
 10
5.901360
 20
8.455768
 30
0.0
  0
LWPOLYLINE
  5
158
100
AcDbEntity
  8
0
 62
7
100
AcDbPolyline
 90
1
 70
1
 10
216.800868
 20
8.455768
 30
0.0
  0
LWPOLYLINE
  5
159
100
AcDbEntity
  8
0
 62
7
100
AcDbPolyline
 90
1
 70
1
 10
5.901360
 20
8.455768
 30
0.0
  0
SPLINE
  5
15a
100
AcDbEntity
  8
0
 62
7
100
AcDbSpline
 70
8
 71
3
 72
8
 73
4
 74
0
 40
0
 40
0
 40
0
 40
0
 40
1
 40
1
 40
1
 40
1
 10
219.650934
 20
87.250031
 30
0.0
 10
220.181131
 20
87.250031
 30
0.0
 10
220.689611
 20
87.039564
 30
0.0
 10
221.064517
 20
86.664931
 30
0.0
  0
SPLINE
  5
15b
100
AcDbEntity
  8
0
 62
7
100
AcDbSpline
 70
8
 71
3
 72
8
 73
4
 74
0
 40
0
 40
0
 40
0
 40
0
 40
1
 40
1
 40
1
 40
1
 10
221.064517
 20
86.664931
 30
0.0
 10
221.439422
 20
86.290298
 30
0.0
 10
221.650041
 20
85.782186
 30
0.0
 10
221.650041
 20
85.252374
 30
0.0
  0
LWPOLYLINE
  5
15c
100
AcDbEntity
  8
0
 62
7
100
AcDbPolyline
 90
2
 70
0
 10
0.049061
 20
87.250031
 30
0.0
 10
219.650934
 20
87.250031
 30
0.0
  0
SPLINE
  5
15d
100
AcDbEntity
  8
0
 62
7
100
AcDbSpline
 70
8
 71
3
 72
8
 73
4
 74
0
 40
0
 40
0
 40
0
 40
0
 40
1
 40
1
 40
1
 40
1
 10
221.650041
 20
4.047630
 30
0.0
 10
221.650042
 20
3.517818
 30
0.0
 10
221.439422
 20
3.009706
 30
0.0
 10
221.064517
 20
2.635073
 30
0.0
  0
SPLINE
  5
15e
100
AcDbEntity
  8
0
 62
7
100
AcDbSpline
 70
8
 71
3
 72
8
 73
4
 74
0
 40
0
 40
0
 40
0
 40
0
 40
1
 40
1
 40
1
 40
1
 10
221.064517
 20
2.635073
 30
0.0
 10
220.689611
 20
2.260439
 30
0.0
 10
220.181131
 20
2.049972
 30
0.0
 10
219.650934
 20
2.049972
 30
0.0
  0
LWPOLYLINE
  5
15f
100
AcDbEntity
  8
0
 62
7
100
AcDbPolyline
 90
2
 70
0
 10
221.650041
 20
85.252374
 30
0.0
 10
221.650041
 20
4.047630
 30
0.0
  0
SPLINE
  5
160
100
AcDbEntity
  8
0
 62
7
100
AcDbSpline
 70
8
 71
3
 72
8
 73
4
 74
0
 40
0
 40
0
 40
0
 40
0
 40
1
 40
1
 40
1
 40
1
 10
0.049061
 20
2.049972
 30
0.0
 10
-0.481135
 20
2.049973
 30
0.0
 10
-0.989615
 20
2.260439
 30
0.0
 10
-1.364521
 20
2.635073
 30
0.0
  0
SPLINE
  5
161
100
AcDbEntity
  8
0
 62
7
100
AcDbSpline
 70
8
 71
3
 72
8
 73
4
 74
0
 40
0
 40
0
 40
0
 40
0
 40
1
 40
1
 40
1
 40
1
 10
-1.364521
 20
2.635073
 30
0.0
 10
-1.739426
 20
3.009706
 30
0.0
 10
-1.950045
 20
3.517818
 30
0.0
 10
-1.950045
 20
4.047630
 30
0.0
  0
LWPOLYLINE
  5
162
100
AcDbEntity
  8
0
 62
7
100
AcDbPolyline
 90
2
 70
0
 10
219.650934
 20
2.049972
 30
0.0
 10
0.049061
 20
2.049972
 30
0.0
  0
SPLINE
  5
163
100
AcDbEntity
  8
0
 62
7
100
AcDbSpline
 70
8
 71
3
 72
8
 73
4
 74
0
 40
0
 40
0
 40
0
 40
0
 40
1
 40
1
 40
1
 40
1
 10
-1.950045
 20
85.252374
 30
0.0
 10
-1.950045
 20
86.355650
 30
0.0
 10
-1.055015
 20
87.250031
 30
0.0
 10
0.049061
 20
87.250031
 30
0.0
  0
LWPOLYLINE
  5
164
100
AcDbEntity
  8
0
 62
7
100
AcDbPolyline
 90
2
 70
0
 10
-1.950045
 20
4.047630
 30
0.0
 10
-1.950045
 20
85.252374
 30
0.0
  0
LWPOLYLINE
  5
165
100
AcDbEntity
  8
0
 62
7
100
AcDbPolyline
 90
1
 70
1
 10
0.049061
 20
87.250031
 30
0.0
  0
ENDSEC
  0
SECTION
  2
OBJECTS
  0
DICTIONARY
  5
C
330
0
100
AcDbDictionary
  3
ACAD_GROUP
350
D
  3
ACAD_MLINESTYLE
350
17
  0
DICTIONARY
  5
D
330
C
100
AcDbDictionary
  0
DICTIONARY
  5
1A
330
C
100
AcDbDictionary
  0
DICTIONARY
  5
17
330
C
100
AcDbDictionary
  3
STANDARD
350
18
  0
DICTIONARY
  5
19
330
C
100
AcDbDictionary
  0
ENDSEC
  0
EOF
