G04 DesignSpark PCB Gerber Version 11.0 Build 5877*
%FSLAX35Y35*%
%MOIN*%
%ADD83O,0.06600X0.10600*%
%ADD80R,0.06500X0.06500*%
%ADD84R,0.06600X0.06600*%
%ADD21C,0.00500*%
%ADD18C,0.04600*%
%ADD81C,0.06500*%
%ADD71C,0.06600*%
%ADD126C,0.07687*%
%ADD97C,0.08474*%
%ADD98C,0.09261*%
%ADD82C,0.10443*%
%ADD70C,0.24222*%
X0Y0D02*
D02*
D18*
X60600Y70600D03*
X63100Y280600D03*
X65600Y65600D03*
X75600Y75600D03*
Y85600D03*
X80600Y80600D03*
X83100Y280600D03*
X85600Y90600D03*
X173100Y60600D03*
X178100Y65600D03*
D03*
X183100Y70600D03*
X188100Y75600D03*
X193100Y90600D03*
X198100Y95600D03*
X203100Y80600D03*
X208100Y70600D03*
X300600Y65600D03*
X305600Y70600D03*
X308100Y275600D03*
X310600Y75600D03*
X315600Y100600D03*
X320600Y95600D03*
Y270600D03*
X325600Y80600D03*
X326850Y230600D03*
X328100Y280600D03*
X368100Y90600D03*
X378100Y85600D03*
X388100Y80600D03*
X408100D03*
X418100Y85600D03*
X423100Y65600D03*
X428100Y70600D03*
Y90600D03*
X433100Y75600D03*
X438100Y95600D03*
X443100Y100600D03*
X448100Y60600D03*
Y149350D03*
X478100Y135600D03*
X488100D03*
X545600Y65600D03*
X550600Y70600D03*
X553100Y275600D03*
X555600Y75600D03*
X560600Y95600D03*
X565600Y100600D03*
Y270600D03*
X568100Y150600D03*
X570600Y80600D03*
X573100Y280600D03*
X578100Y145600D03*
X603100Y60600D03*
X635600Y163100D03*
Y188100D03*
X645600D03*
X668100Y65600D03*
X673100Y70600D03*
X678100Y75600D03*
X680600Y150600D03*
Y228100D03*
X683100Y90600D03*
X685600Y145600D03*
Y223100D03*
X690600Y95600D03*
Y218100D03*
X693100Y80600D03*
X695600Y100600D03*
Y213100D03*
X700600Y208100D03*
X705600Y90600D03*
Y203100D03*
X743100Y145600D03*
Y163100D03*
X768100Y198100D03*
Y213100D03*
X783100Y250600D03*
X790600Y65600D03*
Y93100D03*
X795600Y70600D03*
X800600Y75600D03*
Y85600D03*
Y100600D03*
X805600Y70600D03*
X810600Y100600D03*
Y110600D03*
Y275600D03*
X815600Y80600D03*
Y93100D03*
Y105600D03*
X818100Y280600D03*
D02*
D70*
X18100Y18100D03*
Y43100D03*
Y303100D03*
X113100Y43100D03*
Y303100D03*
X140600Y43100D03*
Y303100D03*
X235600Y43100D03*
Y303100D03*
X263100Y43100D03*
Y303100D03*
X358100Y43100D03*
Y303100D03*
X385600Y18100D03*
Y43100D03*
Y303100D03*
X480600Y18100D03*
Y43100D03*
Y303100D03*
X508100Y43100D03*
Y303100D03*
X603100Y43100D03*
Y303100D03*
X630600Y43100D03*
Y303100D03*
X725600Y43100D03*
Y303100D03*
X753100Y43100D03*
Y303100D03*
X848100Y18100D03*
Y43100D03*
Y303100D03*
D02*
D71*
X50600Y38100D03*
Y48100D03*
X60600Y38100D03*
Y48100D03*
X70600Y38100D03*
Y48100D03*
X80600Y38100D03*
Y48100D03*
X173100Y38100D03*
Y48100D03*
X183100Y38100D03*
Y48100D03*
X193100Y38100D03*
Y48100D03*
X203100Y38100D03*
Y48100D03*
X295600Y38100D03*
Y48100D03*
X305600Y38100D03*
Y48100D03*
X315600Y38100D03*
Y48100D03*
X325600Y38100D03*
Y48100D03*
X418100Y38100D03*
Y48100D03*
X428100Y38100D03*
Y48100D03*
X438100Y38100D03*
Y48100D03*
X448100Y38100D03*
Y48100D03*
X533100Y150600D03*
Y190600D03*
X540600Y38100D03*
Y48100D03*
X545600Y145600D03*
Y185600D03*
X550600Y38100D03*
Y48100D03*
X560600Y38100D03*
Y48100D03*
X570600Y38100D03*
Y48100D03*
X603100Y163100D03*
Y203100D03*
X663100Y38100D03*
Y48100D03*
X673100Y38100D03*
Y48100D03*
X683100Y38100D03*
Y48100D03*
X693100Y38100D03*
Y48100D03*
X755600Y150600D03*
Y160600D03*
Y230600D03*
Y240600D03*
X765600Y150600D03*
Y160600D03*
Y230600D03*
Y240600D03*
X775600Y150600D03*
Y160600D03*
Y230600D03*
Y240600D03*
X785600Y38100D03*
Y48100D03*
Y150600D03*
Y160600D03*
Y230600D03*
Y240600D03*
X795600Y38100D03*
Y48100D03*
Y150600D03*
Y160600D03*
Y230600D03*
Y240600D03*
X805600Y38100D03*
Y48100D03*
Y150600D03*
Y160600D03*
Y230600D03*
Y240600D03*
X815600Y38100D03*
Y48100D03*
Y150600D03*
Y160600D03*
Y230600D03*
Y240600D03*
X825600Y150600D03*
Y160600D03*
Y230600D03*
Y240600D03*
D02*
D21*
D02*
D80*
X368100Y163100D03*
D02*
D81*
Y193100D03*
X378100Y163100D03*
Y193100D03*
X388100Y163100D03*
Y193100D03*
X398100Y163100D03*
Y193100D03*
X408100Y163100D03*
Y193100D03*
X418100Y163100D03*
Y193100D03*
X428100Y163100D03*
Y193100D03*
X438100Y163100D03*
Y193100D03*
X448100Y163100D03*
Y193100D03*
X458100Y163100D03*
Y193100D03*
X468100Y163100D03*
Y193100D03*
X478100Y163100D03*
Y193100D03*
X488100Y163100D03*
Y193100D03*
X498100Y163100D03*
Y193100D03*
D02*
D82*
X15600Y88100D03*
Y108100D03*
Y140600D03*
Y160600D03*
Y193100D03*
Y213100D03*
Y245600D03*
Y265600D03*
X65600Y88100D03*
Y108100D03*
Y140600D03*
Y160600D03*
Y193100D03*
Y213100D03*
Y245600D03*
Y265600D03*
X620600Y175600D03*
Y195600D03*
X670600Y175600D03*
Y195600D03*
D02*
D83*
X368100Y215600D03*
X378100D03*
X388100D03*
X398100D03*
X408100D03*
X418100D03*
X428100D03*
X438100D03*
X448100D03*
X458100D03*
D02*
D84*
X178100Y120600D03*
X188100D03*
X198100D03*
X208100D03*
X218100D03*
X473100Y213100D03*
Y223100D03*
Y233100D03*
X488100Y213100D03*
Y223100D03*
Y233100D03*
X503100Y213100D03*
Y223100D03*
Y233100D03*
X558100Y185600D03*
X568100D03*
X578100D03*
X588100D03*
X615600Y223100D03*
X625600D03*
X635600D03*
X645600D03*
X655600D03*
X665600D03*
D02*
D97*
X40600Y80600D03*
Y115600D03*
Y133100D03*
Y168100D03*
Y185600D03*
Y220600D03*
Y238100D03*
Y273100D03*
X645600Y168100D03*
Y203100D03*
D02*
D98*
X316850Y149350D03*
X326850Y146850D03*
X340600D03*
X350600Y149350D03*
D02*
D126*
X518100Y203100D03*
Y243100D03*
X0Y0D02*
M02*
