G04 DesignSpark PCB Gerber Version 11.0 Build 5877*
%FSLAX35Y35*%
%MOIN*%
%ADD87C,0.00300*%
%ADD23C,0.00394*%
%ADD21C,0.00500*%
%ADD86C,0.00600*%
%ADD24C,0.00787*%
%ADD13C,0.01000*%
X0Y0D02*
D02*
D13*
X173100Y115600D02*
X223100D01*
Y125600D01*
X173100D01*
Y115600D01*
X468100Y238100D02*
Y208100D01*
X478100D01*
Y238100D01*
X468100D01*
X483100D02*
Y208100D01*
X493100D01*
Y238100D01*
X483100D01*
X498100D02*
Y208100D01*
X508100D01*
Y238100D01*
X498100D01*
X522800Y216600D02*
X513400D01*
X553100Y180600D02*
X593100D01*
Y190600D01*
X553100D01*
Y180600D01*
X610600Y228100D02*
Y218100D01*
X620600D01*
Y228100D01*
X610600D01*
X620600Y218100D02*
X670600D01*
Y228100D01*
X620600D01*
Y218100D01*
D02*
D21*
X43100Y33100D02*
X88100D01*
Y53100D01*
X43100D01*
Y33100D01*
X158100Y121537D02*
Y125287D01*
X160287D01*
X160913Y124975D01*
X161225Y124350D01*
X160913Y123725D01*
X160287Y123413D01*
X158100D01*
X163100Y125287D02*
Y121537D01*
X166225D01*
X168725D02*
X169975D01*
X169350D02*
Y125287D01*
X168725Y124663D01*
X165600Y33100D02*
X210600D01*
Y53100D01*
X165600D01*
Y33100D01*
X288100D02*
X333100D01*
Y53100D01*
X288100D01*
Y33100D01*
X363100Y223100D02*
X460600D01*
X463100Y220600D01*
Y208100D01*
X363100D01*
Y223100D01*
X373100Y176537D02*
Y180287D01*
X374663Y178413D01*
X376225Y180287D01*
Y176537D01*
X381225Y177163D02*
X380913Y176850D01*
X380287Y176537D01*
X379350D01*
X378725Y176850D01*
X378413Y177163D01*
X378100Y177787D01*
Y179037D01*
X378413Y179663D01*
X378725Y179975D01*
X379350Y180287D01*
X380287D01*
X380913Y179975D01*
X381225Y179663D01*
X383100Y176537D02*
Y180287D01*
X385287D01*
X385913Y179975D01*
X386225Y179350D01*
X385913Y178725D01*
X385287Y178413D01*
X383100D01*
X390600Y176537D02*
X388100D01*
X390287Y178725D01*
X390600Y179350D01*
X390287Y179975D01*
X389663Y180287D01*
X388725D01*
X388100Y179975D01*
X393413Y176850D02*
X394037Y176537D01*
X394663D01*
X395287Y176850D01*
X395600Y177475D01*
X395287Y178100D01*
X394663Y178413D01*
X394037D01*
X394663D02*
X395287Y178725D01*
X395600Y179350D01*
X395287Y179975D01*
X394663Y180287D01*
X394037D01*
X393413Y179975D01*
X398413Y176850D02*
X399037Y176537D01*
X399663D01*
X400287Y176850D01*
X400600Y177475D01*
Y179350D01*
X400287Y179975D01*
X399663Y180287D01*
X399037D01*
X398413Y179975D01*
X398100Y179350D01*
Y177475D01*
X398413Y176850D01*
X400287Y179975D01*
X403725Y176537D02*
X404975D01*
X404350D02*
Y180287D01*
X403725Y179663D01*
X408100Y176537D02*
X410600Y180287D01*
X408100D01*
X413100Y177787D02*
X415600D01*
X418100Y176537D02*
Y180287D01*
X421225D01*
X420600Y178413D02*
X418100D01*
Y176537D02*
X421225D01*
X423100D02*
X426225Y180287D01*
X428100Y177475D02*
X428413Y176850D01*
X429037Y176537D01*
X430287D01*
X430913Y176850D01*
X431225Y177475D01*
X430913Y178100D01*
X430287Y178413D01*
X429037D01*
X428413Y178725D01*
X428100Y179350D01*
X428413Y179975D01*
X429037Y180287D01*
X430287D01*
X430913Y179975D01*
X431225Y179350D01*
X433100Y176537D02*
Y180287D01*
X435287D01*
X435913Y179975D01*
X436225Y179350D01*
X435913Y178725D01*
X435287Y178413D01*
X433100D01*
X410600Y33100D02*
X455600D01*
Y53100D01*
X410600D01*
Y33100D01*
X446850Y232787D02*
Y236537D01*
X449037D01*
X449663Y236225D01*
X449975Y235600D01*
X449663Y234975D01*
X449037Y234663D01*
X446850D01*
X449037D02*
X449975Y232787D01*
X452475D02*
X453725D01*
X453100D02*
Y236537D01*
X452475Y235913D01*
X447475Y226787D02*
X448725D01*
X448100D02*
Y230537D01*
X447475Y229913D01*
X452163Y227100D02*
X452787Y226787D01*
X453413D01*
X454037Y227100D01*
X454350Y227725D01*
Y229600D01*
X454037Y230225D01*
X453413Y230537D01*
X452787D01*
X452163Y230225D01*
X451850Y229600D01*
Y227725D01*
X452163Y227100D01*
X454037Y230225D01*
X456850Y226787D02*
Y230537D01*
Y228663D02*
X457787D01*
X459975Y230537D01*
X457787Y228663D02*
X459975Y226787D01*
X474037Y243100D02*
X474350Y243413D01*
X474663Y244037D01*
X474350Y244663D01*
X474037Y244975D01*
X470913D01*
Y245600D01*
Y244975D02*
Y243725D01*
X474663Y248100D02*
X470913D01*
Y250287D01*
X471225Y250913D01*
X471850Y251225D01*
X472475Y250913D01*
X472787Y250287D01*
Y248100D01*
X474350Y253413D02*
X474663Y254037D01*
Y254663D01*
X474350Y255287D01*
X473725Y255600D01*
X473100Y255287D01*
X472787Y254663D01*
Y254037D01*
Y254663D02*
X472475Y255287D01*
X471850Y255600D01*
X471225Y255287D01*
X470913Y254663D01*
Y254037D01*
X471225Y253413D01*
X489037Y243100D02*
X489350Y243413D01*
X489663Y244037D01*
X489350Y244663D01*
X489037Y244975D01*
X485913D01*
Y245600D01*
Y244975D02*
Y243725D01*
X489663Y248100D02*
X485913D01*
Y250287D01*
X486225Y250913D01*
X486850Y251225D01*
X487475Y250913D01*
X487787Y250287D01*
Y248100D01*
X489663Y255600D02*
Y253100D01*
X487475Y255287D01*
X486850Y255600D01*
X486225Y255287D01*
X485913Y254663D01*
Y253725D01*
X486225Y253100D01*
X504037Y243100D02*
X504350Y243413D01*
X504663Y244037D01*
X504350Y244663D01*
X504037Y244975D01*
X500913D01*
Y245600D01*
Y244975D02*
Y243725D01*
X504663Y248100D02*
X500913D01*
Y250287D01*
X501225Y250913D01*
X501850Y251225D01*
X502475Y250913D01*
X502787Y250287D01*
Y248100D01*
X504663Y253725D02*
Y254975D01*
Y254350D02*
X500913D01*
X501537Y253725D01*
X513100Y233100D02*
X523100D01*
Y213100D01*
X513100D01*
Y233100D01*
X516537Y230600D02*
X520287D01*
Y228725D01*
X519975Y228100D01*
X519663Y227787D01*
X519037Y227475D01*
X517787D01*
X517163Y227787D01*
X516850Y228100D01*
X516537Y228725D01*
Y230600D01*
Y224975D02*
Y223725D01*
Y224350D02*
X520287D01*
X519663Y224975D01*
X518100Y213100D02*
Y208100D01*
Y238100D02*
Y233100D01*
X528100Y180600D02*
X538100D01*
Y160600D01*
X528100D01*
Y180600D01*
X533100Y33100D02*
X578100D01*
Y53100D01*
X533100D01*
Y33100D01*
Y160600D02*
Y155600D01*
X534037Y178100D02*
X537787D01*
Y175913D01*
X537475Y175287D01*
X536850Y174975D01*
X536225Y175287D01*
X535913Y175913D01*
Y178100D01*
Y175913D02*
X534037Y174975D01*
Y170600D02*
Y173100D01*
X536225Y170913D01*
X536850Y170600D01*
X537475Y170913D01*
X537787Y171537D01*
Y172475D01*
X537475Y173100D01*
X528037Y176537D02*
X531787D01*
X529287Y178100D01*
Y175600D01*
X528037Y173100D02*
X531787D01*
X529913D02*
Y172163D01*
X531787Y169975D01*
X529913Y172163D02*
X528037Y169975D01*
Y168100D02*
X531787Y165600D01*
Y168100D01*
X533100Y185600D02*
Y180600D01*
X540600Y175600D02*
X550600D01*
Y155600D01*
X540600D01*
Y175600D01*
X545600Y155600D02*
Y150600D01*
X546537Y173100D02*
X550287D01*
Y170913D01*
X549975Y170287D01*
X549350Y169975D01*
X548725Y170287D01*
X548413Y170913D01*
Y173100D01*
Y170913D02*
X546537Y169975D01*
X546850Y167787D02*
X546537Y167163D01*
Y166537D01*
X546850Y165913D01*
X547475Y165600D01*
X548100Y165913D01*
X548413Y166537D01*
Y167163D01*
Y166537D02*
X548725Y165913D01*
X549350Y165600D01*
X549975Y165913D01*
X550287Y166537D01*
Y167163D01*
X549975Y167787D01*
X540537Y171537D02*
X544287D01*
X541787Y173100D01*
Y170600D01*
X540537Y168100D02*
X544287D01*
X542413D02*
Y167163D01*
X544287Y164975D01*
X542413Y167163D02*
X540537Y164975D01*
Y163100D02*
X544287Y160600D01*
Y163100D01*
X545600Y180600D02*
Y175600D01*
X553100Y174037D02*
Y177787D01*
X555287D01*
X555913Y177475D01*
X556225Y176850D01*
X555913Y176225D01*
X555287Y175913D01*
X553100D01*
X558100Y177787D02*
Y174037D01*
X561225D01*
X563100Y174350D02*
X563725Y174037D01*
X564663D01*
X565287Y174350D01*
X565600Y174975D01*
Y175287D01*
X565287Y175913D01*
X564663Y176225D01*
X563100D01*
Y177787D01*
X565600D01*
X598100Y193100D02*
X608100D01*
Y173100D01*
X598100D01*
Y193100D01*
X603100Y173100D02*
Y168100D01*
X604037Y190600D02*
X607787D01*
Y188413D01*
X607475Y187787D01*
X606850Y187475D01*
X606225Y187787D01*
X605913Y188413D01*
Y190600D01*
Y188413D02*
X604037Y187475D01*
Y184037D02*
X607787D01*
X605287Y185600D01*
Y183100D01*
X598037Y189975D02*
Y188725D01*
Y189350D02*
X601787D01*
X601163Y189975D01*
X598350Y185287D02*
X598037Y184663D01*
Y184037D01*
X598350Y183413D01*
X598975Y183100D01*
X600850D01*
X601475Y183413D01*
X601787Y184037D01*
Y184663D01*
X601475Y185287D01*
X600850Y185600D01*
X598975D01*
X598350Y185287D01*
X601475Y183413D01*
X598037Y180600D02*
X601787D01*
X599913D02*
Y179663D01*
X601787Y177475D01*
X599913Y179663D02*
X598037Y177475D01*
X603100Y198100D02*
Y193100D01*
X610600Y211537D02*
Y215287D01*
X612787D01*
X613413Y214975D01*
X613725Y214350D01*
X613413Y213725D01*
X612787Y213413D01*
X610600D01*
X615600Y215287D02*
Y211537D01*
X618725D01*
X620600Y212475D02*
X620913Y213100D01*
X621537Y213413D01*
X622163D01*
X622787Y213100D01*
X623100Y212475D01*
X622787Y211850D01*
X622163Y211537D01*
X621537D01*
X620913Y211850D01*
X620600Y212475D01*
Y213413D01*
X620913Y214350D01*
X621537Y214975D01*
X622163Y215287D01*
X655600Y33100D02*
X700600D01*
Y53100D01*
X655600D01*
Y33100D01*
X725600Y150600D02*
X730600Y145600D01*
X833100D01*
X835600Y155600D01*
X860600D01*
Y245600D01*
X730600D01*
X725600Y240600D01*
Y150600D01*
X730600Y155600D02*
G75*
G03*
X740600I5000J0D01*
G01*
G75*
G03*
X730600I-5000J0D01*
G01*
Y235600D02*
G75*
G03*
X740600I5000J0D01*
G01*
G75*
G03*
X730600I-5000J0D01*
G01*
X775600Y175600D02*
X800600D01*
Y200600D01*
X775600D01*
Y175600D01*
X778100Y33100D02*
X823100D01*
Y53100D01*
X778100D01*
Y33100D01*
Y195600D02*
G75*
G03*
X780600Y198100I1250J1250D01*
G01*
G75*
G03*
X778100Y195600I-1250J-1250D01*
G01*
X840600Y155600D02*
X855600D01*
Y165600D01*
X840600D01*
Y155600D01*
Y235600D02*
Y245600D01*
X855600D01*
Y235600D01*
X840600D01*
X843100Y150600D02*
Y155600D01*
X853100D01*
Y150600D01*
X843100D01*
X853100Y245600D02*
Y248100D01*
X843100D01*
Y245600D01*
X853100D01*
X860600Y178100D02*
Y213100D01*
X835600D01*
Y178100D01*
X860600D01*
D02*
D23*
X40009Y38100D02*
X37647Y39675D01*
Y38100D01*
X38828Y48139D02*
Y48533D01*
X38631Y48927D01*
X38238Y49124D01*
X37844Y48927D01*
X37647Y48533D01*
Y48139D01*
X37844Y47746D01*
X38238Y47549D01*
X38631Y47746D01*
X38828Y48139D01*
X39025Y47746D01*
X39419Y47549D01*
X39813Y47746D01*
X40009Y48139D01*
Y48533D01*
X39813Y48927D01*
X39419Y49124D01*
X39025Y48927D01*
X38828Y48533D01*
X95009Y38494D02*
Y39281D01*
Y38887D02*
X92647D01*
X93041Y38494D01*
X95009Y49124D02*
Y47549D01*
X93631Y48927D01*
X93238Y49124D01*
X92844Y48927D01*
X92647Y48533D01*
Y47943D01*
X92844Y47549D01*
X162509Y38100D02*
X160147Y39675D01*
Y38100D01*
X161328Y48139D02*
Y48533D01*
X161131Y48927D01*
X160738Y49124D01*
X160344Y48927D01*
X160147Y48533D01*
Y48139D01*
X160344Y47746D01*
X160738Y47549D01*
X161131Y47746D01*
X161328Y48139D01*
X161525Y47746D01*
X161919Y47549D01*
X162313Y47746D01*
X162509Y48139D01*
Y48533D01*
X162313Y48927D01*
X161919Y49124D01*
X161525Y48927D01*
X161328Y48533D01*
X217509Y38494D02*
Y39281D01*
Y38887D02*
X215147D01*
X215541Y38494D01*
X217509Y49124D02*
Y47549D01*
X216131Y48927D01*
X215738Y49124D01*
X215344Y48927D01*
X215147Y48533D01*
Y47943D01*
X215344Y47549D01*
X285009Y38100D02*
X282647Y39675D01*
Y38100D01*
X283828Y48139D02*
Y48533D01*
X283631Y48927D01*
X283238Y49124D01*
X282844Y48927D01*
X282647Y48533D01*
Y48139D01*
X282844Y47746D01*
X283238Y47549D01*
X283631Y47746D01*
X283828Y48139D01*
X284025Y47746D01*
X284419Y47549D01*
X284813Y47746D01*
X285009Y48139D01*
Y48533D01*
X284813Y48927D01*
X284419Y49124D01*
X284025Y48927D01*
X283828Y48533D01*
X340009Y38494D02*
Y39281D01*
Y38887D02*
X337647D01*
X338041Y38494D01*
X340009Y49124D02*
Y47549D01*
X338631Y48927D01*
X338238Y49124D01*
X337844Y48927D01*
X337647Y48533D01*
Y47943D01*
X337844Y47549D01*
X407509Y38100D02*
X405147Y39675D01*
Y38100D01*
X406328Y48139D02*
Y48533D01*
X406131Y48927D01*
X405738Y49124D01*
X405344Y48927D01*
X405147Y48533D01*
Y48139D01*
X405344Y47746D01*
X405738Y47549D01*
X406131Y47746D01*
X406328Y48139D01*
X406525Y47746D01*
X406919Y47549D01*
X407313Y47746D01*
X407509Y48139D01*
Y48533D01*
X407313Y48927D01*
X406919Y49124D01*
X406525Y48927D01*
X406328Y48533D01*
X462509Y38494D02*
Y39281D01*
Y38887D02*
X460147D01*
X460541Y38494D01*
X462509Y49124D02*
Y47549D01*
X461131Y48927D01*
X460738Y49124D01*
X460344Y48927D01*
X460147Y48533D01*
Y47943D01*
X460344Y47549D01*
X530009Y38100D02*
X527647Y39675D01*
Y38100D01*
X528828Y48139D02*
Y48533D01*
X528631Y48927D01*
X528238Y49124D01*
X527844Y48927D01*
X527647Y48533D01*
Y48139D01*
X527844Y47746D01*
X528238Y47549D01*
X528631Y47746D01*
X528828Y48139D01*
X529025Y47746D01*
X529419Y47549D01*
X529813Y47746D01*
X530009Y48139D01*
Y48533D01*
X529813Y48927D01*
X529419Y49124D01*
X529025Y48927D01*
X528828Y48533D01*
X585009Y38494D02*
Y39281D01*
Y38887D02*
X582647D01*
X583041Y38494D01*
X585009Y49124D02*
Y47549D01*
X583631Y48927D01*
X583238Y49124D01*
X582844Y48927D01*
X582647Y48533D01*
Y47943D01*
X582844Y47549D01*
X652509Y38100D02*
X650147Y39675D01*
Y38100D01*
X651328Y48139D02*
Y48533D01*
X651131Y48927D01*
X650738Y49124D01*
X650344Y48927D01*
X650147Y48533D01*
Y48139D01*
X650344Y47746D01*
X650738Y47549D01*
X651131Y47746D01*
X651328Y48139D01*
X651525Y47746D01*
X651919Y47549D01*
X652313Y47746D01*
X652509Y48139D01*
Y48533D01*
X652313Y48927D01*
X651919Y49124D01*
X651525Y48927D01*
X651328Y48533D01*
X707509Y38494D02*
Y39281D01*
Y38887D02*
X705147D01*
X705541Y38494D01*
X707509Y49124D02*
Y47549D01*
X706131Y48927D01*
X705738Y49124D01*
X705344Y48927D01*
X705147Y48533D01*
Y47943D01*
X705344Y47549D01*
X775009Y38100D02*
X772647Y39675D01*
Y38100D01*
X773828Y48139D02*
Y48533D01*
X773631Y48927D01*
X773238Y49124D01*
X772844Y48927D01*
X772647Y48533D01*
Y48139D01*
X772844Y47746D01*
X773238Y47549D01*
X773631Y47746D01*
X773828Y48139D01*
X774025Y47746D01*
X774419Y47549D01*
X774813Y47746D01*
X775009Y48139D01*
Y48533D01*
X774813Y48927D01*
X774419Y49124D01*
X774025Y48927D01*
X773828Y48533D01*
X807067Y198100D02*
X807411Y198272D01*
X807583Y198617D01*
Y199306D01*
X807411Y199650D01*
X807067Y199822D01*
X806722Y199650D01*
X806550Y199306D01*
Y198617D01*
X806378Y198272D01*
X806033Y198100D01*
X805689Y198272D01*
X805516Y198617D01*
Y199306D01*
X805689Y199650D01*
X806033Y199822D01*
X807411Y201028D02*
X807583Y201373D01*
Y201717D01*
X807411Y202062D01*
X807067Y202234D01*
X806722Y202062D01*
X806550Y201717D01*
Y201373D01*
Y201717D02*
X806378Y202062D01*
X806033Y202234D01*
X805689Y202062D01*
X805516Y201717D01*
Y201373D01*
X805689Y201028D01*
X807583Y206368D02*
X805516D01*
X806550Y207229D01*
X805516Y208090D01*
X807583D01*
Y209641D02*
Y210330D01*
Y209985D02*
X805516D01*
Y209641D02*
Y210330D01*
X807583Y211880D02*
X805516D01*
X807583Y213602D01*
X805516D01*
X807583Y215152D02*
Y215841D01*
Y215497D02*
X805516D01*
Y215152D02*
Y215841D01*
X830009Y38494D02*
Y39281D01*
Y38887D02*
X827647D01*
X828041Y38494D01*
X830009Y49124D02*
Y47549D01*
X828631Y48927D01*
X828238Y49124D01*
X827844Y48927D01*
X827647Y48533D01*
Y47943D01*
X827844Y47549D01*
X849911Y230772D02*
X850083Y231117D01*
Y231461D01*
X849911Y231806D01*
X849567Y231978D01*
X848533D01*
X848189Y231806D01*
X848016Y231461D01*
Y231117D01*
X848189Y230772D01*
X848533Y230600D01*
X849567D01*
X849911Y230772D01*
X848189Y231806D01*
X853100Y170083D02*
Y168016D01*
X851894D01*
X851550Y168189D01*
X851378Y168533D01*
X851550Y168878D01*
X851894Y169050D01*
X853100D01*
X851894D02*
X851378Y170083D01*
X850344Y169567D02*
X850172Y169911D01*
X849827Y170083D01*
X849138D01*
X848794Y169911D01*
X848622Y169567D01*
X848794Y169222D01*
X849138Y169050D01*
X849827D01*
X850172Y168878D01*
X850344Y168533D01*
X850172Y168189D01*
X849827Y168016D01*
X849138D01*
X848794Y168189D01*
X848622Y168533D01*
X846727Y170083D02*
Y168016D01*
X847588D02*
X845866D01*
D02*
D24*
X728100Y182787D02*
X728413Y179037D01*
X729663Y180913D01*
X730913Y179037D01*
X731225Y182787D01*
X733100Y179037D02*
Y182787D01*
X736225D01*
X735600Y180913D02*
X733100D01*
Y179037D02*
X736225D01*
X738100D02*
Y182787D01*
X739663Y180913D01*
X741225Y182787D01*
Y179037D01*
X743100Y180287D02*
Y181537D01*
X743413Y182163D01*
X743725Y182475D01*
X744350Y182787D01*
X744975D01*
X745600Y182475D01*
X745913Y182163D01*
X746225Y181537D01*
Y180287D01*
X745913Y179663D01*
X745600Y179350D01*
X744975Y179037D01*
X744350D01*
X743725Y179350D01*
X743413Y179663D01*
X743100Y180287D01*
X748100Y179975D02*
X748413Y179350D01*
X749037Y179037D01*
X750287D01*
X750913Y179350D01*
X751225Y179975D01*
X750913Y180600D01*
X750287Y180913D01*
X749037D01*
X748413Y181225D01*
X748100Y181850D01*
X748413Y182475D01*
X749037Y182787D01*
X750287D01*
X750913Y182475D01*
X751225Y181850D01*
X758100Y179975D02*
X758413Y179350D01*
X759037Y179037D01*
X760287D01*
X760913Y179350D01*
X761225Y179975D01*
X760913Y180600D01*
X760287Y180913D01*
X759037D01*
X758413Y181225D01*
X758100Y181850D01*
X758413Y182475D01*
X759037Y182787D01*
X760287D01*
X760913Y182475D01*
X761225Y181850D01*
X763413Y179350D02*
X764037Y179037D01*
X764663D01*
X765287Y179350D01*
X765600Y179975D01*
X765287Y180600D01*
X764663Y180913D01*
X764037D01*
X764663D02*
X765287Y181225D01*
X765600Y181850D01*
X765287Y182475D01*
X764663Y182787D01*
X764037D01*
X763413Y182475D01*
X773100Y179037D02*
Y182787D01*
X774663Y180913D01*
X776225Y182787D01*
Y179037D01*
X779037D02*
X780287D01*
X779663D02*
Y182787D01*
X779037D02*
X780287D01*
X783100Y179037D02*
Y182787D01*
X786225Y179037D01*
Y182787D01*
X789037Y179037D02*
X790287D01*
X789663D02*
Y182787D01*
X789037D02*
X790287D01*
D02*
D86*
X363100Y176900D02*
G75*
G03*
Y179300I0J1200D01*
G01*
X363840Y163350D02*
X363100D01*
Y192850D01*
X363847D01*
X372360Y163350D02*
X373847D01*
Y192850D02*
X372353D01*
X382353Y163350D02*
X383847D01*
Y192850D02*
X382353D01*
X392353Y163350D02*
X393847D01*
Y192850D02*
X392353D01*
X402353Y163350D02*
X403847D01*
Y192850D02*
X402353D01*
X412353Y163350D02*
X413847D01*
Y192850D02*
X412353D01*
X422353Y163350D02*
X423847D01*
Y192850D02*
X422353D01*
X432353Y163350D02*
X433847D01*
Y192850D02*
X432353D01*
X442353Y163350D02*
X443847D01*
Y192850D02*
X442353D01*
X452353Y163350D02*
X453847D01*
Y192850D02*
X452353D01*
X462353Y163350D02*
X463847D01*
Y192850D02*
X462353D01*
X472353Y163350D02*
X473847D01*
Y192850D02*
X472353D01*
X482353Y163350D02*
X483847D01*
Y192850D02*
X482353D01*
X492353Y163350D02*
X493847D01*
Y192850D02*
X492353D01*
X502353D02*
X503100D01*
Y163350D01*
X502353D01*
D02*
D87*
X359963Y163100D02*
Y165600D01*
X361213Y163725D02*
X358713Y164975D01*
Y163725D02*
X361213Y164975D01*
X0Y0D02*
M02*
