G04 DesignSpark PCB Gerber Version 11.0 Build 5877*
%FSLAX35Y35*%
%MOIN*%
%ADD76O,0.06000X0.10000*%
%ADD73R,0.05900X0.05900*%
%ADD77R,0.06000X0.06000*%
%ADD13C,0.01000*%
%ADD12C,0.01181*%
%ADD22C,0.01200*%
%ADD10C,0.01575*%
%ADD11C,0.04000*%
%ADD74C,0.05900*%
%ADD16C,0.06000*%
%ADD125C,0.07087*%
%ADD95C,0.07874*%
%ADD96C,0.08661*%
%ADD75C,0.09843*%
%ADD15C,0.23622*%
%ADD88R,0.06299X0.03937*%
%ADD78R,0.06000X0.05500*%
X0Y0D02*
D02*
D10*
X173100Y58100D02*
Y48100D01*
Y60600D02*
Y58100D01*
Y60600D02*
X55600D01*
X50600Y55600D01*
Y48100D01*
X295600Y58100D02*
Y48100D01*
Y58100D02*
X293100Y60600D01*
X173100D01*
Y58100D01*
X295600D02*
X298100Y60600D01*
X415600D01*
X418100Y58100D01*
Y48100D02*
Y58100D01*
X420600Y60600D01*
X448100D01*
X538100D01*
X540600Y58100D01*
Y48100D01*
X603100Y60600D02*
X660600D01*
X663100Y58100D01*
X603100Y60600D02*
X543100D01*
X540600Y58100D01*
X663100D02*
X665600Y60600D01*
X783100D01*
X785600Y58100D01*
X663100D02*
Y48100D01*
X785600Y58100D02*
Y48100D01*
Y58100D02*
X788100Y60600D01*
X803100D01*
X826850Y84350D01*
Y133850D01*
X827350Y134350D01*
X825600Y150600D02*
Y143100D01*
X826850Y141850D01*
Y134850D01*
X827350Y134350D01*
D02*
D11*
X60600Y70600D03*
X63100Y280600D03*
X65600Y65600D03*
X75600Y75600D03*
Y85600D03*
X80600Y80600D03*
X83100Y280600D03*
X85600Y90600D03*
X173100Y60600D03*
X178100Y65600D03*
D03*
X183100Y70600D03*
X188100Y75600D03*
X193100Y90600D03*
X198100Y95600D03*
X203100Y80600D03*
X208100Y70600D03*
X300600Y65600D03*
X305600Y70600D03*
X308100Y275600D03*
X310600Y75600D03*
X315600Y100600D03*
X320600Y95600D03*
Y270600D03*
X325600Y80600D03*
X326850Y230600D03*
X328100Y280600D03*
X368100Y90600D03*
X378100Y85600D03*
X388100Y80600D03*
X408100D03*
X418100Y85600D03*
X423100Y65600D03*
X428100Y70600D03*
Y90600D03*
X433100Y75600D03*
X438100Y95600D03*
X443100Y100600D03*
X448100Y60600D03*
Y149350D03*
X478100Y135600D03*
X488100D03*
X545600Y65600D03*
X550600Y70600D03*
X553100Y275600D03*
X555600Y75600D03*
X560600Y95600D03*
X565600Y100600D03*
Y270600D03*
X568100Y150600D03*
X570600Y80600D03*
X573100Y280600D03*
X578100Y145600D03*
X603100Y60600D03*
X635600Y163100D03*
Y188100D03*
X645600D03*
X668100Y65600D03*
X673100Y70600D03*
X678100Y75600D03*
X680600Y150600D03*
Y228100D03*
X683100Y90600D03*
X685600Y145600D03*
Y223100D03*
X690600Y95600D03*
Y218100D03*
X693100Y80600D03*
X695600Y100600D03*
Y213100D03*
X700600Y208100D03*
X705600Y90600D03*
Y203100D03*
X743100Y145600D03*
Y163100D03*
X768100Y198100D03*
Y213100D03*
X783100Y250600D03*
X790600Y65600D03*
Y93100D03*
X795600Y70600D03*
X800600Y75600D03*
Y85600D03*
Y100600D03*
X805600Y70600D03*
X810600Y100600D03*
Y110600D03*
Y275600D03*
X815600Y80600D03*
Y93100D03*
Y105600D03*
X818100Y280600D03*
D02*
D12*
X178100Y65600D02*
X65600D01*
X178100D02*
D02*
D13*
X6789Y18100D02*
X4689D01*
X6789Y43100D02*
X4689D01*
X6789Y303100D02*
X4689D01*
X11179Y108100D02*
X9079D01*
X11179Y160600D02*
X9079D01*
X11179Y213100D02*
X9079D01*
X11179Y265600D02*
X9079D01*
X15600Y103679D02*
Y101579D01*
Y112521D02*
Y114621D01*
Y156179D02*
Y154079D01*
Y165021D02*
Y167121D01*
Y208679D02*
Y206579D01*
Y217521D02*
Y219621D01*
Y261179D02*
Y259079D01*
Y270021D02*
Y272121D01*
X18100Y6789D02*
Y4689D01*
Y54411D02*
Y56511D01*
Y291789D02*
Y289689D01*
Y314411D02*
Y316511D01*
X20021Y108100D02*
X22121D01*
X20021Y160600D02*
X22121D01*
X20021Y213100D02*
X22121D01*
X20021Y265600D02*
X22121D01*
X29411Y18100D02*
X31511D01*
X29411Y43100D02*
X31511D01*
X29411Y303100D02*
X31511D01*
X48100Y38100D02*
X46000D01*
X50600Y35600D02*
Y33500D01*
Y40600D02*
Y42700D01*
X52950Y285600D02*
X50852D01*
X53100Y38100D02*
X55200D01*
X55600Y284131D02*
Y282033D01*
Y287069D02*
Y289167D01*
X58250Y285600D02*
X60348D01*
X58600Y310600D02*
X56502D01*
X61100Y308350D02*
Y306250D01*
Y312850D02*
Y314950D01*
X61179Y108100D02*
X59079D01*
X61179Y160600D02*
X59079D01*
X61179Y213100D02*
X59079D01*
X61179Y265600D02*
X59079D01*
X63100Y280600D02*
Y298100D01*
X60600Y300600D01*
X55600D01*
X65600Y103679D02*
Y101579D01*
Y112521D02*
Y114621D01*
Y156179D02*
Y154079D01*
Y165021D02*
Y167121D01*
Y208679D02*
Y206579D01*
Y217521D02*
Y219621D01*
Y261179D02*
Y259079D01*
Y270021D02*
Y272121D01*
X70021Y108100D02*
X72121D01*
X70021Y160600D02*
X72121D01*
X70021Y213100D02*
X72121D01*
X70021Y265600D02*
X72121D01*
X70600Y48100D02*
Y50600D01*
X75600Y85600D02*
X180600D01*
X195600Y100600D01*
X293100D01*
X308100Y115600D01*
X420600D01*
X430600Y125600D01*
X535600D01*
X545600Y135600D01*
X760600D01*
X765600Y140600D01*
Y150600D01*
X75600Y300600D02*
X70600Y305600D01*
Y310100D01*
X70100Y310600D01*
X83100Y280600D02*
Y298100D01*
X80600Y300600D01*
X75600D01*
X101789Y43100D02*
X99689D01*
X101789Y303100D02*
X99689D01*
X113100Y31789D02*
Y29689D01*
Y54411D02*
Y56511D01*
Y291789D02*
Y289689D01*
Y314411D02*
Y316511D01*
X124411Y43100D02*
X126511D01*
X124411Y303100D02*
X126511D01*
X129289Y43100D02*
X127189D01*
X129289Y303100D02*
X127189D01*
X140600Y31789D02*
Y29689D01*
Y54411D02*
Y56511D01*
Y291789D02*
Y289689D01*
Y314411D02*
Y316511D01*
X151911Y43100D02*
X154011D01*
X151911Y303100D02*
X154011D01*
X170600Y38100D02*
X168500D01*
X173100Y35600D02*
Y33500D01*
Y40600D02*
Y42700D01*
X175600Y38100D02*
X177700D01*
X178100Y65600D02*
X300600D01*
X183100Y70600D02*
X60600D01*
X188100Y75600D02*
X75600D01*
X188100D02*
X310600D01*
X193100Y90600D02*
X298100D01*
X313100Y105600D01*
X425600D01*
X435600Y115600D01*
X540600D01*
X550600Y125600D01*
X765600D01*
X775600Y135600D01*
Y150600D01*
X198100Y95600D02*
X295600D01*
X310600Y110600D01*
X423100D01*
X433100Y120600D01*
X538100D01*
X548100Y130600D01*
X763100D01*
X770600Y138100D01*
Y155600D01*
X775600Y160600D01*
X203100Y80600D02*
X303100D01*
X308100Y85600D01*
X378100D01*
X208100Y70600D02*
X305600D01*
X208100D02*
X183100D01*
X215600Y120600D02*
X213502D01*
X218100Y118100D02*
Y116002D01*
Y123100D02*
Y125198D01*
X220600Y120600D02*
X222698D01*
X224289Y43100D02*
X222189D01*
X224289Y303100D02*
X222189D01*
X235600Y31789D02*
Y29689D01*
Y54411D02*
Y56511D01*
Y291789D02*
Y289689D01*
Y314411D02*
Y316511D01*
X246911Y43100D02*
X249011D01*
X246911Y303100D02*
X249011D01*
X251789Y43100D02*
X249689D01*
X251789Y303100D02*
X249689D01*
X263100Y31789D02*
Y29689D01*
Y54411D02*
Y56511D01*
Y291789D02*
Y289689D01*
Y314411D02*
Y316511D01*
X274411Y43100D02*
X276511D01*
X274411Y303100D02*
X276511D01*
X293100Y38100D02*
X291000D01*
X295600Y35600D02*
Y33500D01*
Y40600D02*
Y42700D01*
X297950Y285600D02*
X295852D01*
X298100Y38100D02*
X300200D01*
X300600Y284131D02*
Y282033D01*
Y287069D02*
Y289167D01*
X303250Y285600D02*
X305348D01*
X303600Y310600D02*
X301502D01*
X306100Y308350D02*
Y306250D01*
Y312850D02*
Y314950D01*
X308100Y275600D02*
Y298100D01*
X305600Y300600D01*
X300600D01*
X310600Y75600D02*
X433100D01*
X313019Y149350D02*
X310919D01*
X315100Y310600D02*
X315600Y310100D01*
Y310600D01*
X318100D01*
X320600Y308100D01*
Y300600D01*
X315600Y100600D02*
X428100D01*
X438100Y110600D01*
X543100D01*
X553100Y120600D01*
X768100D01*
X780600Y133100D01*
Y155600D01*
X785600Y160600D01*
X316850Y145519D02*
Y143419D01*
Y153181D02*
Y155281D01*
X320600Y95600D02*
X430600D01*
X440600Y105600D01*
X545600D01*
X555600Y115600D01*
X770600D01*
X790600Y135600D01*
Y155600D01*
X795600Y160600D01*
X320600Y285600D02*
Y270600D01*
X325600Y80600D02*
X388100D01*
X326850Y146850D02*
Y230600D01*
X328100Y280600D02*
Y298100D01*
X325600Y300600D01*
X320600D01*
X336769Y146850D02*
X334669D01*
X340600Y143019D02*
Y140919D01*
Y150681D02*
Y152781D01*
X346789Y43100D02*
X344689D01*
X346789Y303100D02*
X344689D01*
X350600Y145519D02*
Y143419D01*
Y153181D02*
Y155281D01*
X354431Y149350D02*
X356531D01*
X358100Y31789D02*
Y29689D01*
Y54411D02*
Y56511D01*
Y291789D02*
Y289689D01*
Y314411D02*
Y316511D01*
X368100Y90600D02*
X305600D01*
X300600Y85600D01*
X198100D01*
X193100Y80600D01*
X80600D01*
X369411Y43100D02*
X371511D01*
X369411Y303100D02*
X371511D01*
X374289Y18100D02*
X372189D01*
X374289Y43100D02*
X372189D01*
X374289Y303100D02*
X372189D01*
X385600Y6789D02*
Y4689D01*
Y54411D02*
Y56511D01*
Y291789D02*
Y289689D01*
Y314411D02*
Y316511D01*
X396911Y18100D02*
X399011D01*
X396911Y43100D02*
X399011D01*
X396911Y303100D02*
X399011D01*
X408100Y80600D02*
X570600D01*
X415600Y38100D02*
X413500D01*
X418100Y35600D02*
Y33500D01*
Y40600D02*
Y42700D01*
X420600Y38100D02*
X422700D01*
X423100Y65600D02*
X300600D01*
X428100Y70600D02*
X305600D01*
X428100Y90600D02*
X575600D01*
X580600Y85600D01*
X695600D01*
X700600Y80600D01*
X815600D01*
X433100Y75600D02*
X555600D01*
X448100Y149350D02*
X456100D01*
X448100Y193100D02*
Y175600D01*
X443100Y170600D01*
Y158100D01*
X440600Y155600D01*
Y143100D01*
X443100Y140600D01*
X468100D01*
X478100Y150600D01*
X518100D01*
X520600Y153100D01*
Y158100D01*
X525600Y163100D01*
X590600D01*
X598100Y170600D01*
X608100D01*
X615600Y163100D01*
X635600D01*
X455650D02*
X453550D01*
X458100Y160650D02*
Y158550D01*
Y165550D02*
Y167650D01*
X460550Y163100D02*
X462650D01*
X465100Y147100D02*
Y145002D01*
Y151600D02*
Y153698D01*
X467600Y149350D02*
X469698D01*
X469289Y18100D02*
X467189D01*
X469289Y43100D02*
X467189D01*
X469289Y303100D02*
X467189D01*
X470600Y213100D02*
X468502D01*
X473100Y210600D02*
Y208502D01*
Y215600D02*
Y217698D01*
X475600Y213100D02*
X477698D01*
X478100Y135600D02*
X483100Y140600D01*
X523100D01*
X533100Y150600D01*
X480600Y6789D02*
Y4689D01*
Y54411D02*
Y56511D01*
Y291789D02*
Y289689D01*
Y314411D02*
Y316511D01*
X485600Y213100D02*
X483502D01*
X488100Y135600D02*
X528100D01*
X538100Y145600D01*
X545600D01*
X488100Y210600D02*
Y208502D01*
Y215600D02*
Y217698D01*
X490600Y213100D02*
X492698D01*
X491911Y18100D02*
X494011D01*
X491911Y43100D02*
X494011D01*
X491911Y303100D02*
X494011D01*
X496789Y43100D02*
X494689D01*
X496789Y303100D02*
X494689D01*
X500600Y213100D02*
X498502D01*
X503100Y210600D02*
Y208502D01*
Y215600D02*
Y217698D01*
X505600Y213100D02*
X507698D01*
X508100Y31789D02*
Y29689D01*
Y54411D02*
Y56511D01*
Y291789D02*
Y289689D01*
Y314411D02*
Y316511D01*
X519411Y43100D02*
X521511D01*
X519411Y303100D02*
X521511D01*
X533100Y150600D02*
X568100D01*
X538100Y38100D02*
X536000D01*
X540600Y35600D02*
Y33500D01*
Y40600D02*
Y42700D01*
X542950Y285600D02*
X540852D01*
X543100Y38100D02*
X545200D01*
X545600Y65600D02*
X423100D01*
X545600Y145600D02*
X578100D01*
X545600Y284131D02*
Y282033D01*
Y287069D02*
Y289167D01*
X548250Y285600D02*
X550348D01*
X548600Y310600D02*
X546502D01*
X550600Y70600D02*
X428100D01*
X551100Y308350D02*
Y306250D01*
Y312850D02*
Y314950D01*
X553100Y275600D02*
Y298100D01*
X550600Y300600D01*
X545600D01*
X555600Y75600D02*
X678100D01*
X560100Y310600D02*
X560600Y310100D01*
Y310600D01*
X563100D01*
X565600Y308100D01*
Y300600D01*
X560600Y95600D02*
X690600D01*
X565600Y100600D02*
X695600D01*
X565600Y285600D02*
Y270600D01*
X568100Y150600D02*
X680600D01*
X573100Y280600D02*
Y298100D01*
X570600Y300600D01*
X565600D01*
X578100Y145600D02*
X685600D01*
X585600Y185600D02*
X583502D01*
X588100Y183100D02*
Y181002D01*
Y188100D02*
Y190198D01*
X590600Y185600D02*
X592698D01*
X591789Y43100D02*
X589689D01*
X591789Y303100D02*
X589689D01*
X603100Y31789D02*
Y29689D01*
Y54411D02*
Y56511D01*
Y203100D02*
Y178100D01*
X605600Y175600D01*
X620600D01*
X603100Y291789D02*
Y289689D01*
Y314411D02*
Y316511D01*
X614411Y43100D02*
X616511D01*
X614411Y303100D02*
X616511D01*
X616179Y195600D02*
X614079D01*
X619289Y43100D02*
X617189D01*
X619289Y303100D02*
X617189D01*
X620600Y175600D02*
X670600D01*
X620600Y191179D02*
Y189079D01*
Y200021D02*
Y202121D01*
X625021Y195600D02*
X627121D01*
X630600Y31789D02*
Y29689D01*
Y54411D02*
Y56511D01*
Y291789D02*
Y289689D01*
Y314411D02*
Y316511D01*
X635600Y188100D02*
X640600Y183100D01*
X675600D01*
X700600Y158100D01*
X748100D01*
X750600Y160600D01*
X755600D01*
X641911Y43100D02*
X644011D01*
X641911Y303100D02*
X644011D01*
X645600Y188100D02*
X678100D01*
X703100Y163100D01*
X735600D01*
X745600Y173100D01*
X800600D01*
X805600Y168100D01*
Y160600D01*
X645600Y223100D02*
Y213100D01*
X653100Y205600D01*
X685600D01*
X698100Y193100D01*
X788100D01*
X825600Y230600D01*
X660600Y38100D02*
X658500D01*
X663100Y35600D02*
Y33500D01*
Y40600D02*
Y42700D01*
Y223100D02*
X661002D01*
X665600Y38100D02*
X667700D01*
X665600Y220600D02*
Y218502D01*
Y225600D02*
Y227698D01*
X666179Y195600D02*
X664079D01*
X668100Y65600D02*
X790600D01*
X668100D02*
X545600D01*
X668100Y223100D02*
X670198D01*
X670600Y200021D02*
Y202121D01*
X673100Y70600D02*
X795600D01*
X673100D02*
X560600D01*
X550600D01*
X675021Y195600D02*
X677121D01*
X678100Y75600D02*
X800600D01*
X683100Y90600D02*
X705600D01*
X693100Y80600D02*
X578100D01*
X573100Y85600D01*
X418100D01*
X714289Y43100D02*
X712189D01*
X714289Y303100D02*
X712189D01*
X725600Y31789D02*
Y29689D01*
Y54411D02*
Y56511D01*
Y291789D02*
Y289689D01*
Y314411D02*
Y316511D01*
X736911Y43100D02*
X739011D01*
X736911Y303100D02*
X739011D01*
X741789Y43100D02*
X739689D01*
X741789Y303100D02*
X739689D01*
X743100Y145600D02*
X693100D01*
X683100Y155600D01*
X540600D01*
X538100Y158100D01*
X528100D01*
X525600Y155600D01*
Y150600D01*
X520600Y145600D01*
X480600D01*
X470600Y135600D01*
X425600D01*
X415600Y125600D01*
X303100D01*
X288100Y110600D01*
X203100D01*
X198100Y115600D01*
Y120600D01*
X753100Y31789D02*
Y29689D01*
Y54411D02*
Y56511D01*
Y291789D02*
Y289689D01*
Y314411D02*
Y316511D01*
X755600Y150600D02*
X695600D01*
X670600Y175600D01*
X755600Y230600D02*
Y225600D01*
X748100Y218100D01*
X690600D01*
X764411Y43100D02*
X766511D01*
X764411Y303100D02*
X766511D01*
X765600Y160600D02*
X760600Y155600D01*
Y143100D01*
X758100Y140600D01*
X543100D01*
X533100Y130600D01*
X428100D01*
X418100Y120600D01*
X305600D01*
X290600Y105600D01*
X193100D01*
X178100Y90600D01*
X85600D01*
X765600Y230600D02*
Y220600D01*
X758100Y213100D01*
X695600D01*
X768100Y198100D02*
X700600D01*
X688100Y210600D01*
X658100D01*
X655600Y213100D01*
Y223100D01*
X775600Y230600D02*
Y220600D01*
X768100Y213100D01*
X775600Y240600D02*
X770600Y245600D01*
X750600D01*
X733100Y228100D01*
X680600D01*
X783100Y38100D02*
X781000D01*
X783100Y250600D02*
Y298100D01*
X785600Y300600D01*
X790600D01*
X785600Y35600D02*
Y33500D01*
Y40600D02*
Y42700D01*
Y240600D02*
X780600Y235600D01*
X753100D01*
X740600Y223100D01*
X685600D01*
X787950Y285600D02*
X785852D01*
X788100Y38100D02*
X790200D01*
X790600Y284131D02*
Y282033D01*
Y287069D02*
Y289167D01*
X793250Y285600D02*
X795348D01*
X793600Y310600D02*
X791502D01*
X795600Y70600D02*
X805600D01*
X795600Y150600D02*
X800600Y155600D01*
Y163100D01*
X795600Y168100D01*
X748100D01*
X743100Y163100D01*
X795600Y230600D02*
Y220600D01*
X778100Y203100D01*
X705600D01*
X795600Y240600D02*
X790600Y235600D01*
Y223100D01*
X775600Y208100D01*
X700600D01*
X796100Y308350D02*
Y306250D01*
Y312850D02*
Y314950D01*
X800600Y85600D02*
X815600D01*
X820600Y90600D01*
Y155600D01*
X825600Y160600D01*
X810600Y100600D02*
X800600D01*
X810600Y110600D02*
X558100D01*
X548100Y100600D01*
X443100D01*
X810600Y285600D02*
Y275600D01*
Y300600D02*
Y308100D01*
X808100Y310600D01*
X805600D01*
Y310100D01*
X805100Y310600D01*
X813100Y230600D02*
X811000D01*
X813100Y240600D02*
X811000D01*
X815600Y93100D02*
X790600D01*
X815600Y105600D02*
X560600D01*
X550600Y95600D01*
X438100D01*
X815600Y228100D02*
Y226000D01*
Y233100D02*
Y235200D01*
Y238100D02*
Y236000D01*
Y243100D02*
Y245200D01*
X818100Y230600D02*
X820200D01*
X818100Y240600D02*
X820200D01*
X818100Y280600D02*
Y298100D01*
X815600Y300600D01*
X810600D01*
X836350Y132100D02*
Y130002D01*
Y136600D02*
Y138698D01*
X836789Y18100D02*
X834689D01*
X836789Y43100D02*
X834689D01*
X836789Y303100D02*
X834689D01*
X838850Y134350D02*
X840950D01*
X848100Y6789D02*
Y4689D01*
Y54411D02*
Y56511D01*
Y291789D02*
Y289689D01*
Y314411D02*
Y316511D01*
X859411Y18100D02*
X861511D01*
X859411Y43100D02*
X861511D01*
X859411Y303100D02*
X861511D01*
D02*
D15*
X18100Y18100D03*
Y43100D03*
Y303100D03*
X113100Y43100D03*
Y303100D03*
X140600Y43100D03*
Y303100D03*
X235600Y43100D03*
Y303100D03*
X263100Y43100D03*
Y303100D03*
X358100Y43100D03*
Y303100D03*
X385600Y18100D03*
Y43100D03*
Y303100D03*
X480600Y18100D03*
Y43100D03*
Y303100D03*
X508100Y43100D03*
Y303100D03*
X603100Y43100D03*
Y303100D03*
X630600Y43100D03*
Y303100D03*
X725600Y43100D03*
Y303100D03*
X753100Y43100D03*
Y303100D03*
X848100Y18100D03*
Y43100D03*
Y303100D03*
D02*
D16*
X50600Y38100D03*
Y48100D03*
X60600Y38100D03*
Y48100D03*
X70600Y38100D03*
Y48100D03*
X80600Y38100D03*
Y48100D03*
X173100Y38100D03*
Y48100D03*
X183100Y38100D03*
Y48100D03*
X193100Y38100D03*
Y48100D03*
X203100Y38100D03*
Y48100D03*
X295600Y38100D03*
Y48100D03*
X305600Y38100D03*
Y48100D03*
X315600Y38100D03*
Y48100D03*
X325600Y38100D03*
Y48100D03*
X418100Y38100D03*
Y48100D03*
X428100Y38100D03*
Y48100D03*
X438100Y38100D03*
Y48100D03*
X448100Y38100D03*
Y48100D03*
X533100Y150600D03*
Y190600D03*
X540600Y38100D03*
Y48100D03*
X545600Y145600D03*
Y185600D03*
X550600Y38100D03*
Y48100D03*
X560600Y38100D03*
Y48100D03*
X570600Y38100D03*
Y48100D03*
X603100Y163100D03*
Y203100D03*
X663100Y38100D03*
Y48100D03*
X673100Y38100D03*
Y48100D03*
X683100Y38100D03*
Y48100D03*
X693100Y38100D03*
Y48100D03*
X755600Y150600D03*
Y160600D03*
Y230600D03*
Y240600D03*
X765600Y150600D03*
Y160600D03*
Y230600D03*
Y240600D03*
X775600Y150600D03*
Y160600D03*
Y230600D03*
Y240600D03*
X785600Y38100D03*
Y48100D03*
Y150600D03*
Y160600D03*
Y230600D03*
Y240600D03*
X795600Y38100D03*
Y48100D03*
Y150600D03*
Y160600D03*
Y230600D03*
Y240600D03*
X805600Y38100D03*
Y48100D03*
Y150600D03*
Y160600D03*
Y230600D03*
Y240600D03*
X815600Y38100D03*
Y48100D03*
Y150600D03*
Y160600D03*
Y230600D03*
Y240600D03*
X825600Y150600D03*
Y160600D03*
Y230600D03*
Y240600D03*
D02*
D22*
X3100Y318100D02*
Y3100D01*
X863100D01*
Y318100D01*
X3100D01*
X4689Y43100D02*
G75*
G02*
X31511I13411J0D01*
G01*
G75*
G02*
X22959Y30600I-13411J0D01*
G01*
G75*
G02*
X31511Y18100I-4859J-12500D01*
G01*
G75*
G02*
X4689I-13411J0D01*
G01*
G75*
G02*
X13241Y30600I13411J0D01*
G01*
G75*
G02*
X4689Y43100I4859J12500D01*
G01*
Y303100D02*
G75*
G02*
X31511I13411J0D01*
G01*
G75*
G02*
X4689I-13411J0D01*
G01*
X8504Y88100D02*
G75*
G02*
X22696I7096J0D01*
G01*
G75*
G02*
X8504I-7096J0D01*
G01*
Y140600D02*
G75*
G02*
X22696I7096J0D01*
G01*
G75*
G02*
X8504I-7096J0D01*
G01*
X9079Y108100D02*
G75*
G02*
X22121I6521J0D01*
G01*
G75*
G02*
X9079I-6521J0D01*
G01*
X8504Y193100D02*
G75*
G02*
X22696I7096J0D01*
G01*
G75*
G02*
X8504I-7096J0D01*
G01*
X9079Y160600D02*
G75*
G02*
X22121I6521J0D01*
G01*
G75*
G02*
X9079I-6521J0D01*
G01*
X8504Y245600D02*
G75*
G02*
X22696I7096J0D01*
G01*
G75*
G02*
X8504I-7096J0D01*
G01*
X9079Y213100D02*
G75*
G02*
X22121I6521J0D01*
G01*
G75*
G02*
X9079I-6521J0D01*
G01*
Y265600D02*
G75*
G02*
X22121I6521J0D01*
G01*
G75*
G02*
X9079I-6521J0D01*
G01*
X34488Y80600D02*
G75*
G02*
X46712I6112J0D01*
G01*
G75*
G02*
X34488I-6112J0D01*
G01*
X832525Y138698D02*
X840950D01*
Y130002D01*
X832525D01*
Y129427D01*
X829812D01*
Y84350D01*
G75*
G02*
X828943Y82254I-2962J0D01*
G01*
X805196Y58507D01*
G75*
G02*
X803100Y57638I-2096J2093D01*
G01*
X789327D01*
X788562Y56873D01*
Y52343D01*
G75*
G02*
X790600Y49433I-2962J-4243D01*
G01*
G75*
G02*
X800600I5000J-1334D01*
G01*
G75*
G02*
X810600I5000J-1334D01*
G01*
G75*
G02*
X820775Y48100I5000J-1333D01*
G01*
G75*
G02*
X816933Y43100I-5175J0D01*
G01*
G75*
G02*
X820775Y38100I-1333J-5000D01*
G01*
G75*
G02*
X810600Y36767I-5175J0D01*
G01*
G75*
G02*
X800600I-5000J1334D01*
G01*
G75*
G02*
X790425Y38100I-5000J1333D01*
G01*
G75*
G02*
X794267Y43100I5175J0D01*
G01*
G75*
G02*
X790600Y46767I1334J5000D01*
G01*
G75*
G02*
X780425Y48100I-5000J1333D01*
G01*
G75*
G02*
X782638Y52343I5175J0D01*
G01*
Y56873D01*
X781873Y57638D01*
X666827D01*
X666062Y56873D01*
Y52343D01*
G75*
G02*
X668100Y49433I-2962J-4243D01*
G01*
G75*
G02*
X678100I5000J-1334D01*
G01*
G75*
G02*
X688100I5000J-1334D01*
G01*
G75*
G02*
X698275Y48100I5000J-1333D01*
G01*
G75*
G02*
X694433Y43100I-5175J0D01*
G01*
G75*
G02*
X698275Y38100I-1333J-5000D01*
G01*
G75*
G02*
X688100Y36767I-5175J0D01*
G01*
G75*
G02*
X678100I-5000J1334D01*
G01*
G75*
G02*
X667925Y38100I-5000J1333D01*
G01*
G75*
G02*
X671767Y43100I5175J0D01*
G01*
G75*
G02*
X668100Y46767I1334J5000D01*
G01*
G75*
G02*
X657925Y48100I-5000J1333D01*
G01*
G75*
G02*
X660138Y52343I5175J0D01*
G01*
Y56873D01*
X659373Y57638D01*
X605146D01*
G75*
G02*
X601054I-2046J2962D01*
G01*
X544327D01*
X543562Y56873D01*
Y52343D01*
G75*
G02*
X545600Y49433I-2962J-4243D01*
G01*
G75*
G02*
X555600I5000J-1334D01*
G01*
G75*
G02*
X565600I5000J-1334D01*
G01*
G75*
G02*
X575775Y48100I5000J-1333D01*
G01*
G75*
G02*
X571933Y43100I-5175J0D01*
G01*
G75*
G02*
X575775Y38100I-1333J-5000D01*
G01*
G75*
G02*
X565600Y36767I-5175J0D01*
G01*
G75*
G02*
X555600I-5000J1334D01*
G01*
G75*
G02*
X545425Y38100I-5000J1333D01*
G01*
G75*
G02*
X549267Y43100I5175J0D01*
G01*
G75*
G02*
X545600Y46767I1334J5000D01*
G01*
G75*
G02*
X535425Y48100I-5000J1333D01*
G01*
G75*
G02*
X537638Y52343I5175J0D01*
G01*
Y56873D01*
X536873Y57638D01*
X450146D01*
G75*
G02*
X446054I-2046J2962D01*
G01*
X421827D01*
X421062Y56873D01*
Y52343D01*
G75*
G02*
X423100Y49433I-2962J-4243D01*
G01*
G75*
G02*
X433100I5000J-1334D01*
G01*
G75*
G02*
X443100I5000J-1334D01*
G01*
G75*
G02*
X453275Y48100I5000J-1333D01*
G01*
G75*
G02*
X449433Y43100I-5175J0D01*
G01*
G75*
G02*
X453275Y38100I-1333J-5000D01*
G01*
G75*
G02*
X443100Y36767I-5175J0D01*
G01*
G75*
G02*
X433100I-5000J1334D01*
G01*
G75*
G02*
X422925Y38100I-5000J1333D01*
G01*
G75*
G02*
X426767Y43100I5175J0D01*
G01*
G75*
G02*
X423100Y46767I1334J5000D01*
G01*
G75*
G02*
X412925Y48100I-5000J1333D01*
G01*
G75*
G02*
X415138Y52343I5175J0D01*
G01*
Y56873D01*
X414373Y57638D01*
X299327D01*
X298562Y56873D01*
Y52343D01*
G75*
G02*
X300600Y49433I-2962J-4243D01*
G01*
G75*
G02*
X310600I5000J-1334D01*
G01*
G75*
G02*
X320600I5000J-1334D01*
G01*
G75*
G02*
X330775Y48100I5000J-1333D01*
G01*
G75*
G02*
X326933Y43100I-5175J0D01*
G01*
G75*
G02*
X330775Y38100I-1333J-5000D01*
G01*
G75*
G02*
X320600Y36767I-5175J0D01*
G01*
G75*
G02*
X310600I-5000J1334D01*
G01*
G75*
G02*
X300425Y38100I-5000J1333D01*
G01*
G75*
G02*
X304267Y43100I5175J0D01*
G01*
G75*
G02*
X300600Y46767I1334J5000D01*
G01*
G75*
G02*
X290425Y48100I-5000J1333D01*
G01*
G75*
G02*
X292638Y52343I5175J0D01*
G01*
Y56873D01*
X291873Y57638D01*
X176062D01*
Y52343D01*
G75*
G02*
X178100Y49433I-2962J-4243D01*
G01*
G75*
G02*
X188100I5000J-1334D01*
G01*
G75*
G02*
X198100I5000J-1334D01*
G01*
G75*
G02*
X208275Y48100I5000J-1333D01*
G01*
G75*
G02*
X204433Y43100I-5175J0D01*
G01*
G75*
G02*
X208275Y38100I-1333J-5000D01*
G01*
G75*
G02*
X198100Y36767I-5175J0D01*
G01*
G75*
G02*
X188100I-5000J1334D01*
G01*
G75*
G02*
X177925Y38100I-5000J1333D01*
G01*
G75*
G02*
X181767Y43100I5175J0D01*
G01*
G75*
G02*
X178100Y46767I1334J5000D01*
G01*
G75*
G02*
X167925Y48100I-5000J1333D01*
G01*
G75*
G02*
X170138Y52343I5175J0D01*
G01*
Y57638D01*
X56827D01*
X53562Y54373D01*
Y52343D01*
G75*
G02*
X55600Y49433I-2962J-4243D01*
G01*
G75*
G02*
X65600I5000J-1334D01*
G01*
G75*
G02*
X75600I5000J-1333D01*
G01*
G75*
G02*
X85775Y48100I5000J-1333D01*
G01*
G75*
G02*
X81933Y43100I-5175J0D01*
G01*
G75*
G02*
X85775Y38100I-1333J-5000D01*
G01*
G75*
G02*
X75600Y36767I-5175J0D01*
G01*
G75*
G02*
X65600I-5000J1334D01*
G01*
G75*
G02*
X55425Y38100I-5000J1333D01*
G01*
G75*
G02*
X59267Y43100I5175J0D01*
G01*
G75*
G02*
X55600Y46767I1334J5000D01*
G01*
G75*
G02*
X45425Y48100I-5000J1333D01*
G01*
G75*
G02*
X47638Y52343I5175J0D01*
G01*
Y55600D01*
G75*
G02*
X48507Y57696I2962J0D01*
G01*
X53504Y62693D01*
G75*
G02*
X55600Y63562I2096J-2093D01*
G01*
X62632D01*
G75*
G02*
X62620Y67620I2968J2038D01*
G01*
G75*
G02*
X57000Y70600I-2020J2980D01*
G01*
G75*
G02*
X63009Y73275I3600J0D01*
G01*
X72852D01*
G75*
G02*
X77620Y78580I2748J2325D01*
G01*
G75*
G02*
Y82620I2980J2020D01*
G01*
G75*
G02*
X72034Y85107I-2020J2980D01*
G01*
G75*
G02*
X58504Y88100I-6434J2993D01*
G01*
G75*
G02*
X72696I7096J0D01*
G01*
G75*
G02*
X72685Y87713I-7094J2D01*
G01*
G75*
G02*
X78009Y88275I2915J-2113D01*
G01*
X82852D01*
G75*
G02*
X88009Y93275I2748J2325D01*
G01*
X176992D01*
X191206Y107489D01*
G75*
G02*
X193100Y108275I1894J-1889D01*
G01*
X201778D01*
G75*
G02*
X201206Y108711I1322J2326D01*
G01*
X196211Y113706D01*
G75*
G02*
X195431Y115427I1889J1894D01*
G01*
X172927D01*
Y125773D01*
X213273D01*
Y115427D01*
X202056D01*
X204208Y113275D01*
X286992D01*
X301206Y127489D01*
G75*
G02*
X303100Y128275I1894J-1889D01*
G01*
X414492D01*
X423706Y137489D01*
G75*
G02*
X425600Y138275I1894J-1889D01*
G01*
X441778D01*
G75*
G02*
X441206Y138711I1322J2326D01*
G01*
X438711Y141206D01*
G75*
G02*
X437925Y143100I1889J1894D01*
G01*
Y155600D01*
G75*
G02*
X438711Y157494I2675J0D01*
G01*
X439346Y158129D01*
G75*
G02*
X433100Y161976I-1246J4971D01*
G01*
G75*
G02*
X423100I-5000J1124D01*
G01*
G75*
G02*
X413100I-5000J1124D01*
G01*
G75*
G02*
X403100I-5000J1124D01*
G01*
G75*
G02*
X393100I-5000J1124D01*
G01*
G75*
G02*
X383100I-5000J1124D01*
G01*
G75*
G02*
X373226Y161517I-5000J1124D01*
G01*
Y157974D01*
X362974D01*
Y168226D01*
X373226D01*
Y164683D01*
G75*
G02*
X383100Y164224I4874J-1583D01*
G01*
G75*
G02*
X393100I5000J-1124D01*
G01*
G75*
G02*
X403100I5000J-1124D01*
G01*
G75*
G02*
X413100I5000J-1124D01*
G01*
G75*
G02*
X423100I5000J-1124D01*
G01*
G75*
G02*
X433100I5000J-1124D01*
G01*
G75*
G02*
X440425Y167667I5000J-1124D01*
G01*
Y170600D01*
G75*
G02*
X441211Y172494I2675J0D01*
G01*
X445425Y176708D01*
Y188729D01*
G75*
G02*
X443100Y191976I2675J4371D01*
G01*
G75*
G02*
X433100I-5000J1124D01*
G01*
G75*
G02*
X423100I-5000J1124D01*
G01*
G75*
G02*
X413100I-5000J1124D01*
G01*
G75*
G02*
X403100I-5000J1124D01*
G01*
G75*
G02*
X393100I-5000J1124D01*
G01*
G75*
G02*
X383100I-5000J1124D01*
G01*
G75*
G02*
X373100I-5000J1124D01*
G01*
G75*
G02*
X362975Y193100I-5000J1124D01*
G01*
G75*
G02*
X373100Y194224I5125J0D01*
G01*
G75*
G02*
X383100I5000J-1124D01*
G01*
G75*
G02*
X393100I5000J-1124D01*
G01*
G75*
G02*
X403100I5000J-1124D01*
G01*
G75*
G02*
X413100I5000J-1124D01*
G01*
G75*
G02*
X423100I5000J-1124D01*
G01*
G75*
G02*
X433100I5000J-1124D01*
G01*
G75*
G02*
X443100I5000J-1124D01*
G01*
G75*
G02*
X453100I5000J-1124D01*
G01*
G75*
G02*
X463100I5000J-1124D01*
G01*
G75*
G02*
X473100I5000J-1124D01*
G01*
G75*
G02*
X483100I5000J-1124D01*
G01*
G75*
G02*
X493100I5000J-1124D01*
G01*
G75*
G02*
X503225Y193100I5000J-1124D01*
G01*
G75*
G02*
X493100Y191976I-5125J0D01*
G01*
G75*
G02*
X483100I-5000J1124D01*
G01*
G75*
G02*
X473100I-5000J1124D01*
G01*
G75*
G02*
X463100I-5000J1124D01*
G01*
G75*
G02*
X453100I-5000J1124D01*
G01*
G75*
G02*
X450775Y188729I-5000J1124D01*
G01*
Y175600D01*
G75*
G02*
X449989Y173706I-2675J0D01*
G01*
X445775Y169492D01*
Y167667D01*
G75*
G02*
X453225Y163100I2325J-4567D01*
G01*
G75*
G02*
X445775Y158533I-5125J0D01*
G01*
Y158100D01*
G75*
G02*
X444989Y156206I-2675J0D01*
G01*
X443275Y154492D01*
Y144208D01*
X444208Y143275D01*
X466992D01*
X468719Y145002D01*
X461273D01*
Y144427D01*
X450927D01*
Y146675D01*
X450509D01*
G75*
G02*
X444500Y149350I-2409J2675D01*
G01*
G75*
G02*
X450509Y152025I3600J0D01*
G01*
X450927D01*
Y154273D01*
X461273D01*
Y153698D01*
X469698D01*
Y145981D01*
X476206Y152489D01*
G75*
G02*
X478100Y153275I1894J-1889D01*
G01*
X516992D01*
X517925Y154208D01*
Y158100D01*
G75*
G02*
X518711Y159994I2675J0D01*
G01*
X523706Y164989D01*
G75*
G02*
X525600Y165775I1894J-1889D01*
G01*
X589492D01*
X596206Y172489D01*
G75*
G02*
X598100Y173275I1894J-1889D01*
G01*
X604278D01*
G75*
G02*
X603706Y173711I1322J2326D01*
G01*
X601211Y176206D01*
G75*
G02*
X600425Y178100I1889J1894D01*
G01*
Y198670D01*
G75*
G02*
X597925Y203100I2675J4430D01*
G01*
G75*
G02*
X608275I5175J0D01*
G01*
G75*
G02*
X605775Y198670I-5175J0D01*
G01*
Y179208D01*
X606708Y178275D01*
X614028D01*
G75*
G02*
X627172I6572J-2675D01*
G01*
X664028D01*
G75*
G02*
X665397Y180425I6573J-2674D01*
G01*
X640600D01*
G75*
G02*
X638706Y181211I0J2675D01*
G01*
X635412Y184505D01*
G75*
G02*
X632000Y188100I188J3595D01*
G01*
G75*
G02*
X639195Y188288I3600J0D01*
G01*
X641708Y185775D01*
X642852D01*
G75*
G02*
X648009Y190775I2748J2325D01*
G01*
X666213D01*
G75*
G02*
X664079Y195600I4387J4825D01*
G01*
G75*
G02*
X677121I6521J0D01*
G01*
G75*
G02*
X674987Y190775I-6521J0D01*
G01*
X678100D01*
G75*
G02*
X679994Y189989I0J-2675D01*
G01*
X704208Y165775D01*
X734492D01*
X743706Y174989D01*
G75*
G02*
X745600Y175775I1894J-1889D01*
G01*
X800600D01*
G75*
G02*
X802494Y174989I0J-2675D01*
G01*
X807489Y169994D01*
G75*
G02*
X808275Y168100I-1889J-1894D01*
G01*
Y165030D01*
G75*
G02*
X810600Y161933I-2675J-4430D01*
G01*
G75*
G02*
X820600I5000J-1333D01*
G01*
G75*
G02*
X830775Y160600I5000J-1333D01*
G01*
G75*
G02*
X826933Y155600I-5175J0D01*
G01*
G75*
G02*
X828562Y146357I-1333J-5000D01*
G01*
Y144327D01*
X828943Y143946D01*
G75*
G02*
X829812Y141850I-2093J-2096D01*
G01*
Y139273D01*
X832525D01*
Y138698D01*
X493100Y164224D02*
G75*
G02*
X503225Y163100I5000J-1124D01*
G01*
G75*
G02*
X493100Y161976I-5125J0D01*
G01*
G75*
G02*
X483100I-5000J1124D01*
G01*
G75*
G02*
X473100I-5000J1124D01*
G01*
G75*
G02*
X462975Y163100I-5000J1124D01*
G01*
G75*
G02*
X473100Y164224I5125J0D01*
G01*
G75*
G02*
X483100I5000J-1124D01*
G01*
G75*
G02*
X493100I5000J-1124D01*
G01*
X453550Y163100D02*
G75*
G02*
X462650I4550J0D01*
G01*
G75*
G02*
X453550I-4550J0D01*
G01*
X834689Y43100D02*
G75*
G02*
X861511I13411J0D01*
G01*
G75*
G02*
X852959Y30600I-13411J0D01*
G01*
G75*
G02*
X861511Y18100I-4859J-12500D01*
G01*
G75*
G02*
X834689I-13411J0D01*
G01*
G75*
G02*
X843241Y30600I13411J0D01*
G01*
G75*
G02*
X834689Y43100I4859J12500D01*
G01*
X781000Y38100D02*
G75*
G02*
X790200I4600J0D01*
G01*
G75*
G02*
X781000I-4600J0D01*
G01*
X712189Y43100D02*
G75*
G02*
X739011I13411J0D01*
G01*
G75*
G02*
X712189I-13411J0D01*
G01*
X739689D02*
G75*
G02*
X766511I13411J0D01*
G01*
G75*
G02*
X739689I-13411J0D01*
G01*
X658500Y38100D02*
G75*
G02*
X667700I4600J0D01*
G01*
G75*
G02*
X658500I-4600J0D01*
G01*
X617189Y43100D02*
G75*
G02*
X644011I13411J0D01*
G01*
G75*
G02*
X617189I-13411J0D01*
G01*
X589689D02*
G75*
G02*
X616511I13411J0D01*
G01*
G75*
G02*
X589689I-13411J0D01*
G01*
X536000Y38100D02*
G75*
G02*
X545200I4600J0D01*
G01*
G75*
G02*
X536000I-4600J0D01*
G01*
X467189Y43100D02*
G75*
G02*
X494011I13411J0D01*
G01*
G75*
G02*
X485459Y30600I-13411J0D01*
G01*
G75*
G02*
X494011Y18100I-4859J-12500D01*
G01*
G75*
G02*
X467189I-13411J0D01*
G01*
G75*
G02*
X475741Y30600I13411J0D01*
G01*
G75*
G02*
X467189Y43100I4859J12500D01*
G01*
X494689D02*
G75*
G02*
X521511I13411J0D01*
G01*
G75*
G02*
X494689I-13411J0D01*
G01*
X413500Y38100D02*
G75*
G02*
X422700I4600J0D01*
G01*
G75*
G02*
X413500I-4600J0D01*
G01*
X344689Y43100D02*
G75*
G02*
X371511I13411J0D01*
G01*
G75*
G02*
X344689I-13411J0D01*
G01*
X372189D02*
G75*
G02*
X399011I13411J0D01*
G01*
G75*
G02*
X390459Y30600I-13411J0D01*
G01*
G75*
G02*
X399011Y18100I-4859J-12500D01*
G01*
G75*
G02*
X372189I-13411J0D01*
G01*
G75*
G02*
X380741Y30600I13411J0D01*
G01*
G75*
G02*
X372189Y43100I4859J12500D01*
G01*
X291000Y38100D02*
G75*
G02*
X300200I4600J0D01*
G01*
G75*
G02*
X291000I-4600J0D01*
G01*
X222189Y43100D02*
G75*
G02*
X249011I13411J0D01*
G01*
G75*
G02*
X222189I-13411J0D01*
G01*
X249689D02*
G75*
G02*
X276511I13411J0D01*
G01*
G75*
G02*
X249689I-13411J0D01*
G01*
X168500Y38100D02*
G75*
G02*
X177700I4600J0D01*
G01*
G75*
G02*
X168500I-4600J0D01*
G01*
X99689Y43100D02*
G75*
G02*
X126511I13411J0D01*
G01*
G75*
G02*
X99689I-13411J0D01*
G01*
X127189D02*
G75*
G02*
X154011I13411J0D01*
G01*
G75*
G02*
X127189I-13411J0D01*
G01*
X46000Y38100D02*
G75*
G02*
X55200I4600J0D01*
G01*
G75*
G02*
X46000I-4600J0D01*
G01*
X34488Y115600D02*
G75*
G02*
X46712I6112J0D01*
G01*
G75*
G02*
X34488I-6112J0D01*
G01*
Y133100D02*
G75*
G02*
X46712I6112J0D01*
G01*
G75*
G02*
X34488I-6112J0D01*
G01*
Y168100D02*
G75*
G02*
X46712I6112J0D01*
G01*
G75*
G02*
X34488I-6112J0D01*
G01*
Y185600D02*
G75*
G02*
X46712I6112J0D01*
G01*
G75*
G02*
X34488I-6112J0D01*
G01*
Y220600D02*
G75*
G02*
X46712I6112J0D01*
G01*
G75*
G02*
X34488I-6112J0D01*
G01*
Y238100D02*
G75*
G02*
X46712I6112J0D01*
G01*
G75*
G02*
X34488I-6112J0D01*
G01*
Y273100D02*
G75*
G02*
X46712I6112J0D01*
G01*
G75*
G02*
X34488I-6112J0D01*
G01*
X65775Y283009D02*
G75*
G02*
X66700Y280600I-2675J-2409D01*
G01*
G75*
G02*
X59500I-3600J0D01*
G01*
G75*
G02*
X59798Y282033I3600J0D01*
G01*
X50852D01*
Y289167D01*
X60348D01*
Y282921D01*
G75*
G02*
X60425Y283009I2754J-2321D01*
G01*
Y296458D01*
X50277D01*
Y304742D01*
X60923D01*
Y303255D01*
G75*
G02*
X62494Y302489I-323J-2656D01*
G01*
X64989Y299994D01*
G75*
G02*
X65775Y298100I-1889J-1894D01*
G01*
Y283009D01*
X58504Y140600D02*
G75*
G02*
X72696I7096J0D01*
G01*
G75*
G02*
X58504I-7096J0D01*
G01*
X59079Y108100D02*
G75*
G02*
X72121I6521J0D01*
G01*
G75*
G02*
X59079I-6521J0D01*
G01*
X58504Y193100D02*
G75*
G02*
X72696I7096J0D01*
G01*
G75*
G02*
X58504I-7096J0D01*
G01*
X59079Y160600D02*
G75*
G02*
X72121I6521J0D01*
G01*
G75*
G02*
X59079I-6521J0D01*
G01*
X58504Y245600D02*
G75*
G02*
X72696I7096J0D01*
G01*
G75*
G02*
X58504I-7096J0D01*
G01*
X59079Y213100D02*
G75*
G02*
X72121I6521J0D01*
G01*
G75*
G02*
X59079I-6521J0D01*
G01*
Y265600D02*
G75*
G02*
X72121I6521J0D01*
G01*
G75*
G02*
X59079I-6521J0D01*
G01*
X85775Y283009D02*
G75*
G02*
X86700Y280600I-2675J-2409D01*
G01*
G75*
G02*
X79500I-3600J0D01*
G01*
G75*
G02*
X79604Y281458I3600J0D01*
G01*
X70277D01*
Y289742D01*
X80425D01*
Y296458D01*
X70277D01*
Y302140D01*
X68711Y303706D01*
G75*
G02*
X67925Y305600I1889J1894D01*
G01*
Y305675D01*
X64927D01*
Y306250D01*
X56502D01*
Y314950D01*
X64927D01*
Y315525D01*
X75273D01*
Y305675D01*
X74308D01*
X75241Y304742D01*
X80923D01*
Y303255D01*
G75*
G02*
X82494Y302489I-323J-2656D01*
G01*
X84989Y299994D01*
G75*
G02*
X85775Y298100I-1889J-1894D01*
G01*
Y283009D01*
X99689Y303100D02*
G75*
G02*
X126511I13411J0D01*
G01*
G75*
G02*
X99689I-13411J0D01*
G01*
X127189D02*
G75*
G02*
X154011I13411J0D01*
G01*
G75*
G02*
X127189I-13411J0D01*
G01*
X213502Y125198D02*
X222698D01*
Y116002D01*
X213502D01*
Y125198D01*
X222189Y303100D02*
G75*
G02*
X249011I13411J0D01*
G01*
G75*
G02*
X222189I-13411J0D01*
G01*
X249689D02*
G75*
G02*
X276511I13411J0D01*
G01*
G75*
G02*
X249689I-13411J0D01*
G01*
X310775Y278009D02*
G75*
G02*
X311700Y275600I-2675J-2409D01*
G01*
G75*
G02*
X304500I-3600J0D01*
G01*
G75*
G02*
X305425Y278009I3600J0D01*
G01*
Y296458D01*
X295277D01*
Y304742D01*
X305923D01*
Y303255D01*
G75*
G02*
X307494Y302489I-323J-2656D01*
G01*
X309989Y299994D01*
G75*
G02*
X310775Y298100I-1889J-1894D01*
G01*
Y278009D01*
X329525Y152780D02*
G75*
G02*
X333356Y146850I-2675J-5930D01*
G01*
G75*
G02*
X320671Y144815I-6506J0D01*
G01*
G75*
G02*
X310919Y149350I-3821J4535D01*
G01*
G75*
G02*
X322356Y151554I5931J0D01*
G01*
G75*
G02*
X324175Y152780I4494J-4704D01*
G01*
Y228191D01*
G75*
G02*
X323250Y230600I2675J2409D01*
G01*
G75*
G02*
X330450I3600J0D01*
G01*
G75*
G02*
X329525Y228191I-3600J0D01*
G01*
Y152780D01*
X295852Y289167D02*
X305348D01*
Y282033D01*
X295852D01*
Y289167D01*
X330775Y283009D02*
G75*
G02*
X331700Y280600I-2675J-2409D01*
G01*
G75*
G02*
X324500I-3600J0D01*
G01*
G75*
G02*
X324604Y281458I3600J0D01*
G01*
X323275D01*
Y273009D01*
G75*
G02*
X324200Y270600I-2675J-2409D01*
G01*
G75*
G02*
X317000I-3600J0D01*
G01*
G75*
G02*
X317925Y273009I3600J0D01*
G01*
Y281458D01*
X315277D01*
Y289742D01*
X325425D01*
Y296458D01*
X315277D01*
Y304742D01*
X317925D01*
Y305675D01*
X309927D01*
Y306250D01*
X301502D01*
Y314950D01*
X309927D01*
Y315525D01*
X320273D01*
Y312209D01*
X322489Y309994D01*
G75*
G02*
X323275Y308100I-1889J-1894D01*
G01*
Y304742D01*
X325923D01*
Y303255D01*
G75*
G02*
X327494Y302489I-323J-2656D01*
G01*
X329989Y299994D01*
G75*
G02*
X330775Y298100I-1889J-1894D01*
G01*
Y283009D01*
X344888Y150947D02*
G75*
G02*
X356531Y149350I5712J-1597D01*
G01*
G75*
G02*
X346312Y145253I-5931J0D01*
G01*
G75*
G02*
X334669Y146850I-5712J1597D01*
G01*
G75*
G02*
X344888Y150947I5931J0D01*
G01*
X344689Y303100D02*
G75*
G02*
X371511I13411J0D01*
G01*
G75*
G02*
X344689I-13411J0D01*
G01*
X453100Y218928D02*
G75*
G02*
X463273Y217600I5000J-1328D01*
G01*
Y213600D01*
G75*
G02*
X453100Y212272I-5173J0D01*
G01*
G75*
G02*
X443100I-5000J1328D01*
G01*
G75*
G02*
X433100I-5000J1328D01*
G01*
G75*
G02*
X423100I-5000J1328D01*
G01*
G75*
G02*
X413100I-5000J1328D01*
G01*
G75*
G02*
X403100I-5000J1328D01*
G01*
G75*
G02*
X393100I-5000J1328D01*
G01*
G75*
G02*
X383100I-5000J1328D01*
G01*
G75*
G02*
X373100I-5000J1328D01*
G01*
G75*
G02*
X362927Y213600I-5000J1328D01*
G01*
Y217600D01*
G75*
G02*
X373100Y218928I5173J0D01*
G01*
G75*
G02*
X383100I5000J-1328D01*
G01*
G75*
G02*
X393100I5000J-1328D01*
G01*
G75*
G02*
X403100I5000J-1328D01*
G01*
G75*
G02*
X413100I5000J-1328D01*
G01*
G75*
G02*
X423100I5000J-1328D01*
G01*
G75*
G02*
X433100I5000J-1328D01*
G01*
G75*
G02*
X443100I5000J-1328D01*
G01*
G75*
G02*
X453100I5000J-1328D01*
G01*
X372189Y303100D02*
G75*
G02*
X399011I13411J0D01*
G01*
G75*
G02*
X372189I-13411J0D01*
G01*
X467189D02*
G75*
G02*
X494011I13411J0D01*
G01*
G75*
G02*
X467189I-13411J0D01*
G01*
X467927Y238273D02*
X478273D01*
Y217927D01*
X467927D01*
Y238273D01*
X468502Y217698D02*
X477698D01*
Y208502D01*
X468502D01*
Y217698D01*
X482927Y238273D02*
X493273D01*
Y217927D01*
X482927D01*
Y238273D01*
X483502Y217698D02*
X492698D01*
Y208502D01*
X483502D01*
Y217698D01*
X494689Y303100D02*
G75*
G02*
X521511I13411J0D01*
G01*
G75*
G02*
X494689I-13411J0D01*
G01*
X497927Y238273D02*
X508273D01*
Y217927D01*
X497927D01*
Y238273D01*
X498502Y217698D02*
X507698D01*
Y208502D01*
X498502D01*
Y217698D01*
X512382Y203100D02*
G75*
G02*
X523818I5718J0D01*
G01*
G75*
G02*
X512382I-5718J0D01*
G01*
Y243100D02*
G75*
G02*
X523818I5718J0D01*
G01*
G75*
G02*
X512382I-5718J0D01*
G01*
X527925Y190600D02*
G75*
G02*
X538275I5175J0D01*
G01*
G75*
G02*
X527925I-5175J0D01*
G01*
X555775Y278009D02*
G75*
G02*
X556700Y275600I-2675J-2409D01*
G01*
G75*
G02*
X549500I-3600J0D01*
G01*
G75*
G02*
X550425Y278009I3600J0D01*
G01*
Y296458D01*
X540277D01*
Y304742D01*
X550923D01*
Y303255D01*
G75*
G02*
X552494Y302489I-323J-2656D01*
G01*
X554989Y299994D01*
G75*
G02*
X555775Y298100I-1889J-1894D01*
G01*
Y278009D01*
X552927Y190773D02*
X583273D01*
Y180427D01*
X552927D01*
Y190773D01*
X540425Y185600D02*
G75*
G02*
X550775I5175J0D01*
G01*
G75*
G02*
X540425I-5175J0D01*
G01*
X540852Y289167D02*
X550348D01*
Y282033D01*
X540852D01*
Y289167D01*
X575775Y283009D02*
G75*
G02*
X576700Y280600I-2675J-2409D01*
G01*
G75*
G02*
X569500I-3600J0D01*
G01*
G75*
G02*
X569604Y281458I3600J0D01*
G01*
X568275D01*
Y273009D01*
G75*
G02*
X569200Y270600I-2675J-2409D01*
G01*
G75*
G02*
X562000I-3600J0D01*
G01*
G75*
G02*
X562925Y273009I3600J0D01*
G01*
Y281458D01*
X560277D01*
Y289742D01*
X570425D01*
Y296458D01*
X560277D01*
Y304742D01*
X562925D01*
Y305675D01*
X554927D01*
Y306250D01*
X546502D01*
Y314950D01*
X554927D01*
Y315525D01*
X565273D01*
Y312209D01*
X567489Y309994D01*
G75*
G02*
X568275Y308100I-1889J-1894D01*
G01*
Y304742D01*
X570923D01*
Y303255D01*
G75*
G02*
X572494Y302489I-323J-2656D01*
G01*
X574989Y299994D01*
G75*
G02*
X575775Y298100I-1889J-1894D01*
G01*
Y283009D01*
X583502Y190198D02*
X592698D01*
Y181002D01*
X583502D01*
Y190198D01*
X589689Y303100D02*
G75*
G02*
X616511I13411J0D01*
G01*
G75*
G02*
X589689I-13411J0D01*
G01*
X820425Y240600D02*
G75*
G02*
X830775I5175J0D01*
G01*
G75*
G02*
X826933Y235600I-5175J0D01*
G01*
G75*
G02*
X824359Y225576I-1333J-5000D01*
G01*
X789994Y191211D01*
G75*
G02*
X788100Y190425I-1894J1889D01*
G01*
X698100D01*
G75*
G02*
X696206Y191211I0J2675D01*
G01*
X684492Y202925D01*
X653100D01*
G75*
G02*
X651708Y203316I0J2675D01*
G01*
G75*
G02*
X651712Y203100I-6116J-220D01*
G01*
G75*
G02*
X639488I-6112J0D01*
G01*
G75*
G02*
X645706Y209211I6112J0D01*
G01*
X643711Y211206D01*
G75*
G02*
X642925Y213100I1889J1894D01*
G01*
Y217927D01*
X610427D01*
Y228273D01*
X660773D01*
Y217927D01*
X658275D01*
Y214208D01*
X659208Y213275D01*
X688100D01*
G75*
G02*
X689994Y212489I0J-2675D01*
G01*
X701708Y200775D01*
X702852D01*
G75*
G02*
X702620Y205120I2748J2325D01*
G01*
G75*
G02*
X697620Y210120I-2020J2980D01*
G01*
G75*
G02*
X692620Y215120I-2020J2980D01*
G01*
G75*
G02*
X687620Y220120I-2020J2980D01*
G01*
G75*
G02*
X682620Y225120I-2020J2980D01*
G01*
G75*
G02*
X677000Y228100I-2020J2980D01*
G01*
G75*
G02*
X683009Y230775I3600J0D01*
G01*
X731992D01*
X748706Y247489D01*
G75*
G02*
X750600Y248275I1894J-1889D01*
G01*
X770600D01*
G75*
G02*
X772494Y247489I0J-2675D01*
G01*
X774359Y245624D01*
G75*
G02*
X780600Y241933I1241J-5024D01*
G01*
G75*
G02*
X790600I5000J-1333D01*
G01*
G75*
G02*
X800600I5000J-1333D01*
G01*
G75*
G02*
X810775Y240600I5000J-1333D01*
G01*
G75*
G02*
X806933Y235600I-5175J0D01*
G01*
G75*
G02*
X805600Y225425I-1333J-5000D01*
G01*
G75*
G02*
X800600Y229267I0J5175D01*
G01*
G75*
G02*
X798275Y226170I-5000J1333D01*
G01*
Y220600D01*
G75*
G02*
X797489Y218706I-2675J0D01*
G01*
X779994Y201211D01*
G75*
G02*
X778100Y200425I-1894J1889D01*
G01*
X770848D01*
G75*
G02*
Y195775I-2748J-2325D01*
G01*
X786992D01*
X817751Y226534D01*
G75*
G02*
X811000Y230600I-2151J4066D01*
G01*
G75*
G02*
X815600Y235200I4600J0D01*
G01*
G75*
G02*
X819666Y228449I0J-4600D01*
G01*
X820576Y229359D01*
G75*
G02*
X824267Y235600I5024J1241D01*
G01*
G75*
G02*
X820425Y240600I1333J5000D01*
G01*
X614079Y195600D02*
G75*
G02*
X627121I6521J0D01*
G01*
G75*
G02*
X614079I-6521J0D01*
G01*
X617189Y303100D02*
G75*
G02*
X644011I13411J0D01*
G01*
G75*
G02*
X617189I-13411J0D01*
G01*
X661002Y227698D02*
X670198D01*
Y218502D01*
X661002D01*
Y227698D01*
X712189Y303100D02*
G75*
G02*
X739011I13411J0D01*
G01*
G75*
G02*
X712189I-13411J0D01*
G01*
X739689D02*
G75*
G02*
X766511I13411J0D01*
G01*
G75*
G02*
X739689I-13411J0D01*
G01*
X785277Y304742D02*
X795923D01*
Y296458D01*
X785775D01*
Y253009D01*
G75*
G02*
X786700Y250600I-2675J-2409D01*
G01*
G75*
G02*
X779500I-3600J0D01*
G01*
G75*
G02*
X780425Y253009I3600J0D01*
G01*
Y298100D01*
G75*
G02*
X781211Y299994I2675J0D01*
G01*
X783706Y302489D01*
G75*
G02*
X785277Y303255I1894J-1889D01*
G01*
Y304742D01*
X785852Y289167D02*
X795348D01*
Y282033D01*
X785852D01*
Y289167D01*
X820775Y283009D02*
G75*
G02*
X821700Y280600I-2675J-2409D01*
G01*
G75*
G02*
X814500I-3600J0D01*
G01*
G75*
G02*
X814604Y281458I3600J0D01*
G01*
X813275D01*
Y278009D01*
G75*
G02*
X814200Y275600I-2675J-2409D01*
G01*
G75*
G02*
X807000I-3600J0D01*
G01*
G75*
G02*
X807925Y278009I3600J0D01*
G01*
Y281458D01*
X805277D01*
Y289742D01*
X815425D01*
Y296458D01*
X805277D01*
Y304742D01*
X807925D01*
Y305675D01*
X799927D01*
Y306250D01*
X791502D01*
Y314950D01*
X799927D01*
Y315525D01*
X810273D01*
Y312209D01*
X812489Y309994D01*
G75*
G02*
X813275Y308100I-1889J-1894D01*
G01*
Y304742D01*
X815923D01*
Y303255D01*
G75*
G02*
X817494Y302489I-323J-2656D01*
G01*
X819989Y299994D01*
G75*
G02*
X820775Y298100I-1889J-1894D01*
G01*
Y283009D01*
X815600Y245200D02*
G75*
G02*
X820200Y240600I0J-4600D01*
G01*
G75*
G02*
X815600Y236000I-4600J0D01*
G01*
G75*
G02*
X811000Y240600I0J4600D01*
G01*
G75*
G02*
X815600Y245200I4600J0D01*
G01*
X834689Y303100D02*
G75*
G02*
X861511I13411J0D01*
G01*
G75*
G02*
X834689I-13411J0D01*
G01*
X3700Y30600D02*
G36*
X3700Y30600D02*
Y3700D01*
X862500D01*
Y30600D01*
X852959D01*
G75*
G02*
X861511Y18100I-4860J-12501D01*
G01*
G75*
G02*
X834689I-13411J0D01*
G01*
Y18100D01*
G75*
G02*
X843241Y30600I13411J0D01*
G01*
X757959D01*
G75*
G02*
X748241I-4859J12500D01*
G01*
X730459D01*
G75*
G02*
X720741I-4859J12500D01*
G01*
X635459D01*
G75*
G02*
X625741I-4859J12500D01*
G01*
X607959D01*
G75*
G02*
X598241I-4859J12500D01*
G01*
X512959D01*
G75*
G02*
X503241I-4859J12500D01*
G01*
X485459D01*
G75*
G02*
X494011Y18100I-4860J-12501D01*
G01*
G75*
G02*
X467189I-13411J0D01*
G01*
Y18100D01*
G75*
G02*
X475741Y30600I13411J0D01*
G01*
X390459D01*
G75*
G02*
X399011Y18100I-4860J-12501D01*
G01*
G75*
G02*
X372189I-13411J0D01*
G01*
Y18100D01*
G75*
G02*
X380741Y30600I13411J0D01*
G01*
X362959D01*
G75*
G02*
X353241I-4859J12500D01*
G01*
X267959D01*
G75*
G02*
X258241I-4859J12500D01*
G01*
X240459D01*
G75*
G02*
X230741I-4859J12500D01*
G01*
X145459D01*
G75*
G02*
X135741I-4859J12500D01*
G01*
X117959D01*
G75*
G02*
X108241I-4859J12500D01*
G01*
X22959D01*
G75*
G02*
X31511Y18100I-4860J-12501D01*
G01*
G75*
G02*
X4689I-13411J0D01*
G01*
Y18100D01*
G75*
G02*
X13241Y30600I13411J0D01*
G01*
X3700D01*
G37*
Y38100D02*
G36*
X3700Y38100D02*
Y30600D01*
X13241D01*
G75*
G02*
X5656Y38100I4859J12501D01*
G01*
X3700D01*
G37*
X30544D02*
G36*
X30544Y38100D02*
G75*
G02*
X22959Y30600I-12444J5000D01*
G01*
X108241D01*
G75*
G02*
X100656Y38100I4859J12500D01*
G01*
X85775D01*
G75*
G02*
X75600Y36767I-5175J0D01*
G01*
G75*
G02*
X65600I-5000J1333D01*
G01*
G75*
G02*
X55425Y38100I-5000J1334D01*
G01*
X55200D01*
G75*
G02*
X46000I-4600J0D01*
G01*
X30544D01*
G37*
X125544D02*
G36*
X125544Y38100D02*
G75*
G02*
X117959Y30600I-12444J5000D01*
G01*
X135741D01*
G75*
G02*
X128156Y38100I4859J12500D01*
G01*
X125544D01*
G37*
X153044D02*
G36*
X153044Y38100D02*
G75*
G02*
X145459Y30600I-12444J5000D01*
G01*
X230741D01*
G75*
G02*
X223156Y38100I4859J12500D01*
G01*
X208275D01*
G75*
G02*
X198100Y36767I-5175J0D01*
G01*
G75*
G02*
X188100I-5000J1333D01*
G01*
G75*
G02*
X177925Y38100I-5000J1334D01*
G01*
X177700D01*
G75*
G02*
X168500I-4600J0D01*
G01*
X153044D01*
G37*
X248044D02*
G36*
X248044Y38100D02*
G75*
G02*
X240459Y30600I-12444J5000D01*
G01*
X258241D01*
G75*
G02*
X250656Y38100I4859J12500D01*
G01*
X248044D01*
G37*
X275544D02*
G36*
X275544Y38100D02*
G75*
G02*
X267959Y30600I-12444J5000D01*
G01*
X353241D01*
G75*
G02*
X345656Y38100I4859J12500D01*
G01*
X330775D01*
G75*
G02*
X320600Y36767I-5175J0D01*
G01*
G75*
G02*
X310600I-5000J1333D01*
G01*
G75*
G02*
X300425Y38100I-5000J1334D01*
G01*
X300200D01*
G75*
G02*
X291000I-4600J0D01*
G01*
X275544D01*
G37*
X370544D02*
G36*
X370544Y38100D02*
G75*
G02*
X362959Y30600I-12444J5000D01*
G01*
X380741D01*
G75*
G02*
X373156Y38100I4859J12501D01*
G01*
X370544D01*
G37*
X398044D02*
G36*
X398044Y38100D02*
G75*
G02*
X390459Y30600I-12444J5000D01*
G01*
X475741D01*
G75*
G02*
X468156Y38100I4859J12501D01*
G01*
X453275D01*
G75*
G02*
X443100Y36767I-5175J0D01*
G01*
G75*
G02*
X433100I-5000J1333D01*
G01*
G75*
G02*
X422925Y38100I-5000J1334D01*
G01*
X422700D01*
G75*
G02*
X413500I-4600J0D01*
G01*
X398044D01*
G37*
X493044D02*
G36*
X493044Y38100D02*
G75*
G02*
X485459Y30600I-12444J5000D01*
G01*
X503241D01*
G75*
G02*
X495656Y38100I4859J12500D01*
G01*
X493044D01*
G37*
X520544D02*
G36*
X520544Y38100D02*
G75*
G02*
X512959Y30600I-12444J5000D01*
G01*
X598241D01*
G75*
G02*
X590656Y38100I4859J12500D01*
G01*
X575775D01*
G75*
G02*
X565600Y36767I-5175J0D01*
G01*
G75*
G02*
X555600I-5000J1333D01*
G01*
G75*
G02*
X545425Y38100I-5000J1334D01*
G01*
X545200D01*
G75*
G02*
X536000I-4600J0D01*
G01*
X520544D01*
G37*
X615544D02*
G36*
X615544Y38100D02*
G75*
G02*
X607959Y30600I-12444J5000D01*
G01*
X625741D01*
G75*
G02*
X618156Y38100I4859J12500D01*
G01*
X615544D01*
G37*
X643044D02*
G36*
X643044Y38100D02*
G75*
G02*
X635459Y30600I-12444J5000D01*
G01*
X720741D01*
G75*
G02*
X713156Y38100I4859J12500D01*
G01*
X698275D01*
G75*
G02*
X688100Y36767I-5175J0D01*
G01*
G75*
G02*
X678100I-5000J1333D01*
G01*
G75*
G02*
X667925Y38100I-5000J1334D01*
G01*
X667700D01*
G75*
G02*
X658500I-4600J0D01*
G01*
X643044D01*
G37*
X738044D02*
G36*
X738044Y38100D02*
G75*
G02*
X730459Y30600I-12444J5000D01*
G01*
X748241D01*
G75*
G02*
X740656Y38100I4859J12500D01*
G01*
X738044D01*
G37*
X765544D02*
G36*
X765544Y38100D02*
G75*
G02*
X757959Y30600I-12444J5000D01*
G01*
X843241D01*
G75*
G02*
X835656Y38100I4859J12501D01*
G01*
X820775D01*
G75*
G02*
X810600Y36767I-5175J0D01*
G01*
G75*
G02*
X800600I-5000J1333D01*
G01*
G75*
G02*
X790425Y38100I-5000J1334D01*
G01*
X790200D01*
G75*
G02*
X781000I-4600J0D01*
G01*
X765544D01*
G37*
X860544D02*
G36*
X860544Y38100D02*
G75*
G02*
X852959Y30600I-12444J5000D01*
G01*
X862500D01*
Y38100D01*
X860544D01*
G37*
X3700Y80600D02*
G36*
X3700Y80600D02*
Y38100D01*
X5656D01*
G75*
G02*
X4689Y43100I12445J5000D01*
G01*
G75*
G02*
X31511I13411J0D01*
G01*
Y43100D01*
G75*
G02*
X30544Y38100I-13411J0D01*
G01*
X46000D01*
G75*
G02*
X55200I4600J0D01*
G01*
X55425D01*
G75*
G02*
X59267Y43100I5176J0D01*
G01*
G75*
G02*
X55600Y46767I1334J5000D01*
G01*
G75*
G02*
X45425Y48100I-5000J1334D01*
G01*
Y48100D01*
G75*
G02*
X47638Y52343I5174J0D01*
G01*
Y55600D01*
G75*
G02*
X48507Y57696I2962J0D01*
G01*
X53504Y62693D01*
G75*
G02*
X55600Y63562I2096J-2093D01*
G01*
X62632D01*
G75*
G02*
X62000Y65600I2968J2038D01*
G01*
G75*
G02*
X62620Y67620I3600J0D01*
G01*
G75*
G02*
X57000Y70600I-2020J2980D01*
G01*
G75*
G02*
X63009Y73275I3600J0D01*
G01*
X72852D01*
G75*
G02*
X72000Y75600I2749J2325D01*
G01*
G75*
G02*
X77620Y78580I3600J0D01*
G01*
G75*
G02*
X77000Y80600I2980J2020D01*
G01*
X46712D01*
G75*
G02*
X34488I-6112J0D01*
G01*
X3700D01*
G37*
X53562Y54373D02*
G36*
X53562Y54373D02*
Y52343D01*
G75*
G02*
X55600Y49433I-2962J-4243D01*
G01*
G75*
G02*
X65600I5000J-1333D01*
G01*
G75*
G02*
X75600I5000J-1333D01*
G01*
G75*
G02*
X85775Y48100I5000J-1334D01*
G01*
G75*
G02*
X81933Y43100I-5176J0D01*
G01*
G75*
G02*
X85775Y38100I-1333J-5000D01*
G01*
X100656D01*
G75*
G02*
X99689Y43100I12444J5000D01*
G01*
G75*
G02*
X126511I13411J0D01*
G01*
G75*
G02*
X125544Y38100I-13411J0D01*
G01*
X128156D01*
G75*
G02*
X127189Y43100I12444J5000D01*
G01*
G75*
G02*
X154011I13411J0D01*
G01*
G75*
G02*
X153044Y38100I-13411J0D01*
G01*
X168500D01*
G75*
G02*
X177700I4600J0D01*
G01*
X177925D01*
G75*
G02*
X181767Y43100I5176J0D01*
G01*
G75*
G02*
X178100Y46767I1334J5000D01*
G01*
G75*
G02*
X167925Y48100I-5000J1334D01*
G01*
Y48100D01*
G75*
G02*
X170138Y52343I5174J0D01*
G01*
Y57638D01*
X56827D01*
X53562Y54373D01*
G37*
X176062Y57638D02*
G36*
X176062Y57638D02*
Y52343D01*
G75*
G02*
X178100Y49433I-2962J-4243D01*
G01*
G75*
G02*
X188100I5000J-1333D01*
G01*
G75*
G02*
X198100I5000J-1333D01*
G01*
G75*
G02*
X208275Y48100I5000J-1334D01*
G01*
G75*
G02*
X204433Y43100I-5176J0D01*
G01*
G75*
G02*
X208275Y38100I-1333J-5000D01*
G01*
X223156D01*
G75*
G02*
X222189Y43100I12444J5000D01*
G01*
G75*
G02*
X249011I13411J0D01*
G01*
G75*
G02*
X248044Y38100I-13411J0D01*
G01*
X250656D01*
G75*
G02*
X249689Y43100I12444J5000D01*
G01*
G75*
G02*
X276511I13411J0D01*
G01*
G75*
G02*
X275544Y38100I-13411J0D01*
G01*
X291000D01*
G75*
G02*
X300200I4600J0D01*
G01*
X300425D01*
G75*
G02*
X304267Y43100I5176J0D01*
G01*
G75*
G02*
X300600Y46767I1334J5000D01*
G01*
G75*
G02*
X290425Y48100I-5000J1334D01*
G01*
Y48100D01*
G75*
G02*
X292638Y52343I5174J0D01*
G01*
Y56873D01*
X291873Y57638D01*
X176062D01*
G37*
X298562Y56873D02*
G36*
X298562Y56873D02*
Y52343D01*
G75*
G02*
X300600Y49433I-2962J-4243D01*
G01*
G75*
G02*
X310600I5000J-1333D01*
G01*
G75*
G02*
X320600I5000J-1333D01*
G01*
G75*
G02*
X330775Y48100I5000J-1334D01*
G01*
G75*
G02*
X326933Y43100I-5176J0D01*
G01*
G75*
G02*
X330775Y38100I-1333J-5000D01*
G01*
X345656D01*
G75*
G02*
X344689Y43100I12444J5000D01*
G01*
G75*
G02*
X371511I13411J0D01*
G01*
G75*
G02*
X370544Y38100I-13411J0D01*
G01*
X373156D01*
G75*
G02*
X372189Y43100I12445J5000D01*
G01*
G75*
G02*
X399011I13411J0D01*
G01*
Y43100D01*
G75*
G02*
X398044Y38100I-13411J0D01*
G01*
X413500D01*
G75*
G02*
X422700I4600J0D01*
G01*
X422925D01*
G75*
G02*
X426767Y43100I5176J0D01*
G01*
G75*
G02*
X423100Y46767I1334J5000D01*
G01*
G75*
G02*
X412925Y48100I-5000J1334D01*
G01*
Y48100D01*
G75*
G02*
X415138Y52343I5174J0D01*
G01*
Y56873D01*
X414373Y57638D01*
X299327D01*
X298562Y56873D01*
G37*
X421062D02*
G36*
X421062Y56873D02*
Y52343D01*
G75*
G02*
X423100Y49433I-2962J-4243D01*
G01*
G75*
G02*
X433100I5000J-1333D01*
G01*
G75*
G02*
X443100I5000J-1333D01*
G01*
G75*
G02*
X453275Y48100I5000J-1334D01*
G01*
G75*
G02*
X449433Y43100I-5176J0D01*
G01*
G75*
G02*
X453275Y38100I-1333J-5000D01*
G01*
X468156D01*
G75*
G02*
X467189Y43100I12445J5000D01*
G01*
G75*
G02*
X494011I13411J0D01*
G01*
Y43100D01*
G75*
G02*
X493044Y38100I-13411J0D01*
G01*
X495656D01*
G75*
G02*
X494689Y43100I12444J5000D01*
G01*
G75*
G02*
X521511I13411J0D01*
G01*
G75*
G02*
X520544Y38100I-13411J0D01*
G01*
X536000D01*
G75*
G02*
X545200I4600J0D01*
G01*
X545425D01*
G75*
G02*
X549267Y43100I5176J0D01*
G01*
G75*
G02*
X545600Y46767I1334J5000D01*
G01*
G75*
G02*
X535425Y48100I-5000J1334D01*
G01*
Y48100D01*
G75*
G02*
X537638Y52343I5174J0D01*
G01*
Y56873D01*
X536873Y57638D01*
X450146D01*
G75*
G02*
X446054I-2046J2962D01*
G01*
X421827D01*
X421062Y56873D01*
G37*
X543562D02*
G36*
X543562Y56873D02*
Y52343D01*
G75*
G02*
X545600Y49433I-2962J-4243D01*
G01*
G75*
G02*
X555600I5000J-1333D01*
G01*
G75*
G02*
X565600I5000J-1333D01*
G01*
G75*
G02*
X575775Y48100I5000J-1334D01*
G01*
G75*
G02*
X571933Y43100I-5176J0D01*
G01*
G75*
G02*
X575775Y38100I-1333J-5000D01*
G01*
X590656D01*
G75*
G02*
X589689Y43100I12444J5000D01*
G01*
G75*
G02*
X616511I13411J0D01*
G01*
G75*
G02*
X615544Y38100I-13411J0D01*
G01*
X618156D01*
G75*
G02*
X617189Y43100I12444J5000D01*
G01*
G75*
G02*
X644011I13411J0D01*
G01*
G75*
G02*
X643044Y38100I-13411J0D01*
G01*
X658500D01*
G75*
G02*
X667700I4600J0D01*
G01*
X667925D01*
G75*
G02*
X671767Y43100I5176J0D01*
G01*
G75*
G02*
X668100Y46767I1334J5000D01*
G01*
G75*
G02*
X657925Y48100I-5000J1334D01*
G01*
Y48100D01*
G75*
G02*
X660138Y52343I5174J0D01*
G01*
Y56873D01*
X659373Y57638D01*
X605146D01*
G75*
G02*
X601054I-2046J2962D01*
G01*
X544327D01*
X543562Y56873D01*
G37*
X666062D02*
G36*
X666062Y56873D02*
Y52343D01*
G75*
G02*
X668100Y49433I-2962J-4243D01*
G01*
G75*
G02*
X678100I5000J-1333D01*
G01*
G75*
G02*
X688100I5000J-1333D01*
G01*
G75*
G02*
X698275Y48100I5000J-1334D01*
G01*
G75*
G02*
X694433Y43100I-5176J0D01*
G01*
G75*
G02*
X698275Y38100I-1333J-5000D01*
G01*
X713156D01*
G75*
G02*
X712189Y43100I12444J5000D01*
G01*
G75*
G02*
X739011I13411J0D01*
G01*
G75*
G02*
X738044Y38100I-13411J0D01*
G01*
X740656D01*
G75*
G02*
X739689Y43100I12444J5000D01*
G01*
G75*
G02*
X766511I13411J0D01*
G01*
G75*
G02*
X765544Y38100I-13411J0D01*
G01*
X781000D01*
G75*
G02*
X790200I4600J0D01*
G01*
X790425D01*
G75*
G02*
X794267Y43100I5176J0D01*
G01*
G75*
G02*
X790600Y46767I1334J5000D01*
G01*
G75*
G02*
X780425Y48100I-5000J1334D01*
G01*
Y48100D01*
G75*
G02*
X782638Y52343I5174J0D01*
G01*
Y56873D01*
X781873Y57638D01*
X666827D01*
X666062Y56873D01*
G37*
X788562D02*
G36*
X788562Y56873D02*
Y52343D01*
G75*
G02*
X790600Y49433I-2962J-4243D01*
G01*
G75*
G02*
X800600I5000J-1333D01*
G01*
G75*
G02*
X810600I5000J-1333D01*
G01*
G75*
G02*
X820775Y48100I5000J-1334D01*
G01*
G75*
G02*
X816933Y43100I-5176J0D01*
G01*
G75*
G02*
X820775Y38100I-1333J-5000D01*
G01*
X835656D01*
G75*
G02*
X834689Y43100I12445J5000D01*
G01*
G75*
G02*
X861511I13411J0D01*
G01*
Y43100D01*
G75*
G02*
X860544Y38100I-13411J0D01*
G01*
X862500D01*
Y80600D01*
X827289D01*
X805196Y58507D01*
G75*
G02*
X803100Y57638I-2096J2093D01*
G01*
X789327D01*
X788562Y56873D01*
G37*
X3700Y88100D02*
G36*
X3700Y88100D02*
Y80600D01*
X34488D01*
G75*
G02*
X46712I6112J0D01*
G01*
X77000D01*
G75*
G02*
X77620Y82620I3600J0D01*
G01*
G75*
G02*
X72034Y85107I-2020J2980D01*
G01*
G75*
G02*
X58504Y88100I-6434J2993D01*
G01*
X22696D01*
G75*
G02*
X8504I-7096J0D01*
G01*
X3700D01*
G37*
X72696D02*
G36*
X72696Y88100D02*
G75*
G02*
X72685Y87713I-7312J7D01*
G01*
G75*
G02*
X73009Y88100I2915J-2114D01*
G01*
X72696D01*
G37*
X828943Y82254D02*
G36*
X828943Y82254D02*
X827289Y80600D01*
X862500D01*
Y88100D01*
X829812D01*
Y84350D01*
G75*
G02*
X828943Y82254I-2962J0D01*
G01*
G37*
X3700Y108100D02*
G36*
X3700Y108100D02*
Y88100D01*
X8504D01*
G75*
G02*
X22696I7096J0D01*
G01*
X58504D01*
G75*
G02*
X72696I7096J0D01*
G01*
X73009D01*
G75*
G02*
X78009Y88275I2591J-2500D01*
G01*
X82852D01*
G75*
G02*
X82000Y90600I2748J2325D01*
G01*
G75*
G02*
X88009Y93275I3600J0D01*
G01*
X176992D01*
X191206Y107489D01*
G75*
G02*
X192149Y108100I1894J-1890D01*
G01*
X72121D01*
G75*
G02*
X59079I-6521J0D01*
G01*
X22121D01*
G75*
G02*
X9079I-6521J0D01*
G01*
X3700D01*
G37*
X829812D02*
G36*
X829812Y108100D02*
Y88100D01*
X862500D01*
Y108100D01*
X829812D01*
G37*
X3700Y115600D02*
G36*
X3700Y115600D02*
Y108100D01*
X9079D01*
G75*
G02*
X22121I6521J0D01*
G01*
X59079D01*
G75*
G02*
X72121I6521J0D01*
G01*
X192149D01*
G75*
G02*
X193100Y108275I951J-2500D01*
G01*
X201778D01*
G75*
G02*
X201206Y108711I1329J2334D01*
G01*
X196211Y113706D01*
G75*
G02*
X195431Y115427I1887J1893D01*
G01*
X172927D01*
Y115600D01*
X46712D01*
G75*
G02*
X34488I-6112J0D01*
G01*
X3700D01*
G37*
X202056Y115427D02*
G36*
X202056Y115427D02*
X204208Y113275D01*
X286992D01*
X289317Y115600D01*
X213273D01*
Y115427D01*
X202056D01*
G37*
X829812Y115600D02*
G36*
X829812Y115600D02*
Y108100D01*
X862500D01*
Y115600D01*
X829812D01*
G37*
X3700Y120600D02*
G36*
X3700Y120600D02*
Y115600D01*
X34488D01*
G75*
G02*
X37085Y120600I6112J0D01*
G01*
X3700D01*
G37*
X44115D02*
G36*
X44115Y120600D02*
G75*
G02*
X46712Y115600I-3515J-5000D01*
G01*
X172927D01*
Y120600D01*
X44115D01*
G37*
X213273D02*
G36*
X213273Y120600D02*
Y115600D01*
X289317D01*
X294317Y120600D01*
X222698D01*
Y116002D01*
X213502D01*
Y120600D01*
X213273D01*
G37*
X829812D02*
G36*
X829812Y120600D02*
Y115600D01*
X862500D01*
Y120600D01*
X829812D01*
G37*
X3700Y133100D02*
G36*
X3700Y133100D02*
Y120600D01*
X37085D01*
G75*
G02*
X44115I3515J-5000D01*
G01*
X172927D01*
Y125773D01*
X213273D01*
Y120600D01*
X213502D01*
Y125198D01*
X222698D01*
Y120600D01*
X294317D01*
X301206Y127489D01*
G75*
G02*
X303100Y128275I1894J-1889D01*
G01*
X414492D01*
X419317Y133100D01*
X46712D01*
G75*
G02*
X34488I-6112J0D01*
G01*
X3700D01*
G37*
X829812Y129427D02*
G36*
X829812Y129427D02*
Y120600D01*
X862500D01*
Y133100D01*
X840950D01*
Y130002D01*
X832525D01*
Y129427D01*
X829812D01*
G37*
X3700Y140600D02*
G36*
X3700Y140600D02*
Y133100D01*
X34488D01*
G75*
G02*
X46712I6112J0D01*
G01*
X419317D01*
X423706Y137489D01*
G75*
G02*
X425600Y138275I1894J-1889D01*
G01*
X441778D01*
G75*
G02*
X441206Y138711I1329J2334D01*
G01*
X439317Y140600D01*
X328655D01*
G75*
G02*
X325045I-1805J6250D01*
G01*
X72696D01*
G75*
G02*
X58504I-7096J0D01*
G01*
X22696D01*
G75*
G02*
X8504I-7096J0D01*
G01*
X3700D01*
G37*
X829812D02*
G36*
X829812Y140600D02*
Y139273D01*
X832525D01*
Y138698D01*
X840950D01*
Y133100D01*
X862500D01*
Y140600D01*
X829812D01*
G37*
X3700Y148100D02*
G36*
X3700Y148100D02*
Y140600D01*
X8504D01*
G75*
G02*
X22696I7096J0D01*
G01*
X58504D01*
G75*
G02*
X72696I7096J0D01*
G01*
X325045D01*
G75*
G02*
X320671Y144815I1805J6250D01*
G01*
G75*
G02*
X311052Y148100I-3821J4535D01*
G01*
X3700D01*
G37*
X333356Y146850D02*
G36*
X333356Y146850D02*
G75*
G02*
X328655Y140600I-6506J0D01*
G01*
X439317D01*
X438711Y141206D01*
G75*
G02*
X437925Y143100I1889J1894D01*
G01*
Y148100D01*
X356398D01*
G75*
G02*
X346312Y145253I-5798J1250D01*
G01*
G75*
G02*
X334669Y146850I-5712J1597D01*
G01*
G75*
G02*
X334802Y148100I5931J1D01*
G01*
X333234D01*
G75*
G02*
X333356Y146850I-6385J-1250D01*
G01*
G37*
X443275Y148100D02*
G36*
X443275Y148100D02*
Y144208D01*
X444208Y143275D01*
X466992D01*
X468719Y145002D01*
X461273D01*
Y144427D01*
X450927D01*
Y146675D01*
X450509D01*
G75*
G02*
X444724Y148100I-2409J2675D01*
G01*
X443275D01*
G37*
X469698D02*
G36*
X469698Y148100D02*
Y145981D01*
X471817Y148100D01*
X469698D01*
G37*
X828562Y146357D02*
G36*
X828562Y146357D02*
Y144327D01*
X828943Y143946D01*
G75*
G02*
X829812Y141850I-2093J-2096D01*
G01*
Y140600D01*
X862500D01*
Y148100D01*
X830131D01*
G75*
G02*
X828562Y146357I-4531J2500D01*
G01*
G37*
X3700Y160600D02*
G36*
X3700Y160600D02*
Y148100D01*
X311052D01*
G75*
G02*
X310919Y149350I5798J1249D01*
G01*
G75*
G02*
X322356Y151554I5931J0D01*
G01*
G75*
G02*
X324175Y152780I4488J-4696D01*
G01*
Y160600D01*
X72121D01*
G75*
G02*
X59079I-6521J0D01*
G01*
X22121D01*
G75*
G02*
X9079I-6521J0D01*
G01*
X3700D01*
G37*
X329525D02*
G36*
X329525Y160600D02*
Y152780D01*
G75*
G02*
X333234Y148100I-2675J-5930D01*
G01*
X334802D01*
G75*
G02*
X344888Y150947I5798J-1250D01*
G01*
G75*
G02*
X356531Y149350I5712J-1597D01*
G01*
G75*
G02*
X356398Y148100I-5931J-1D01*
G01*
X437925D01*
Y155600D01*
G75*
G02*
X438711Y157494I2675J0D01*
G01*
X439346Y158129D01*
G75*
G02*
X433626Y160600I-1246J4970D01*
G01*
X432574D01*
G75*
G02*
X423626I-4474J2500D01*
G01*
X422574D01*
G75*
G02*
X413626I-4474J2500D01*
G01*
X412574D01*
G75*
G02*
X403626I-4474J2500D01*
G01*
X402574D01*
G75*
G02*
X393626I-4474J2500D01*
G01*
X392574D01*
G75*
G02*
X383626I-4474J2500D01*
G01*
X382574D01*
G75*
G02*
X373626I-4474J2500D01*
G01*
X373226D01*
Y157974D01*
X362974D01*
Y160600D01*
X329525D01*
G37*
X443275Y154492D02*
G36*
X443275Y154492D02*
Y148100D01*
X444724D01*
G75*
G02*
X444500Y149350I3376J1250D01*
G01*
G75*
G02*
X450509Y152025I3600J0D01*
G01*
X450927D01*
Y154273D01*
X461273D01*
Y153698D01*
X469698D01*
Y148100D01*
X471817D01*
X476206Y152489D01*
G75*
G02*
X478100Y153275I1894J-1889D01*
G01*
X516992D01*
X517925Y154208D01*
Y158100D01*
G75*
G02*
X518711Y159994I2675J0D01*
G01*
X519317Y160600D01*
X502574D01*
G75*
G02*
X493626I-4474J2500D01*
G01*
X492574D01*
G75*
G02*
X483626I-4474J2500D01*
G01*
X482574D01*
G75*
G02*
X473626I-4474J2500D01*
G01*
X472574D01*
G75*
G02*
X463626I-4474J2500D01*
G01*
X461902D01*
G75*
G02*
X454298I-3802J2500D01*
G01*
X452574D01*
G75*
G02*
X445775Y158533I-4474J2500D01*
G01*
Y158100D01*
G75*
G02*
X444989Y156206I-2675J0D01*
G01*
X443275Y154492D01*
G37*
X830774Y150600D02*
G36*
X830774Y150600D02*
G75*
G02*
X830131Y148100I-5175J0D01*
G01*
X862500D01*
Y160600D01*
X830775D01*
G75*
G02*
X826933Y155600I-5176J0D01*
G01*
G75*
G02*
X830774Y150600I-1334J-5000D01*
G01*
G37*
X3700Y168100D02*
G36*
X3700Y168100D02*
Y160600D01*
X9079D01*
G75*
G02*
X22121I6521J0D01*
G01*
X59079D01*
G75*
G02*
X72121I6521J0D01*
G01*
X324175D01*
Y168100D01*
X46712D01*
G75*
G02*
X34488I-6112J0D01*
G01*
X3700D01*
G37*
X329525D02*
G36*
X329525Y168100D02*
Y160600D01*
X362974D01*
Y168100D01*
X329525D01*
G37*
X373226Y161517D02*
G36*
X373226Y161517D02*
Y160600D01*
X373626D01*
G75*
G02*
X373226Y161517I4474J2500D01*
G01*
G37*
Y168100D02*
G36*
X373226Y168100D02*
Y164683D01*
G75*
G02*
X376976Y168100I4874J-1583D01*
G01*
X373226D01*
G37*
X383100Y161976D02*
G36*
X383100Y161976D02*
G75*
G02*
X382574Y160600I-5000J1124D01*
G01*
X383626D01*
G75*
G02*
X383100Y161976I4474J2500D01*
G01*
G37*
X379224Y168100D02*
G36*
X379224Y168100D02*
G75*
G02*
X383100Y164224I-1124J-5000D01*
G01*
G75*
G02*
X386976Y168100I5000J-1124D01*
G01*
X379224D01*
G37*
X393100Y161976D02*
G36*
X393100Y161976D02*
G75*
G02*
X392574Y160600I-5000J1124D01*
G01*
X393626D01*
G75*
G02*
X393100Y161976I4474J2500D01*
G01*
G37*
X389224Y168100D02*
G36*
X389224Y168100D02*
G75*
G02*
X393100Y164224I-1124J-5000D01*
G01*
G75*
G02*
X396976Y168100I5000J-1124D01*
G01*
X389224D01*
G37*
X403100Y161976D02*
G36*
X403100Y161976D02*
G75*
G02*
X402574Y160600I-5000J1124D01*
G01*
X403626D01*
G75*
G02*
X403100Y161976I4474J2500D01*
G01*
G37*
X399224Y168100D02*
G36*
X399224Y168100D02*
G75*
G02*
X403100Y164224I-1124J-5000D01*
G01*
G75*
G02*
X406976Y168100I5000J-1124D01*
G01*
X399224D01*
G37*
X413100Y161976D02*
G36*
X413100Y161976D02*
G75*
G02*
X412574Y160600I-5000J1124D01*
G01*
X413626D01*
G75*
G02*
X413100Y161976I4474J2500D01*
G01*
G37*
X409224Y168100D02*
G36*
X409224Y168100D02*
G75*
G02*
X413100Y164224I-1124J-5000D01*
G01*
G75*
G02*
X416976Y168100I5000J-1124D01*
G01*
X409224D01*
G37*
X423100Y161976D02*
G36*
X423100Y161976D02*
G75*
G02*
X422574Y160600I-5000J1124D01*
G01*
X423626D01*
G75*
G02*
X423100Y161976I4474J2500D01*
G01*
G37*
X419224Y168100D02*
G36*
X419224Y168100D02*
G75*
G02*
X423100Y164224I-1124J-5000D01*
G01*
G75*
G02*
X426976Y168100I5000J-1124D01*
G01*
X419224D01*
G37*
X433100Y161976D02*
G36*
X433100Y161976D02*
G75*
G02*
X432574Y160600I-5000J1124D01*
G01*
X433626D01*
G75*
G02*
X433100Y161976I4474J2500D01*
G01*
G37*
X429224Y168100D02*
G36*
X429224Y168100D02*
G75*
G02*
X433100Y164224I-1124J-5000D01*
G01*
G75*
G02*
X436975Y168100I5000J-1124D01*
G01*
X429224D01*
G37*
X439224D02*
G36*
X439224Y168100D02*
G75*
G02*
X440425Y167667I-1124J-4999D01*
G01*
Y168100D01*
X439224D01*
G37*
X445775D02*
G36*
X445775Y168100D02*
Y167667D01*
G75*
G02*
X446976Y168100I2326J-4567D01*
G01*
X445775D01*
G37*
X453225Y163100D02*
G36*
X453225Y163100D02*
G75*
G02*
X452574Y160600I-5125J0D01*
G01*
X454298D01*
G75*
G02*
X453550Y163100I3802J2500D01*
G01*
G75*
G02*
X462650I4550J0D01*
G01*
G75*
G02*
X461902Y160600I-4550J0D01*
G01*
X463626D01*
G75*
G02*
X462975Y163100I4473J2500D01*
G01*
Y163100D01*
Y163100D01*
G75*
G02*
X466975Y168100I5125J0D01*
G01*
X449224D01*
G75*
G02*
X453225Y163100I-1124J-5000D01*
G01*
G37*
X473100Y161976D02*
G36*
X473100Y161976D02*
G75*
G02*
X472574Y160600I-5000J1124D01*
G01*
X473626D01*
G75*
G02*
X473100Y161976I4474J2500D01*
G01*
G37*
X469225Y168100D02*
G36*
X469225Y168100D02*
G75*
G02*
X473100Y164224I-1125J-5000D01*
G01*
G75*
G02*
X476976Y168100I5000J-1124D01*
G01*
X469225D01*
G37*
X483100Y161976D02*
G36*
X483100Y161976D02*
G75*
G02*
X482574Y160600I-5000J1124D01*
G01*
X483626D01*
G75*
G02*
X483100Y161976I4474J2500D01*
G01*
G37*
X479224Y168100D02*
G36*
X479224Y168100D02*
G75*
G02*
X483100Y164224I-1124J-5000D01*
G01*
G75*
G02*
X486976Y168100I5000J-1124D01*
G01*
X479224D01*
G37*
X493100Y161976D02*
G36*
X493100Y161976D02*
G75*
G02*
X492574Y160600I-5000J1124D01*
G01*
X493626D01*
G75*
G02*
X493100Y161976I4474J2500D01*
G01*
G37*
X489224Y168100D02*
G36*
X489224Y168100D02*
G75*
G02*
X493100Y164224I-1124J-5000D01*
G01*
G75*
G02*
X496977Y168100I5000J-1124D01*
G01*
X489224D01*
G37*
X503225Y163100D02*
G36*
X503225Y163100D02*
G75*
G02*
X502574Y160600I-5125J0D01*
G01*
X519317D01*
X523706Y164989D01*
G75*
G02*
X525600Y165775I1894J-1889D01*
G01*
X589492D01*
X591817Y168100D01*
X499223D01*
G75*
G02*
X503225Y163100I-1123J-5000D01*
G01*
G37*
X701883Y168100D02*
G36*
X701883Y168100D02*
X704208Y165775D01*
X734492D01*
X736817Y168100D01*
X701883D01*
G37*
X808275D02*
G36*
X808275Y168100D02*
Y165030D01*
G75*
G02*
X810600Y161933I-2676J-4430D01*
G01*
G75*
G02*
X820600I5000J-1333D01*
G01*
G75*
G02*
X830775Y160600I5000J-1334D01*
G01*
X862500D01*
Y168100D01*
X808275D01*
G37*
X3700Y185600D02*
G36*
X3700Y185600D02*
Y168100D01*
X34488D01*
G75*
G02*
X46712I6112J0D01*
G01*
X324175D01*
Y185600D01*
X46712D01*
G75*
G02*
X34488I-6112J0D01*
G01*
X3700D01*
G37*
X329525D02*
G36*
X329525Y185600D02*
Y168100D01*
X362974D01*
Y168226D01*
X373226D01*
Y168100D01*
X376976D01*
G75*
G02*
X379224I1124J-5000D01*
G01*
X386976D01*
G75*
G02*
X389224I1124J-5000D01*
G01*
X396976D01*
G75*
G02*
X399224I1124J-5000D01*
G01*
X406976D01*
G75*
G02*
X409224I1124J-5000D01*
G01*
X416976D01*
G75*
G02*
X419224I1124J-5000D01*
G01*
X426976D01*
G75*
G02*
X429224I1124J-5000D01*
G01*
X436975D01*
G75*
G02*
X439224I1125J-5000D01*
G01*
X440425D01*
Y170600D01*
G75*
G02*
X441211Y172494I2675J0D01*
G01*
X445425Y176708D01*
Y185600D01*
X329525D01*
G37*
X445775Y169492D02*
G36*
X445775Y169492D02*
Y168100D01*
X446976D01*
G75*
G02*
X449224I1124J-5000D01*
G01*
X466975D01*
G75*
G02*
X469225I1125J-5000D01*
G01*
X476976D01*
G75*
G02*
X479224I1124J-5000D01*
G01*
X486976D01*
G75*
G02*
X489224I1124J-5000D01*
G01*
X496977D01*
G75*
G02*
X499223I1123J-5001D01*
G01*
X591817D01*
X596206Y172489D01*
G75*
G02*
X598100Y173275I1894J-1889D01*
G01*
X604278D01*
G75*
G02*
X603706Y173711I1329J2334D01*
G01*
X601211Y176206D01*
G75*
G02*
X600425Y178100I1889J1894D01*
G01*
Y185600D01*
X592698D01*
Y181002D01*
X583502D01*
Y185600D01*
X583273D01*
Y180427D01*
X552927D01*
Y185600D01*
X550775D01*
G75*
G02*
X540425I-5175J0D01*
G01*
X534433D01*
G75*
G02*
X531767I-1333J5000D01*
G01*
X450775D01*
Y175600D01*
G75*
G02*
X449989Y173706I-2675J0D01*
G01*
X445775Y169492D01*
G37*
X605775Y185600D02*
G36*
X605775Y185600D02*
Y179208D01*
X606708Y178275D01*
X614028D01*
G75*
G02*
X627172I6572J-2674D01*
G01*
X664028D01*
G75*
G02*
X665397Y180425I6583J-2681D01*
G01*
X640600D01*
G75*
G02*
X638706Y181211I0J2675D01*
G01*
X635412Y184505D01*
G75*
G02*
X633010Y185600I188J3595D01*
G01*
X605775D01*
G37*
X684383D02*
G36*
X684383Y185600D02*
X701883Y168100D01*
X736817D01*
X743706Y174989D01*
G75*
G02*
X745600Y175775I1894J-1889D01*
G01*
X800600D01*
G75*
G02*
X802494Y174989I0J-2675D01*
G01*
X807489Y169994D01*
G75*
G02*
X808275Y168100I-1889J-1894D01*
G01*
X862500D01*
Y185600D01*
X684383D01*
G37*
X3700Y193100D02*
G36*
X3700Y193100D02*
Y185600D01*
X34488D01*
G75*
G02*
X46712I6112J0D01*
G01*
X324175D01*
Y193100D01*
X72696D01*
G75*
G02*
X58504I-7096J0D01*
G01*
X22696D01*
G75*
G02*
X8504I-7096J0D01*
G01*
X3700D01*
G37*
X329525D02*
G36*
X329525Y193100D02*
Y185600D01*
X445425D01*
Y188729D01*
G75*
G02*
X443100Y191976I2677J4373D01*
G01*
G75*
G02*
X433100I-5000J1124D01*
G01*
G75*
G02*
X423100I-5000J1124D01*
G01*
G75*
G02*
X413100I-5000J1124D01*
G01*
G75*
G02*
X403100I-5000J1124D01*
G01*
G75*
G02*
X393100I-5000J1124D01*
G01*
G75*
G02*
X383100I-5000J1124D01*
G01*
G75*
G02*
X373100I-5000J1124D01*
G01*
G75*
G02*
X362975Y193100I-5000J1124D01*
G01*
Y193100D01*
X329525D01*
G37*
X450775Y188729D02*
G36*
X450775Y188729D02*
Y185600D01*
X531767D01*
G75*
G02*
X527925Y190600I1333J5000D01*
G01*
G75*
G02*
X528569Y193100I5175J0D01*
G01*
X503225D01*
G75*
G02*
X493100Y191976I-5125J0D01*
G01*
G75*
G02*
X483100I-5000J1124D01*
G01*
G75*
G02*
X473100I-5000J1124D01*
G01*
G75*
G02*
X463100I-5000J1124D01*
G01*
G75*
G02*
X453100I-5000J1124D01*
G01*
G75*
G02*
X450775Y188729I-4998J1123D01*
G01*
G37*
X538275Y190600D02*
G36*
X538275Y190600D02*
G75*
G02*
X534433Y185600I-5175J0D01*
G01*
X540425D01*
G75*
G02*
X550775I5175J0D01*
G01*
X552927D01*
Y190773D01*
X583273D01*
Y185600D01*
X583502D01*
Y190198D01*
X592698D01*
Y185600D01*
X600425D01*
Y193100D01*
X537631D01*
G75*
G02*
X538275Y190600I-4531J-2500D01*
G01*
G37*
X605775Y193100D02*
G36*
X605775Y193100D02*
Y185600D01*
X633010D01*
G75*
G02*
X632000Y188100I2591J2500D01*
G01*
G75*
G02*
X639195Y188288I3600J0D01*
G01*
X641708Y185775D01*
X642852D01*
G75*
G02*
X642000Y188100I2748J2325D01*
G01*
G75*
G02*
X648009Y190775I3600J0D01*
G01*
X666213D01*
G75*
G02*
X664577Y193100I4388J4825D01*
G01*
X626623D01*
G75*
G02*
X614577I-6023J2500D01*
G01*
X605775D01*
G37*
X676623D02*
G36*
X676623Y193100D02*
G75*
G02*
X674987Y190775I-6024J2500D01*
G01*
X678100D01*
G75*
G02*
X679994Y189989I0J-2675D01*
G01*
X684383Y185600D01*
X862500D01*
Y193100D01*
X791883D01*
X789994Y191211D01*
G75*
G02*
X788100Y190425I-1894J1889D01*
G01*
X698100D01*
G75*
G02*
X696206Y191211I0J2675D01*
G01*
X694317Y193100D01*
X676623D01*
G37*
X3700Y203100D02*
G36*
X3700Y203100D02*
Y193100D01*
X8504D01*
G75*
G02*
X22696I7096J0D01*
G01*
X58504D01*
G75*
G02*
X72696I7096J0D01*
G01*
X324175D01*
Y203100D01*
X3700D01*
G37*
X329525D02*
G36*
X329525Y203100D02*
Y193100D01*
X362975D01*
Y193100D01*
G75*
G02*
X373100Y194224I5125J0D01*
G01*
G75*
G02*
X383100I5000J-1124D01*
G01*
G75*
G02*
X393100I5000J-1124D01*
G01*
G75*
G02*
X403100I5000J-1124D01*
G01*
G75*
G02*
X413100I5000J-1124D01*
G01*
G75*
G02*
X423100I5000J-1124D01*
G01*
G75*
G02*
X433100I5000J-1124D01*
G01*
G75*
G02*
X443100I5000J-1124D01*
G01*
G75*
G02*
X453100I5000J-1124D01*
G01*
G75*
G02*
X463100I5000J-1124D01*
G01*
G75*
G02*
X473100I5000J-1124D01*
G01*
G75*
G02*
X483100I5000J-1124D01*
G01*
G75*
G02*
X493100I5000J-1124D01*
G01*
G75*
G02*
X503225Y193100I5000J-1124D01*
G01*
X528569D01*
G75*
G02*
X537631I4531J-2500D01*
G01*
X600425D01*
Y198670D01*
G75*
G02*
X597925Y203100I2675J4430D01*
G01*
X523818D01*
G75*
G02*
X512382I-5718J0D01*
G01*
X329525D01*
G37*
X605775Y198670D02*
G36*
X605775Y198670D02*
Y193100D01*
X614577D01*
G75*
G02*
X614079Y195600I6023J2500D01*
G01*
G75*
G02*
X627121I6521J0D01*
G01*
G75*
G02*
X626623Y193100I-6521J0D01*
G01*
X664577D01*
G75*
G02*
X664079Y195600I6024J2501D01*
G01*
G75*
G02*
X677121I6521J0D01*
G01*
G75*
G02*
X676623Y193100I-6522J1D01*
G01*
X694317D01*
X684492Y202925D01*
X653100D01*
G75*
G02*
X652149Y203100I0J2676D01*
G01*
X651712D01*
G75*
G02*
X639488I-6112J0D01*
G01*
X608275D01*
G75*
G02*
X605775Y198670I-5175J0D01*
G01*
G37*
X699383Y203100D02*
G36*
X699383Y203100D02*
X701708Y200775D01*
X702852D01*
G75*
G02*
X702000Y203100I2749J2325D01*
G01*
X699383D01*
G37*
X771700Y198100D02*
G36*
X771700Y198100D02*
G75*
G02*
X770848Y195775I-3600J0D01*
G01*
X786992D01*
X794317Y203100D01*
X781883D01*
X779994Y201211D01*
G75*
G02*
X778100Y200425I-1894J1889D01*
G01*
X770848D01*
G75*
G02*
X771700Y198100I-2749J-2325D01*
G01*
G37*
X801883Y203100D02*
G36*
X801883Y203100D02*
X791883Y193100D01*
X862500D01*
Y203100D01*
X801883D01*
G37*
X3700Y213100D02*
G36*
X3700Y213100D02*
Y203100D01*
X324175D01*
Y213100D01*
X72121D01*
G75*
G02*
X59079I-6521J0D01*
G01*
X22121D01*
G75*
G02*
X9079I-6521J0D01*
G01*
X3700D01*
G37*
X329525D02*
G36*
X329525Y213100D02*
Y203100D01*
X512382D01*
G75*
G02*
X523818I5718J0D01*
G01*
X597925D01*
G75*
G02*
X608275I5175J0D01*
G01*
X639488D01*
G75*
G02*
X645706Y209211I6112J0D01*
G01*
X643711Y211206D01*
G75*
G02*
X642925Y213100I1889J1894D01*
G01*
X507698D01*
Y208502D01*
X498502D01*
Y213100D01*
X492698D01*
Y208502D01*
X483502D01*
Y213100D01*
X477698D01*
Y208502D01*
X468502D01*
Y213100D01*
X463249D01*
G75*
G02*
X453100Y212272I-5149J500D01*
G01*
G75*
G02*
X443100I-5000J1328D01*
G01*
G75*
G02*
X433100I-5000J1328D01*
G01*
G75*
G02*
X423100I-5000J1328D01*
G01*
G75*
G02*
X413100I-5000J1328D01*
G01*
G75*
G02*
X403100I-5000J1328D01*
G01*
G75*
G02*
X393100I-5000J1328D01*
G01*
G75*
G02*
X383100I-5000J1328D01*
G01*
G75*
G02*
X373100I-5000J1328D01*
G01*
G75*
G02*
X362951Y213100I-5000J1328D01*
G01*
X329525D01*
G37*
X651708Y203316D02*
G36*
X651708Y203316D02*
G75*
G02*
X651712Y203100I-7387J-243D01*
G01*
X652149D01*
G75*
G02*
X651708Y203316I951J2501D01*
G01*
G37*
X689051Y213100D02*
G36*
X689051Y213100D02*
G75*
G02*
X689994Y212489I-951J-2501D01*
G01*
X699383Y203100D01*
X702000D01*
G75*
G02*
X702620Y205120I3600J0D01*
G01*
G75*
G02*
X697000Y208100I-2020J2980D01*
G01*
G75*
G02*
X697620Y210120I3600J0D01*
G01*
G75*
G02*
X692000Y213100I-2020J2980D01*
G01*
X689051D01*
G37*
X791883D02*
G36*
X791883Y213100D02*
X781883Y203100D01*
X794317D01*
X804317Y213100D01*
X791883D01*
G37*
X811883D02*
G36*
X811883Y213100D02*
X801883Y203100D01*
X862500D01*
Y213100D01*
X811883D01*
G37*
X3700Y220600D02*
G36*
X3700Y220600D02*
Y213100D01*
X9079D01*
G75*
G02*
X22121I6521J0D01*
G01*
X59079D01*
G75*
G02*
X72121I6521J0D01*
G01*
X324175D01*
Y220600D01*
X46712D01*
G75*
G02*
X34488I-6112J0D01*
G01*
X3700D01*
G37*
X329525D02*
G36*
X329525Y220600D02*
Y213100D01*
X362951D01*
G75*
G02*
X362927Y213600I5151J498D01*
G01*
Y217600D01*
G75*
G02*
X363885Y220600I5174J0D01*
G01*
X329525D01*
G37*
X372315D02*
G36*
X372315Y220600D02*
G75*
G02*
X373100Y218928I-4215J-3000D01*
G01*
G75*
G02*
X373885Y220600I5000J-1328D01*
G01*
X372315D01*
G37*
X382315D02*
G36*
X382315Y220600D02*
G75*
G02*
X383100Y218928I-4215J-3000D01*
G01*
G75*
G02*
X383885Y220600I5000J-1328D01*
G01*
X382315D01*
G37*
X392315D02*
G36*
X392315Y220600D02*
G75*
G02*
X393100Y218928I-4215J-3000D01*
G01*
G75*
G02*
X393885Y220600I5000J-1328D01*
G01*
X392315D01*
G37*
X402315D02*
G36*
X402315Y220600D02*
G75*
G02*
X403100Y218928I-4215J-3000D01*
G01*
G75*
G02*
X403885Y220600I5000J-1328D01*
G01*
X402315D01*
G37*
X412315D02*
G36*
X412315Y220600D02*
G75*
G02*
X413100Y218928I-4215J-3000D01*
G01*
G75*
G02*
X413885Y220600I5000J-1328D01*
G01*
X412315D01*
G37*
X422315D02*
G36*
X422315Y220600D02*
G75*
G02*
X423100Y218928I-4215J-3000D01*
G01*
G75*
G02*
X423885Y220600I5000J-1328D01*
G01*
X422315D01*
G37*
X432315D02*
G36*
X432315Y220600D02*
G75*
G02*
X433100Y218928I-4215J-3000D01*
G01*
G75*
G02*
X433885Y220600I5000J-1328D01*
G01*
X432315D01*
G37*
X442315D02*
G36*
X442315Y220600D02*
G75*
G02*
X443100Y218928I-4215J-3000D01*
G01*
G75*
G02*
X443885Y220600I5000J-1328D01*
G01*
X442315D01*
G37*
X452315D02*
G36*
X452315Y220600D02*
G75*
G02*
X453100Y218928I-4215J-3000D01*
G01*
G75*
G02*
X453885Y220600I5000J-1328D01*
G01*
X452315D01*
G37*
X463273Y217600D02*
G36*
X463273Y217600D02*
Y213600D01*
G75*
G02*
X463249Y213100I-5175J-2D01*
G01*
X468502D01*
Y217698D01*
X477698D01*
Y213100D01*
X483502D01*
Y217698D01*
X492698D01*
Y213100D01*
X498502D01*
Y217698D01*
X507698D01*
Y213100D01*
X642925D01*
Y217927D01*
X610427D01*
Y220600D01*
X508273D01*
Y217927D01*
X497927D01*
Y220600D01*
X493273D01*
Y217927D01*
X482927D01*
Y220600D01*
X478273D01*
Y217927D01*
X467927D01*
Y220600D01*
X462315D01*
G75*
G02*
X463273Y217600I-4215J-3000D01*
G01*
G37*
X658275Y217927D02*
G36*
X658275Y217927D02*
Y214208D01*
X659208Y213275D01*
X688100D01*
G75*
G02*
X689051Y213100I0J-2675D01*
G01*
X692000D01*
G75*
G02*
X692620Y215120I3600J0D01*
G01*
G75*
G02*
X687000Y218100I-2020J2980D01*
G01*
G75*
G02*
X687620Y220120I3600J0D01*
G01*
G75*
G02*
X683009Y220600I-2020J2980D01*
G01*
X670198D01*
Y218502D01*
X661002D01*
Y220600D01*
X660773D01*
Y217927D01*
X658275D01*
G37*
X797489Y218706D02*
G36*
X797489Y218706D02*
X791883Y213100D01*
X804317D01*
X811817Y220600D01*
X798275D01*
G75*
G02*
X797489Y218706I-2675J0D01*
G01*
G37*
X819383Y220600D02*
G36*
X819383Y220600D02*
X811883Y213100D01*
X862500D01*
Y220600D01*
X819383D01*
G37*
X3700Y238100D02*
G36*
X3700Y238100D02*
Y220600D01*
X34488D01*
G75*
G02*
X46712I6112J0D01*
G01*
X324175D01*
Y228191D01*
G75*
G02*
X323250Y230600I2676J2410D01*
G01*
G75*
G02*
X330450I3600J0D01*
G01*
G75*
G02*
X329525Y228191I-3601J0D01*
G01*
Y220600D01*
X363885D01*
G75*
G02*
X372315I4215J-3000D01*
G01*
X373885D01*
G75*
G02*
X382315I4215J-3000D01*
G01*
X383885D01*
G75*
G02*
X392315I4215J-3000D01*
G01*
X393885D01*
G75*
G02*
X402315I4215J-3000D01*
G01*
X403885D01*
G75*
G02*
X412315I4215J-3000D01*
G01*
X413885D01*
G75*
G02*
X422315I4215J-3000D01*
G01*
X423885D01*
G75*
G02*
X432315I4215J-3000D01*
G01*
X433885D01*
G75*
G02*
X442315I4215J-3000D01*
G01*
X443885D01*
G75*
G02*
X452315I4215J-3000D01*
G01*
X453885D01*
G75*
G02*
X462315I4215J-3000D01*
G01*
X467927D01*
Y238100D01*
X46712D01*
G75*
G02*
X34488I-6112J0D01*
G01*
X3700D01*
G37*
X478273D02*
G36*
X478273Y238100D02*
Y220600D01*
X482927D01*
Y238100D01*
X478273D01*
G37*
X493273D02*
G36*
X493273Y238100D02*
Y220600D01*
X497927D01*
Y238100D01*
X493273D01*
G37*
X508273D02*
G36*
X508273Y238100D02*
Y220600D01*
X610427D01*
Y228273D01*
X660773D01*
Y220600D01*
X661002D01*
Y227698D01*
X670198D01*
Y220600D01*
X683009D01*
G75*
G02*
X682000Y223100I2591J2500D01*
G01*
G75*
G02*
X682620Y225120I3600J0D01*
G01*
G75*
G02*
X677000Y228100I-2020J2980D01*
G01*
G75*
G02*
X683009Y230775I3600J0D01*
G01*
X731992D01*
X739317Y238100D01*
X520874D01*
G75*
G02*
X515326I-2774J5000D01*
G01*
X508273D01*
G37*
X798275Y226170D02*
G36*
X798275Y226170D02*
Y220600D01*
X811817D01*
X817751Y226534D01*
G75*
G02*
X811000Y230600I-2152J4066D01*
G01*
Y230600D01*
G75*
G02*
X815600Y235200I4600J0D01*
G01*
G75*
G02*
X820200Y230600I0J-4600D01*
G01*
G75*
G02*
X819666Y228449I-4600J0D01*
G01*
X820576Y229359D01*
G75*
G02*
X820425Y230600I5024J1242D01*
G01*
G75*
G02*
X824267Y235600I5174J0D01*
G01*
G75*
G02*
X821069Y238100I1333J5000D01*
G01*
X819461D01*
G75*
G02*
X815600Y236000I-3861J2500D01*
G01*
G75*
G02*
X811739Y238100I0J4600D01*
G01*
X810131D01*
G75*
G02*
X806933Y235600I-4531J2501D01*
G01*
G75*
G02*
X810774Y230600I-1334J-5000D01*
G01*
G75*
G02*
X805600Y225425I-5174J0D01*
G01*
G75*
G02*
X800600Y229267I0J5176D01*
G01*
G75*
G02*
X798275Y226170I-5001J1334D01*
G01*
G37*
X824359Y225576D02*
G36*
X824359Y225576D02*
X819383Y220600D01*
X862500D01*
Y238100D01*
X830131D01*
G75*
G02*
X826933Y235600I-4531J2501D01*
G01*
G75*
G02*
X830776Y230600I-1332J-5000D01*
G01*
G75*
G02*
X824359Y225576I-5175J0D01*
G01*
G37*
X3700Y245600D02*
G36*
X3700Y245600D02*
Y238100D01*
X34488D01*
G75*
G02*
X46712I6112J0D01*
G01*
X467927D01*
Y238273D01*
X478273D01*
Y238100D01*
X482927D01*
Y238273D01*
X493273D01*
Y238100D01*
X497927D01*
Y238273D01*
X508273D01*
Y238100D01*
X515326D01*
G75*
G02*
X512382Y243100I2774J5000D01*
G01*
G75*
G02*
X512957Y245600I5719J0D01*
G01*
X72696D01*
G75*
G02*
X58504I-7096J0D01*
G01*
X22696D01*
G75*
G02*
X8504I-7096J0D01*
G01*
X3700D01*
G37*
X523818Y243100D02*
G36*
X523818Y243100D02*
G75*
G02*
X520874Y238100I-5718J0D01*
G01*
X739317D01*
X746817Y245600D01*
X523243D01*
G75*
G02*
X523818Y243100I-5143J-2500D01*
G01*
G37*
X776933Y245600D02*
G36*
X776933Y245600D02*
G75*
G02*
X780600Y241933I-1333J-5000D01*
G01*
G75*
G02*
X784267Y245600I5000J-1333D01*
G01*
X776933D01*
G37*
X786933D02*
G36*
X786933Y245600D02*
G75*
G02*
X790600Y241933I-1333J-5000D01*
G01*
G75*
G02*
X794267Y245600I5000J-1333D01*
G01*
X786933D01*
G37*
X796933D02*
G36*
X796933Y245600D02*
G75*
G02*
X800600Y241933I-1333J-5000D01*
G01*
G75*
G02*
X804267Y245600I5000J-1334D01*
G01*
X796933D01*
G37*
X810775Y240600D02*
G36*
X810775Y240600D02*
G75*
G02*
X810131Y238100I-5176J0D01*
G01*
X811739D01*
G75*
G02*
X811000Y240600I3861J2500D01*
G01*
Y240600D01*
Y240600D01*
G75*
G02*
X815600Y245200I4600J0D01*
G01*
G75*
G02*
X820200Y240600I0J-4600D01*
G01*
Y240600D01*
Y240600D01*
G75*
G02*
X819461Y238100I-4600J0D01*
G01*
X821069D01*
G75*
G02*
X820425Y240600I4531J2500D01*
G01*
G75*
G02*
X824267Y245600I5175J0D01*
G01*
X806933D01*
G75*
G02*
X810775Y240600I-1333J-5000D01*
G01*
G37*
X830775D02*
G36*
X830775Y240600D02*
G75*
G02*
X830131Y238100I-5176J0D01*
G01*
X862500D01*
Y245600D01*
X826933D01*
G75*
G02*
X830775Y240600I-1333J-5000D01*
G01*
G37*
X3700Y265600D02*
G36*
X3700Y265600D02*
Y245600D01*
X8504D01*
G75*
G02*
X22696I7096J0D01*
G01*
X58504D01*
G75*
G02*
X72696I7096J0D01*
G01*
X512957D01*
G75*
G02*
X523243I5143J-2500D01*
G01*
X746817D01*
X748706Y247489D01*
G75*
G02*
X750600Y248275I1894J-1889D01*
G01*
X770600D01*
G75*
G02*
X772494Y247489I0J-2675D01*
G01*
X774359Y245624D01*
G75*
G02*
X776933Y245600I1241J-5024D01*
G01*
X784267D01*
G75*
G02*
X786933I1333J-5000D01*
G01*
X794267D01*
G75*
G02*
X796933I1333J-5000D01*
G01*
X804267D01*
G75*
G02*
X806933I1333J-5000D01*
G01*
X824267D01*
G75*
G02*
X826933I1333J-5000D01*
G01*
X862500D01*
Y265600D01*
X785775D01*
Y253009D01*
G75*
G02*
X786700Y250600I-2676J-2410D01*
G01*
G75*
G02*
X779500I-3600J0D01*
G01*
G75*
G02*
X780425Y253009I3601J0D01*
G01*
Y265600D01*
X72121D01*
G75*
G02*
X59079I-6521J0D01*
G01*
X22121D01*
G75*
G02*
X9079I-6521J0D01*
G01*
X3700D01*
G37*
Y273100D02*
G36*
X3700Y273100D02*
Y265600D01*
X9079D01*
G75*
G02*
X22121I6521J0D01*
G01*
X59079D01*
G75*
G02*
X72121I6521J0D01*
G01*
X780425D01*
Y273100D01*
X568275D01*
Y273009D01*
G75*
G02*
X569200Y270600I-2676J-2410D01*
G01*
G75*
G02*
X562000I-3600J0D01*
G01*
G75*
G02*
X562925Y273009I3601J0D01*
G01*
Y273100D01*
X555691D01*
G75*
G02*
X550509I-2591J2500D01*
G01*
X323275D01*
Y273009D01*
G75*
G02*
X324200Y270600I-2676J-2410D01*
G01*
G75*
G02*
X317000I-3600J0D01*
G01*
G75*
G02*
X317925Y273009I3601J0D01*
G01*
Y273100D01*
X310691D01*
G75*
G02*
X305509I-2591J2500D01*
G01*
X46712D01*
G75*
G02*
X34488I-6112J0D01*
G01*
X3700D01*
G37*
X785775D02*
G36*
X785775Y273100D02*
Y265600D01*
X862500D01*
Y273100D01*
X813191D01*
G75*
G02*
X808009I-2591J2500D01*
G01*
X785775D01*
G37*
X3700Y285600D02*
G36*
X3700Y285600D02*
Y273100D01*
X34488D01*
G75*
G02*
X46712I6112J0D01*
G01*
X305509D01*
G75*
G02*
X304500Y275600I2591J2500D01*
G01*
G75*
G02*
X305425Y278009I3601J0D01*
G01*
Y285600D01*
X305348D01*
Y282033D01*
X295852D01*
Y285600D01*
X85775D01*
Y283009D01*
G75*
G02*
X86700Y280600I-2676J-2410D01*
G01*
G75*
G02*
X79500I-3600J0D01*
G01*
G75*
G02*
Y280602I3609J1D01*
G01*
G75*
G02*
X79604Y281458I3583J0D01*
G01*
X70277D01*
Y285600D01*
X65775D01*
Y283009D01*
G75*
G02*
X66700Y280600I-2676J-2410D01*
G01*
G75*
G02*
X59500I-3600J0D01*
G01*
G75*
G02*
X59798Y282033I3599J0D01*
G01*
X50852D01*
Y285600D01*
X3700D01*
G37*
X60348D02*
G36*
X60348Y285600D02*
Y282921D01*
G75*
G02*
X60425Y283009I3092J-2616D01*
G01*
Y285600D01*
X60348D01*
G37*
X310775D02*
G36*
X310775Y285600D02*
Y278009D01*
G75*
G02*
X311700Y275600I-2676J-2410D01*
G01*
G75*
G02*
X310691Y273100I-3600J0D01*
G01*
X317925D01*
Y281458D01*
X315277D01*
Y285600D01*
X310775D01*
G37*
X323275Y281458D02*
G36*
X323275Y281458D02*
Y273100D01*
X550509D01*
G75*
G02*
X549500Y275600I2591J2500D01*
G01*
G75*
G02*
X550425Y278009I3601J0D01*
G01*
Y285600D01*
X550348D01*
Y282033D01*
X540852D01*
Y285600D01*
X330775D01*
Y283009D01*
G75*
G02*
X331700Y280600I-2676J-2410D01*
G01*
G75*
G02*
X324500I-3600J0D01*
G01*
G75*
G02*
Y280602I3609J1D01*
G01*
G75*
G02*
X324604Y281458I3583J0D01*
G01*
X323275D01*
G37*
X555775Y285600D02*
G36*
X555775Y285600D02*
Y278009D01*
G75*
G02*
X556700Y275600I-2676J-2410D01*
G01*
G75*
G02*
X555691Y273100I-3600J0D01*
G01*
X562925D01*
Y281458D01*
X560277D01*
Y285600D01*
X555775D01*
G37*
X568275Y281458D02*
G36*
X568275Y281458D02*
Y273100D01*
X780425D01*
Y285600D01*
X575775D01*
Y283009D01*
G75*
G02*
X576700Y280600I-2676J-2410D01*
G01*
G75*
G02*
X569500I-3600J0D01*
G01*
G75*
G02*
Y280602I3609J1D01*
G01*
G75*
G02*
X569604Y281458I3583J0D01*
G01*
X568275D01*
G37*
X785775Y285600D02*
G36*
X785775Y285600D02*
Y273100D01*
X808009D01*
G75*
G02*
X807000Y275600I2591J2500D01*
G01*
G75*
G02*
X807925Y278009I3601J0D01*
G01*
Y281458D01*
X805277D01*
Y285600D01*
X795348D01*
Y282033D01*
X785852D01*
Y285600D01*
X785775D01*
G37*
X813275Y281458D02*
G36*
X813275Y281458D02*
Y278009D01*
G75*
G02*
X814200Y275600I-2676J-2410D01*
G01*
G75*
G02*
X813191Y273100I-3600J0D01*
G01*
X862500D01*
Y285600D01*
X820775D01*
Y283009D01*
G75*
G02*
X821700Y280600I-2676J-2410D01*
G01*
G75*
G02*
X814500I-3600J0D01*
G01*
G75*
G02*
Y280602I3609J1D01*
G01*
G75*
G02*
X814604Y281458I3583J0D01*
G01*
X813275D01*
G37*
X3700Y303100D02*
G36*
X3700Y303100D02*
Y285600D01*
X50852D01*
Y289167D01*
X60348D01*
Y285600D01*
X60425D01*
Y296458D01*
X50277D01*
Y303100D01*
X31511D01*
G75*
G02*
X4689I-13411J0D01*
G01*
X3700D01*
G37*
X61550D02*
G36*
X61550Y303100D02*
G75*
G02*
X62494Y302489I-951J-2502D01*
G01*
X64989Y299994D01*
G75*
G02*
X65775Y298100I-1889J-1894D01*
G01*
Y285600D01*
X70277D01*
Y289742D01*
X80425D01*
Y296458D01*
X70277D01*
Y302140D01*
X69317Y303100D01*
X61550D01*
G37*
X81550D02*
G36*
X81550Y303100D02*
G75*
G02*
X82494Y302489I-951J-2502D01*
G01*
X84989Y299994D01*
G75*
G02*
X85775Y298100I-1889J-1894D01*
G01*
Y285600D01*
X295852D01*
Y289167D01*
X305348D01*
Y285600D01*
X305425D01*
Y296458D01*
X295277D01*
Y303100D01*
X276511D01*
G75*
G02*
X249689I-13411J0D01*
G01*
X249011D01*
G75*
G02*
X222189I-13411J0D01*
G01*
X154011D01*
G75*
G02*
X127189I-13411J0D01*
G01*
X126511D01*
G75*
G02*
X99689I-13411J0D01*
G01*
X81550D01*
G37*
X306550D02*
G36*
X306550Y303100D02*
G75*
G02*
X307494Y302489I-951J-2502D01*
G01*
X309989Y299994D01*
G75*
G02*
X310775Y298100I-1889J-1894D01*
G01*
Y285600D01*
X315277D01*
Y289742D01*
X325425D01*
Y296458D01*
X315277D01*
Y303100D01*
X306550D01*
G37*
X326550D02*
G36*
X326550Y303100D02*
G75*
G02*
X327494Y302489I-951J-2502D01*
G01*
X329989Y299994D01*
G75*
G02*
X330775Y298100I-1889J-1894D01*
G01*
Y285600D01*
X540852D01*
Y289167D01*
X550348D01*
Y285600D01*
X550425D01*
Y296458D01*
X540277D01*
Y303100D01*
X521511D01*
G75*
G02*
X494689I-13411J0D01*
G01*
X494011D01*
G75*
G02*
X467189I-13411J0D01*
G01*
X399011D01*
G75*
G02*
X372189I-13411J0D01*
G01*
X371511D01*
G75*
G02*
X344689I-13411J0D01*
G01*
X326550D01*
G37*
X551550D02*
G36*
X551550Y303100D02*
G75*
G02*
X552494Y302489I-951J-2502D01*
G01*
X554989Y299994D01*
G75*
G02*
X555775Y298100I-1889J-1894D01*
G01*
Y285600D01*
X560277D01*
Y289742D01*
X570425D01*
Y296458D01*
X560277D01*
Y303100D01*
X551550D01*
G37*
X571550D02*
G36*
X571550Y303100D02*
G75*
G02*
X572494Y302489I-951J-2502D01*
G01*
X574989Y299994D01*
G75*
G02*
X575775Y298100I-1889J-1894D01*
G01*
Y285600D01*
X780425D01*
Y298100D01*
G75*
G02*
X781211Y299994I2675J0D01*
G01*
X783706Y302489D01*
G75*
G02*
X784650Y303100I1894J-1891D01*
G01*
X766511D01*
G75*
G02*
X739689I-13411J0D01*
G01*
X739011D01*
G75*
G02*
X712189I-13411J0D01*
G01*
X644011D01*
G75*
G02*
X617189I-13411J0D01*
G01*
X616511D01*
G75*
G02*
X589689I-13411J0D01*
G01*
X571550D01*
G37*
X785775Y296458D02*
G36*
X785775Y296458D02*
Y285600D01*
X785852D01*
Y289167D01*
X795348D01*
Y285600D01*
X805277D01*
Y289742D01*
X815425D01*
Y296458D01*
X805277D01*
Y303100D01*
X795923D01*
Y296458D01*
X785775D01*
G37*
X816550Y303100D02*
G36*
X816550Y303100D02*
G75*
G02*
X817494Y302489I-951J-2502D01*
G01*
X819989Y299994D01*
G75*
G02*
X820775Y298100I-1889J-1894D01*
G01*
Y285600D01*
X862500D01*
Y303100D01*
X861511D01*
G75*
G02*
X834689I-13411J0D01*
G01*
X816550D01*
G37*
X3700Y317500D02*
G36*
X3700Y317500D02*
Y303100D01*
X4689D01*
G75*
G02*
X31511I13411J0D01*
G01*
X50277D01*
Y304742D01*
X60923D01*
Y303255D01*
G75*
G02*
X61550Y303100I-324J-2657D01*
G01*
X69317D01*
X68711Y303706D01*
G75*
G02*
X67925Y305600I1889J1894D01*
G01*
Y305675D01*
X64927D01*
Y306250D01*
X56502D01*
Y314950D01*
X64927D01*
Y315525D01*
X75273D01*
Y305675D01*
X74308D01*
X75241Y304742D01*
X80923D01*
Y303255D01*
G75*
G02*
X81550Y303100I-324J-2657D01*
G01*
X99689D01*
G75*
G02*
X126511I13411J0D01*
G01*
X127189D01*
G75*
G02*
X154011I13411J0D01*
G01*
X222189D01*
G75*
G02*
X249011I13411J0D01*
G01*
X249689D01*
G75*
G02*
X276511I13411J0D01*
G01*
X295277D01*
Y304742D01*
X305923D01*
Y303255D01*
G75*
G02*
X306550Y303100I-324J-2657D01*
G01*
X315277D01*
Y304742D01*
X317925D01*
Y305675D01*
X309927D01*
Y306250D01*
X301502D01*
Y314950D01*
X309927D01*
Y315525D01*
X320273D01*
Y312209D01*
X322489Y309994D01*
G75*
G02*
X323275Y308100I-1889J-1894D01*
G01*
Y304742D01*
X325923D01*
Y303255D01*
G75*
G02*
X326550Y303100I-324J-2657D01*
G01*
X344689D01*
G75*
G02*
X371511I13411J0D01*
G01*
X372189D01*
G75*
G02*
X399011I13411J0D01*
G01*
X467189D01*
G75*
G02*
X494011I13411J0D01*
G01*
X494689D01*
G75*
G02*
X521511I13411J0D01*
G01*
X540277D01*
Y304742D01*
X550923D01*
Y303255D01*
G75*
G02*
X551550Y303100I-324J-2657D01*
G01*
X560277D01*
Y304742D01*
X562925D01*
Y305675D01*
X554927D01*
Y306250D01*
X546502D01*
Y314950D01*
X554927D01*
Y315525D01*
X565273D01*
Y312209D01*
X567489Y309994D01*
G75*
G02*
X568275Y308100I-1889J-1894D01*
G01*
Y304742D01*
X570923D01*
Y303255D01*
G75*
G02*
X571550Y303100I-324J-2657D01*
G01*
X589689D01*
G75*
G02*
X616511I13411J0D01*
G01*
X617189D01*
G75*
G02*
X644011I13411J0D01*
G01*
X712189D01*
G75*
G02*
X739011I13411J0D01*
G01*
X739689D01*
G75*
G02*
X766511I13411J0D01*
G01*
X784650D01*
G75*
G02*
X785277Y303255I951J-2502D01*
G01*
Y304742D01*
X795923D01*
Y303100D01*
X805277D01*
Y304742D01*
X807925D01*
Y305675D01*
X799927D01*
Y306250D01*
X791502D01*
Y314950D01*
X799927D01*
Y315525D01*
X810273D01*
Y312209D01*
X812489Y309994D01*
G75*
G02*
X813275Y308100I-1889J-1894D01*
G01*
Y304742D01*
X815923D01*
Y303255D01*
G75*
G02*
X816550Y303100I-324J-2657D01*
G01*
X834689D01*
G75*
G02*
X861511I13411J0D01*
G01*
X862500D01*
Y317500D01*
X3700D01*
G37*
D02*
D73*
X368100Y163100D03*
D02*
D74*
Y193100D03*
X378100Y163100D03*
Y193100D03*
X388100Y163100D03*
Y193100D03*
X398100Y163100D03*
Y193100D03*
X408100Y163100D03*
Y193100D03*
X418100Y163100D03*
Y193100D03*
X428100Y163100D03*
Y193100D03*
X438100Y163100D03*
Y193100D03*
X448100Y163100D03*
Y193100D03*
X458100Y163100D03*
Y193100D03*
X468100Y163100D03*
Y193100D03*
X478100Y163100D03*
Y193100D03*
X488100Y163100D03*
Y193100D03*
X498100Y163100D03*
Y193100D03*
D02*
D75*
X15600Y88100D03*
Y108100D03*
Y140600D03*
Y160600D03*
Y193100D03*
Y213100D03*
Y245600D03*
Y265600D03*
X65600Y88100D03*
Y108100D03*
Y140600D03*
Y160600D03*
Y193100D03*
Y213100D03*
Y245600D03*
Y265600D03*
X620600Y175600D03*
Y195600D03*
X670600Y175600D03*
Y195600D03*
D02*
D76*
X368100Y215600D03*
X378100D03*
X388100D03*
X398100D03*
X408100D03*
X418100D03*
X428100D03*
X438100D03*
X448100D03*
X458100D03*
D02*
D77*
X178100Y120600D03*
X188100D03*
X198100D03*
X208100D03*
X218100D03*
X473100Y213100D03*
Y223100D03*
Y233100D03*
X488100Y213100D03*
Y223100D03*
Y233100D03*
X503100Y213100D03*
Y223100D03*
Y233100D03*
X558100Y185600D03*
X568100D03*
X578100D03*
X588100D03*
X615600Y223100D03*
X625600D03*
X635600D03*
X645600D03*
X655600D03*
X665600D03*
D02*
D78*
X61100Y310600D03*
X70100D03*
X306100D03*
X315100D03*
X456100Y149350D03*
X465100D03*
X551100Y310600D03*
X560100D03*
X796100D03*
X805100D03*
X827350Y134350D03*
X836350D03*
D02*
D88*
X55600Y285600D03*
Y300600D03*
X75600Y285600D03*
Y300600D03*
X300600Y285600D03*
Y300600D03*
X320600Y285600D03*
Y300600D03*
X545600Y285600D03*
Y300600D03*
X565600Y285600D03*
Y300600D03*
X790600Y285600D03*
Y300600D03*
X810600Y285600D03*
Y300600D03*
D02*
D95*
X40600Y80600D03*
Y115600D03*
Y133100D03*
Y168100D03*
Y185600D03*
Y220600D03*
Y238100D03*
Y273100D03*
X645600Y168100D03*
Y203100D03*
D02*
D96*
X316850Y149350D03*
X326850Y146850D03*
X340600D03*
X350600Y149350D03*
D02*
D125*
X518100Y203100D03*
Y243100D03*
X0Y0D02*
M02*
