G04 DesignSpark PCB Gerber Version 11.0 Build 5877*
%FSLAX35Y35*%
%MOIN*%
%ADD21C,0.00500*%
%ADD29C,0.10000*%
X0Y0D02*
D02*
D21*
X27787Y95600D02*
X28725D01*
Y95287D01*
X28413Y94663D01*
X28100Y94350D01*
X27475Y94037D01*
X26850D01*
X26225Y94350D01*
X25913Y94663D01*
X25600Y95287D01*
Y96537D01*
X25913Y97163D01*
X26225Y97475D01*
X26850Y97787D01*
X27475D01*
X28100Y97475D01*
X28413Y97163D01*
X28725Y96537D01*
X27787Y115600D02*
X28725D01*
Y115287D01*
X28413Y114663D01*
X28100Y114350D01*
X27475Y114037D01*
X26850D01*
X26225Y114350D01*
X25913Y114663D01*
X25600Y115287D01*
Y116537D01*
X25913Y117163D01*
X26225Y117475D01*
X26850Y117787D01*
X27475D01*
X28100Y117475D01*
X28413Y117163D01*
X28725Y116537D01*
X27787Y148100D02*
X28725D01*
Y147787D01*
X28413Y147163D01*
X28100Y146850D01*
X27475Y146537D01*
X26850D01*
X26225Y146850D01*
X25913Y147163D01*
X25600Y147787D01*
Y149037D01*
X25913Y149663D01*
X26225Y149975D01*
X26850Y150287D01*
X27475D01*
X28100Y149975D01*
X28413Y149663D01*
X28725Y149037D01*
X27787Y168100D02*
X28725D01*
Y167787D01*
X28413Y167163D01*
X28100Y166850D01*
X27475Y166537D01*
X26850D01*
X26225Y166850D01*
X25913Y167163D01*
X25600Y167787D01*
Y169037D01*
X25913Y169663D01*
X26225Y169975D01*
X26850Y170287D01*
X27475D01*
X28100Y169975D01*
X28413Y169663D01*
X28725Y169037D01*
X27787Y200600D02*
X28725D01*
Y200287D01*
X28413Y199663D01*
X28100Y199350D01*
X27475Y199037D01*
X26850D01*
X26225Y199350D01*
X25913Y199663D01*
X25600Y200287D01*
Y201537D01*
X25913Y202163D01*
X26225Y202475D01*
X26850Y202787D01*
X27475D01*
X28100Y202475D01*
X28413Y202163D01*
X28725Y201537D01*
X27787Y220600D02*
X28725D01*
Y220287D01*
X28413Y219663D01*
X28100Y219350D01*
X27475Y219037D01*
X26850D01*
X26225Y219350D01*
X25913Y219663D01*
X25600Y220287D01*
Y221537D01*
X25913Y222163D01*
X26225Y222475D01*
X26850Y222787D01*
X27475D01*
X28100Y222475D01*
X28413Y222163D01*
X28725Y221537D01*
X27787Y253100D02*
X28725D01*
Y252787D01*
X28413Y252163D01*
X28100Y251850D01*
X27475Y251537D01*
X26850D01*
X26225Y251850D01*
X25913Y252163D01*
X25600Y252787D01*
Y254037D01*
X25913Y254663D01*
X26225Y254975D01*
X26850Y255287D01*
X27475D01*
X28100Y254975D01*
X28413Y254663D01*
X28725Y254037D01*
X27787Y273100D02*
X28725D01*
Y272787D01*
X28413Y272163D01*
X28100Y271850D01*
X27475Y271537D01*
X26850D01*
X26225Y271850D01*
X25913Y272163D01*
X25600Y272787D01*
Y274037D01*
X25913Y274663D01*
X26225Y274975D01*
X26850Y275287D01*
X27475D01*
X28100Y274975D01*
X28413Y274663D01*
X28725Y274037D01*
X31225Y24663D02*
X30913Y24350D01*
X30287Y24037D01*
X29350D01*
X28725Y24350D01*
X28413Y24663D01*
X28100Y25287D01*
Y26537D01*
X28413Y27163D01*
X28725Y27475D01*
X29350Y27787D01*
X30287D01*
X30913Y27475D01*
X31225Y27163D01*
Y49663D02*
X30913Y49350D01*
X30287Y49037D01*
X29350D01*
X28725Y49350D01*
X28413Y49663D01*
X28100Y50287D01*
Y51537D01*
X28413Y52163D01*
X28725Y52475D01*
X29350Y52787D01*
X30287D01*
X30913Y52475D01*
X31225Y52163D01*
Y309663D02*
X30913Y309350D01*
X30287Y309037D01*
X29350D01*
X28725Y309350D01*
X28413Y309663D01*
X28100Y310287D01*
Y311537D01*
X28413Y312163D01*
X28725Y312475D01*
X29350Y312787D01*
X30287D01*
X30913Y312475D01*
X31225Y312163D01*
X50600Y86537D02*
Y90287D01*
Y88413D02*
X53725D01*
Y86537D02*
Y90287D01*
X50600Y121537D02*
Y125287D01*
Y123413D02*
X53725D01*
Y121537D02*
Y125287D01*
X50600Y139037D02*
Y142787D01*
Y140913D02*
X53725D01*
Y139037D02*
Y142787D01*
X50600Y174037D02*
Y177787D01*
Y175913D02*
X53725D01*
Y174037D02*
Y177787D01*
X50600Y191537D02*
Y195287D01*
Y193413D02*
X53725D01*
Y191537D02*
Y195287D01*
X50600Y226537D02*
Y230287D01*
Y228413D02*
X53725D01*
Y226537D02*
Y230287D01*
X50600Y244037D02*
Y247787D01*
Y245913D02*
X53725D01*
Y244037D02*
Y247787D01*
X50600Y279037D02*
Y282787D01*
Y280913D02*
X53725D01*
Y279037D02*
Y282787D01*
X62787Y45913D02*
X63413Y45600D01*
X63725Y44975D01*
X63413Y44350D01*
X62787Y44037D01*
X60600D01*
Y47787D01*
X62787D01*
X63413Y47475D01*
X63725Y46850D01*
X63413Y46225D01*
X62787Y45913D01*
X60600D01*
X62787Y55913D02*
X63413Y55600D01*
X63725Y54975D01*
X63413Y54350D01*
X62787Y54037D01*
X60600D01*
Y57787D01*
X62787D01*
X63413Y57475D01*
X63725Y56850D01*
X63413Y56225D01*
X62787Y55913D01*
X60600D01*
X72787Y45913D02*
X73413Y45600D01*
X73725Y44975D01*
X73413Y44350D01*
X72787Y44037D01*
X70600D01*
Y47787D01*
X72787D01*
X73413Y47475D01*
X73725Y46850D01*
X73413Y46225D01*
X72787Y45913D01*
X70600D01*
X72787Y55913D02*
X73413Y55600D01*
X73725Y54975D01*
X73413Y54350D01*
X72787Y54037D01*
X70600D01*
Y57787D01*
X72787D01*
X73413Y57475D01*
X73725Y56850D01*
X73413Y56225D01*
X72787Y55913D01*
X70600D01*
Y76537D02*
X72163Y80287D01*
X73725Y76537D01*
X71225Y78100D02*
X73100D01*
Y286537D02*
X74663Y290287D01*
X76225Y286537D01*
X73725Y288100D02*
X75600D01*
Y71537D02*
X77163Y75287D01*
X78725Y71537D01*
X76225Y73100D02*
X78100D01*
X77787Y95600D02*
X78725D01*
Y95287D01*
X78413Y94663D01*
X78100Y94350D01*
X77475Y94037D01*
X76850D01*
X76225Y94350D01*
X75913Y94663D01*
X75600Y95287D01*
Y96537D01*
X75913Y97163D01*
X76225Y97475D01*
X76850Y97787D01*
X77475D01*
X78100Y97475D01*
X78413Y97163D01*
X78725Y96537D01*
X77787Y115600D02*
X78725D01*
Y115287D01*
X78413Y114663D01*
X78100Y114350D01*
X77475Y114037D01*
X76850D01*
X76225Y114350D01*
X75913Y114663D01*
X75600Y115287D01*
Y116537D01*
X75913Y117163D01*
X76225Y117475D01*
X76850Y117787D01*
X77475D01*
X78100Y117475D01*
X78413Y117163D01*
X78725Y116537D01*
X77787Y148100D02*
X78725D01*
Y147787D01*
X78413Y147163D01*
X78100Y146850D01*
X77475Y146537D01*
X76850D01*
X76225Y146850D01*
X75913Y147163D01*
X75600Y147787D01*
Y149037D01*
X75913Y149663D01*
X76225Y149975D01*
X76850Y150287D01*
X77475D01*
X78100Y149975D01*
X78413Y149663D01*
X78725Y149037D01*
X77787Y168100D02*
X78725D01*
Y167787D01*
X78413Y167163D01*
X78100Y166850D01*
X77475Y166537D01*
X76850D01*
X76225Y166850D01*
X75913Y167163D01*
X75600Y167787D01*
Y169037D01*
X75913Y169663D01*
X76225Y169975D01*
X76850Y170287D01*
X77475D01*
X78100Y169975D01*
X78413Y169663D01*
X78725Y169037D01*
X77787Y200600D02*
X78725D01*
Y200287D01*
X78413Y199663D01*
X78100Y199350D01*
X77475Y199037D01*
X76850D01*
X76225Y199350D01*
X75913Y199663D01*
X75600Y200287D01*
Y201537D01*
X75913Y202163D01*
X76225Y202475D01*
X76850Y202787D01*
X77475D01*
X78100Y202475D01*
X78413Y202163D01*
X78725Y201537D01*
X77787Y220600D02*
X78725D01*
Y220287D01*
X78413Y219663D01*
X78100Y219350D01*
X77475Y219037D01*
X76850D01*
X76225Y219350D01*
X75913Y219663D01*
X75600Y220287D01*
Y221537D01*
X75913Y222163D01*
X76225Y222475D01*
X76850Y222787D01*
X77475D01*
X78100Y222475D01*
X78413Y222163D01*
X78725Y221537D01*
X77787Y253100D02*
X78725D01*
Y252787D01*
X78413Y252163D01*
X78100Y251850D01*
X77475Y251537D01*
X76850D01*
X76225Y251850D01*
X75913Y252163D01*
X75600Y252787D01*
Y254037D01*
X75913Y254663D01*
X76225Y254975D01*
X76850Y255287D01*
X77475D01*
X78100Y254975D01*
X78413Y254663D01*
X78725Y254037D01*
X77787Y273100D02*
X78725D01*
Y272787D01*
X78413Y272163D01*
X78100Y271850D01*
X77475Y271537D01*
X76850D01*
X76225Y271850D01*
X75913Y272163D01*
X75600Y272787D01*
Y274037D01*
X75913Y274663D01*
X76225Y274975D01*
X76850Y275287D01*
X77475D01*
X78100Y274975D01*
X78413Y274663D01*
X78725Y274037D01*
X82787Y45913D02*
X83413Y45600D01*
X83725Y44975D01*
X83413Y44350D01*
X82787Y44037D01*
X80600D01*
Y47787D01*
X82787D01*
X83413Y47475D01*
X83725Y46850D01*
X83413Y46225D01*
X82787Y45913D01*
X80600D01*
X82787Y55913D02*
X83413Y55600D01*
X83725Y54975D01*
X83413Y54350D01*
X82787Y54037D01*
X80600D01*
Y57787D01*
X82787D01*
X83413Y57475D01*
X83725Y56850D01*
X83413Y56225D01*
X82787Y55913D01*
X80600D01*
X85600Y81537D02*
X87163Y85287D01*
X88725Y81537D01*
X86225Y83100D02*
X88100D01*
X85600Y91537D02*
X87163Y95287D01*
X88725Y91537D01*
X86225Y93100D02*
X88100D01*
X92787Y45913D02*
X93413Y45600D01*
X93725Y44975D01*
X93413Y44350D01*
X92787Y44037D01*
X90600D01*
Y47787D01*
X92787D01*
X93413Y47475D01*
X93725Y46850D01*
X93413Y46225D01*
X92787Y45913D01*
X90600D01*
X92787Y55913D02*
X93413Y55600D01*
X93725Y54975D01*
X93413Y54350D01*
X92787Y54037D01*
X90600D01*
Y57787D01*
X92787D01*
X93413Y57475D01*
X93725Y56850D01*
X93413Y56225D01*
X92787Y55913D01*
X90600D01*
Y86537D02*
X92163Y90287D01*
X93725Y86537D01*
X91225Y88100D02*
X93100D01*
Y286537D02*
X94663Y290287D01*
X96225Y286537D01*
X93725Y288100D02*
X95600D01*
Y96537D02*
X97163Y100287D01*
X98725Y96537D01*
X96225Y98100D02*
X98100D01*
X126225Y49663D02*
X125913Y49350D01*
X125287Y49037D01*
X124350D01*
X123725Y49350D01*
X123413Y49663D01*
X123100Y50287D01*
Y51537D01*
X123413Y52163D01*
X123725Y52475D01*
X124350Y52787D01*
X125287D01*
X125913Y52475D01*
X126225Y52163D01*
Y309663D02*
X125913Y309350D01*
X125287Y309037D01*
X124350D01*
X123725Y309350D01*
X123413Y309663D01*
X123100Y310287D01*
Y311537D01*
X123413Y312163D01*
X123725Y312475D01*
X124350Y312787D01*
X125287D01*
X125913Y312475D01*
X126225Y312163D01*
X153725Y49663D02*
X153413Y49350D01*
X152787Y49037D01*
X151850D01*
X151225Y49350D01*
X150913Y49663D01*
X150600Y50287D01*
Y51537D01*
X150913Y52163D01*
X151225Y52475D01*
X151850Y52787D01*
X152787D01*
X153413Y52475D01*
X153725Y52163D01*
Y309663D02*
X153413Y309350D01*
X152787Y309037D01*
X151850D01*
X151225Y309350D01*
X150913Y309663D01*
X150600Y310287D01*
Y311537D01*
X150913Y312163D01*
X151225Y312475D01*
X151850Y312787D01*
X152787D01*
X153413Y312475D01*
X153725Y312163D01*
X185287Y45913D02*
X185913Y45600D01*
X186225Y44975D01*
X185913Y44350D01*
X185287Y44037D01*
X183100D01*
Y47787D01*
X185287D01*
X185913Y47475D01*
X186225Y46850D01*
X185913Y46225D01*
X185287Y45913D01*
X183100D01*
X185287Y55913D02*
X185913Y55600D01*
X186225Y54975D01*
X185913Y54350D01*
X185287Y54037D01*
X183100D01*
Y57787D01*
X185287D01*
X185913Y57475D01*
X186225Y56850D01*
X185913Y56225D01*
X185287Y55913D01*
X183100D01*
Y66537D02*
X184663Y70287D01*
X186225Y66537D01*
X183725Y68100D02*
X185600D01*
X188100Y71537D02*
X189663Y75287D01*
X191225Y71537D01*
X188725Y73100D02*
X190600D01*
X188100Y71537D02*
X189663Y75287D01*
X191225Y71537D01*
X188725Y73100D02*
X190600D01*
X190287Y128413D02*
X190913Y128100D01*
X191225Y127475D01*
X190913Y126850D01*
X190287Y126537D01*
X188100D01*
Y130287D01*
X190287D01*
X190913Y129975D01*
X191225Y129350D01*
X190913Y128725D01*
X190287Y128413D01*
X188100D01*
X195287Y45913D02*
X195913Y45600D01*
X196225Y44975D01*
X195913Y44350D01*
X195287Y44037D01*
X193100D01*
Y47787D01*
X195287D01*
X195913Y47475D01*
X196225Y46850D01*
X195913Y46225D01*
X195287Y45913D01*
X193100D01*
X195287Y55913D02*
X195913Y55600D01*
X196225Y54975D01*
X195913Y54350D01*
X195287Y54037D01*
X193100D01*
Y57787D01*
X195287D01*
X195913Y57475D01*
X196225Y56850D01*
X195913Y56225D01*
X195287Y55913D01*
X193100D01*
Y76537D02*
X194663Y80287D01*
X196225Y76537D01*
X193725Y78100D02*
X195600D01*
X198100Y81537D02*
X199663Y85287D01*
X201225Y81537D01*
X198725Y83100D02*
X200600D01*
X200287Y128413D02*
X200913Y128100D01*
X201225Y127475D01*
X200913Y126850D01*
X200287Y126537D01*
X198100D01*
Y130287D01*
X200287D01*
X200913Y129975D01*
X201225Y129350D01*
X200913Y128725D01*
X200287Y128413D01*
X198100D01*
X205287Y45913D02*
X205913Y45600D01*
X206225Y44975D01*
X205913Y44350D01*
X205287Y44037D01*
X203100D01*
Y47787D01*
X205287D01*
X205913Y47475D01*
X206225Y46850D01*
X205913Y46225D01*
X205287Y45913D01*
X203100D01*
X205287Y55913D02*
X205913Y55600D01*
X206225Y54975D01*
X205913Y54350D01*
X205287Y54037D01*
X203100D01*
Y57787D01*
X205287D01*
X205913Y57475D01*
X206225Y56850D01*
X205913Y56225D01*
X205287Y55913D01*
X203100D01*
Y96537D02*
X204663Y100287D01*
X206225Y96537D01*
X203725Y98100D02*
X205600D01*
X208100Y101537D02*
X209663Y105287D01*
X211225Y101537D01*
X208725Y103100D02*
X210600D01*
X210287Y128413D02*
X210913Y128100D01*
X211225Y127475D01*
X210913Y126850D01*
X210287Y126537D01*
X208100D01*
Y130287D01*
X210287D01*
X210913Y129975D01*
X211225Y129350D01*
X210913Y128725D01*
X210287Y128413D01*
X208100D01*
X215287Y45913D02*
X215913Y45600D01*
X216225Y44975D01*
X215913Y44350D01*
X215287Y44037D01*
X213100D01*
Y47787D01*
X215287D01*
X215913Y47475D01*
X216225Y46850D01*
X215913Y46225D01*
X215287Y45913D01*
X213100D01*
X215287Y55913D02*
X215913Y55600D01*
X216225Y54975D01*
X215913Y54350D01*
X215287Y54037D01*
X213100D01*
Y57787D01*
X215287D01*
X215913Y57475D01*
X216225Y56850D01*
X215913Y56225D01*
X215287Y55913D01*
X213100D01*
Y86537D02*
X214663Y90287D01*
X216225Y86537D01*
X213725Y88100D02*
X215600D01*
X218100Y76537D02*
X219663Y80287D01*
X221225Y76537D01*
X218725Y78100D02*
X220600D01*
X220287Y128413D02*
X220913Y128100D01*
X221225Y127475D01*
X220913Y126850D01*
X220287Y126537D01*
X218100D01*
Y130287D01*
X220287D01*
X220913Y129975D01*
X221225Y129350D01*
X220913Y128725D01*
X220287Y128413D01*
X218100D01*
X230287D02*
X230913Y128100D01*
X231225Y127475D01*
X230913Y126850D01*
X230287Y126537D01*
X228100D01*
Y130287D01*
X230287D01*
X230913Y129975D01*
X231225Y129350D01*
X230913Y128725D01*
X230287Y128413D01*
X228100D01*
X248725Y49663D02*
X248413Y49350D01*
X247787Y49037D01*
X246850D01*
X246225Y49350D01*
X245913Y49663D01*
X245600Y50287D01*
Y51537D01*
X245913Y52163D01*
X246225Y52475D01*
X246850Y52787D01*
X247787D01*
X248413Y52475D01*
X248725Y52163D01*
Y309663D02*
X248413Y309350D01*
X247787Y309037D01*
X246850D01*
X246225Y309350D01*
X245913Y309663D01*
X245600Y310287D01*
Y311537D01*
X245913Y312163D01*
X246225Y312475D01*
X246850Y312787D01*
X247787D01*
X248413Y312475D01*
X248725Y312163D01*
X276225Y49663D02*
X275913Y49350D01*
X275287Y49037D01*
X274350D01*
X273725Y49350D01*
X273413Y49663D01*
X273100Y50287D01*
Y51537D01*
X273413Y52163D01*
X273725Y52475D01*
X274350Y52787D01*
X275287D01*
X275913Y52475D01*
X276225Y52163D01*
Y309663D02*
X275913Y309350D01*
X275287Y309037D01*
X274350D01*
X273725Y309350D01*
X273413Y309663D01*
X273100Y310287D01*
Y311537D01*
X273413Y312163D01*
X273725Y312475D01*
X274350Y312787D01*
X275287D01*
X275913Y312475D01*
X276225Y312163D01*
X307787Y45913D02*
X308413Y45600D01*
X308725Y44975D01*
X308413Y44350D01*
X307787Y44037D01*
X305600D01*
Y47787D01*
X307787D01*
X308413Y47475D01*
X308725Y46850D01*
X308413Y46225D01*
X307787Y45913D01*
X305600D01*
X307787Y55913D02*
X308413Y55600D01*
X308725Y54975D01*
X308413Y54350D01*
X307787Y54037D01*
X305600D01*
Y57787D01*
X307787D01*
X308413Y57475D01*
X308725Y56850D01*
X308413Y56225D01*
X307787Y55913D01*
X305600D01*
X310600Y71537D02*
X312163Y75287D01*
X313725Y71537D01*
X311225Y73100D02*
X313100D01*
X317787Y45913D02*
X318413Y45600D01*
X318725Y44975D01*
X318413Y44350D01*
X317787Y44037D01*
X315600D01*
Y47787D01*
X317787D01*
X318413Y47475D01*
X318725Y46850D01*
X318413Y46225D01*
X317787Y45913D01*
X315600D01*
X317787Y55913D02*
X318413Y55600D01*
X318725Y54975D01*
X318413Y54350D01*
X317787Y54037D01*
X315600D01*
Y57787D01*
X317787D01*
X318413Y57475D01*
X318725Y56850D01*
X318413Y56225D01*
X317787Y55913D01*
X315600D01*
Y76537D02*
X317163Y80287D01*
X318725Y76537D01*
X316225Y78100D02*
X318100D01*
Y281537D02*
X319663Y285287D01*
X321225Y281537D01*
X318725Y283100D02*
X320600D01*
Y81537D02*
X322163Y85287D01*
X323725Y81537D01*
X321225Y83100D02*
X323100D01*
X327787Y45913D02*
X328413Y45600D01*
X328725Y44975D01*
X328413Y44350D01*
X327787Y44037D01*
X325600D01*
Y47787D01*
X327787D01*
X328413Y47475D01*
X328725Y46850D01*
X328413Y46225D01*
X327787Y45913D01*
X325600D01*
X327787Y55913D02*
X328413Y55600D01*
X328725Y54975D01*
X328413Y54350D01*
X327787Y54037D01*
X325600D01*
Y57787D01*
X327787D01*
X328413Y57475D01*
X328725Y56850D01*
X328413Y56225D01*
X327787Y55913D01*
X325600D01*
Y106537D02*
X327163Y110287D01*
X328725Y106537D01*
X326225Y108100D02*
X328100D01*
X327787Y155287D02*
X329037D01*
X328413D02*
Y159037D01*
X327787D02*
X329037D01*
X330600Y101537D02*
X332163Y105287D01*
X333725Y101537D01*
X331225Y103100D02*
X333100D01*
X330600Y276537D02*
X332163Y280287D01*
X333725Y276537D01*
X331225Y278100D02*
X333100D01*
X337787Y45913D02*
X338413Y45600D01*
X338725Y44975D01*
X338413Y44350D01*
X337787Y44037D01*
X335600D01*
Y47787D01*
X337787D01*
X338413Y47475D01*
X338725Y46850D01*
X338413Y46225D01*
X337787Y45913D01*
X335600D01*
X337787Y55913D02*
X338413Y55600D01*
X338725Y54975D01*
X338413Y54350D01*
X337787Y54037D01*
X335600D01*
Y57787D01*
X337787D01*
X338413Y57475D01*
X338725Y56850D01*
X338413Y56225D01*
X337787Y55913D01*
X335600D01*
Y86537D02*
X337163Y90287D01*
X338725Y86537D01*
X336225Y88100D02*
X338100D01*
X337787Y152787D02*
X339037D01*
X338413D02*
Y156537D01*
X337787D02*
X339037D01*
X336850Y236537D02*
X338413Y240287D01*
X339975Y236537D01*
X337475Y238100D02*
X339350D01*
X338100Y286537D02*
X339663Y290287D01*
X341225Y286537D01*
X338725Y288100D02*
X340600D01*
X351537Y152787D02*
X352787D01*
X352163D02*
Y156537D01*
X351537D02*
X352787D01*
X361537Y155287D02*
X362787D01*
X362163D02*
Y159037D01*
X361537D02*
X362787D01*
X371225Y49663D02*
X370913Y49350D01*
X370287Y49037D01*
X369350D01*
X368725Y49350D01*
X368413Y49663D01*
X368100Y50287D01*
Y51537D01*
X368413Y52163D01*
X368725Y52475D01*
X369350Y52787D01*
X370287D01*
X370913Y52475D01*
X371225Y52163D01*
Y309663D02*
X370913Y309350D01*
X370287Y309037D01*
X369350D01*
X368725Y309350D01*
X368413Y309663D01*
X368100Y310287D01*
Y311537D01*
X368413Y312163D01*
X368725Y312475D01*
X369350Y312787D01*
X370287D01*
X370913Y312475D01*
X371225Y312163D01*
X378100Y96537D02*
X379663Y100287D01*
X381225Y96537D01*
X378725Y98100D02*
X380600D01*
X378100Y169037D02*
Y172787D01*
X381225D01*
X380600Y170913D02*
X378100D01*
Y169037D02*
X381225D01*
X378100Y199037D02*
Y202787D01*
X381225D01*
X380600Y200913D02*
X378100D01*
Y199037D02*
X381225D01*
X378100Y221537D02*
Y225287D01*
X381225D01*
X380600Y223413D02*
X378100D01*
X388100Y91537D02*
X389663Y95287D01*
X391225Y91537D01*
X388725Y93100D02*
X390600D01*
X388100Y169037D02*
Y172787D01*
X391225D01*
X390600Y170913D02*
X388100D01*
Y169037D02*
X391225D01*
X388100Y199037D02*
Y202787D01*
X391225D01*
X390600Y200913D02*
X388100D01*
Y199037D02*
X391225D01*
X388100Y221537D02*
Y225287D01*
X391225D01*
X390600Y223413D02*
X388100D01*
X398725Y24663D02*
X398413Y24350D01*
X397787Y24037D01*
X396850D01*
X396225Y24350D01*
X395913Y24663D01*
X395600Y25287D01*
Y26537D01*
X395913Y27163D01*
X396225Y27475D01*
X396850Y27787D01*
X397787D01*
X398413Y27475D01*
X398725Y27163D01*
Y49663D02*
X398413Y49350D01*
X397787Y49037D01*
X396850D01*
X396225Y49350D01*
X395913Y49663D01*
X395600Y50287D01*
Y51537D01*
X395913Y52163D01*
X396225Y52475D01*
X396850Y52787D01*
X397787D01*
X398413Y52475D01*
X398725Y52163D01*
Y309663D02*
X398413Y309350D01*
X397787Y309037D01*
X396850D01*
X396225Y309350D01*
X395913Y309663D01*
X395600Y310287D01*
Y311537D01*
X395913Y312163D01*
X396225Y312475D01*
X396850Y312787D01*
X397787D01*
X398413Y312475D01*
X398725Y312163D01*
X398100Y86537D02*
X399663Y90287D01*
X401225Y86537D01*
X398725Y88100D02*
X400600D01*
X398100Y169037D02*
Y172787D01*
X401225D01*
X400600Y170913D02*
X398100D01*
Y169037D02*
X401225D01*
X398100Y199037D02*
Y202787D01*
X401225D01*
X400600Y200913D02*
X398100D01*
Y199037D02*
X401225D01*
X398100Y221537D02*
Y225287D01*
X401225D01*
X400600Y223413D02*
X398100D01*
X408100Y169037D02*
Y172787D01*
X411225D01*
X410600Y170913D02*
X408100D01*
Y169037D02*
X411225D01*
X408100Y199037D02*
Y202787D01*
X411225D01*
X410600Y200913D02*
X408100D01*
Y199037D02*
X411225D01*
X408100Y221537D02*
Y225287D01*
X411225D01*
X410600Y223413D02*
X408100D01*
X418100Y86537D02*
X419663Y90287D01*
X421225Y86537D01*
X418725Y88100D02*
X420600D01*
X418100Y169037D02*
Y172787D01*
X421225D01*
X420600Y170913D02*
X418100D01*
Y169037D02*
X421225D01*
X418100Y199037D02*
Y202787D01*
X421225D01*
X420600Y200913D02*
X418100D01*
Y199037D02*
X421225D01*
X418100Y221537D02*
Y225287D01*
X421225D01*
X420600Y223413D02*
X418100D01*
X430287Y45913D02*
X430913Y45600D01*
X431225Y44975D01*
X430913Y44350D01*
X430287Y44037D01*
X428100D01*
Y47787D01*
X430287D01*
X430913Y47475D01*
X431225Y46850D01*
X430913Y46225D01*
X430287Y45913D01*
X428100D01*
X430287Y55913D02*
X430913Y55600D01*
X431225Y54975D01*
X430913Y54350D01*
X430287Y54037D01*
X428100D01*
Y57787D01*
X430287D01*
X430913Y57475D01*
X431225Y56850D01*
X430913Y56225D01*
X430287Y55913D01*
X428100D01*
Y91537D02*
X429663Y95287D01*
X431225Y91537D01*
X428725Y93100D02*
X430600D01*
X428100Y169037D02*
Y172787D01*
X431225D01*
X430600Y170913D02*
X428100D01*
Y169037D02*
X431225D01*
X428100Y199037D02*
Y202787D01*
X431225D01*
X430600Y200913D02*
X428100D01*
Y199037D02*
X431225D01*
X428100Y221537D02*
Y225287D01*
X431225D01*
X430600Y223413D02*
X428100D01*
X433100Y71537D02*
X434663Y75287D01*
X436225Y71537D01*
X433725Y73100D02*
X435600D01*
X440287Y45913D02*
X440913Y45600D01*
X441225Y44975D01*
X440913Y44350D01*
X440287Y44037D01*
X438100D01*
Y47787D01*
X440287D01*
X440913Y47475D01*
X441225Y46850D01*
X440913Y46225D01*
X440287Y45913D01*
X438100D01*
X440287Y55913D02*
X440913Y55600D01*
X441225Y54975D01*
X440913Y54350D01*
X440287Y54037D01*
X438100D01*
Y57787D01*
X440287D01*
X440913Y57475D01*
X441225Y56850D01*
X440913Y56225D01*
X440287Y55913D01*
X438100D01*
Y76537D02*
X439663Y80287D01*
X441225Y76537D01*
X438725Y78100D02*
X440600D01*
X438100Y96537D02*
X439663Y100287D01*
X441225Y96537D01*
X438725Y98100D02*
X440600D01*
X438100Y169037D02*
Y172787D01*
X441225D01*
X440600Y170913D02*
X438100D01*
Y169037D02*
X441225D01*
X438100Y199037D02*
Y202787D01*
X441225D01*
X440600Y200913D02*
X438100D01*
Y199037D02*
X441225D01*
X438100Y221537D02*
Y225287D01*
X441225D01*
X440600Y223413D02*
X438100D01*
X443100Y81537D02*
X444663Y85287D01*
X446225Y81537D01*
X443725Y83100D02*
X445600D01*
X450287Y45913D02*
X450913Y45600D01*
X451225Y44975D01*
X450913Y44350D01*
X450287Y44037D01*
X448100D01*
Y47787D01*
X450287D01*
X450913Y47475D01*
X451225Y46850D01*
X450913Y46225D01*
X450287Y45913D01*
X448100D01*
X450287Y55913D02*
X450913Y55600D01*
X451225Y54975D01*
X450913Y54350D01*
X450287Y54037D01*
X448100D01*
Y57787D01*
X450287D01*
X450913Y57475D01*
X451225Y56850D01*
X450913Y56225D01*
X450287Y55913D01*
X448100D01*
Y101537D02*
X449663Y105287D01*
X451225Y101537D01*
X448725Y103100D02*
X450600D01*
X448100Y169037D02*
Y172787D01*
X451225D01*
X450600Y170913D02*
X448100D01*
Y169037D02*
X451225D01*
X448100Y199037D02*
Y202787D01*
X451225D01*
X450600Y200913D02*
X448100D01*
Y199037D02*
X451225D01*
X448100Y221537D02*
Y225287D01*
X451225D01*
X450600Y223413D02*
X448100D01*
X453100Y106537D02*
X454663Y110287D01*
X456225Y106537D01*
X453725Y108100D02*
X455600D01*
X460287Y45913D02*
X460913Y45600D01*
X461225Y44975D01*
X460913Y44350D01*
X460287Y44037D01*
X458100D01*
Y47787D01*
X460287D01*
X460913Y47475D01*
X461225Y46850D01*
X460913Y46225D01*
X460287Y45913D01*
X458100D01*
X460287Y55913D02*
X460913Y55600D01*
X461225Y54975D01*
X460913Y54350D01*
X460287Y54037D01*
X458100D01*
Y57787D01*
X460287D01*
X460913Y57475D01*
X461225Y56850D01*
X460913Y56225D01*
X460287Y55913D01*
X458100D01*
Y66537D02*
X459663Y70287D01*
X461225Y66537D01*
X458725Y68100D02*
X460600D01*
X458100Y155287D02*
X459663Y159037D01*
X461225Y155287D01*
X458725Y156850D02*
X460600D01*
X458100Y169037D02*
Y172787D01*
X461225D01*
X460600Y170913D02*
X458100D01*
Y169037D02*
X461225D01*
X458100Y199037D02*
Y202787D01*
X461225D01*
X460600Y200913D02*
X458100D01*
Y199037D02*
X461225D01*
X458100Y221537D02*
Y225287D01*
X461225D01*
X460600Y223413D02*
X458100D01*
X468100Y169037D02*
Y172787D01*
X471225D01*
X470600Y170913D02*
X468100D01*
Y169037D02*
X471225D01*
X468100Y199037D02*
Y202787D01*
X471225D01*
X470600Y200913D02*
X468100D01*
Y199037D02*
X471225D01*
X468100Y221537D02*
Y225287D01*
X471225D01*
X470600Y223413D02*
X468100D01*
X478100Y169037D02*
Y172787D01*
X481225D01*
X480600Y170913D02*
X478100D01*
Y169037D02*
X481225D01*
X478100Y199037D02*
Y202787D01*
X481225D01*
X480600Y200913D02*
X478100D01*
Y199037D02*
X481225D01*
X485287Y220913D02*
X485913Y220600D01*
X486225Y219975D01*
X485913Y219350D01*
X485287Y219037D01*
X483100D01*
Y222787D01*
X485287D01*
X485913Y222475D01*
X486225Y221850D01*
X485913Y221225D01*
X485287Y220913D01*
X483100D01*
X485287Y230913D02*
X485913Y230600D01*
X486225Y229975D01*
X485913Y229350D01*
X485287Y229037D01*
X483100D01*
Y232787D01*
X485287D01*
X485913Y232475D01*
X486225Y231850D01*
X485913Y231225D01*
X485287Y230913D01*
X483100D01*
X485287Y240913D02*
X485913Y240600D01*
X486225Y239975D01*
X485913Y239350D01*
X485287Y239037D01*
X483100D01*
Y242787D01*
X485287D01*
X485913Y242475D01*
X486225Y241850D01*
X485913Y241225D01*
X485287Y240913D01*
X483100D01*
X488100Y141537D02*
X489663Y145287D01*
X491225Y141537D01*
X488725Y143100D02*
X490600D01*
X488100Y169037D02*
Y172787D01*
X491225D01*
X490600Y170913D02*
X488100D01*
Y169037D02*
X491225D01*
X488100Y199037D02*
Y202787D01*
X491225D01*
X490600Y200913D02*
X488100D01*
Y199037D02*
X491225D01*
X493725Y24663D02*
X493413Y24350D01*
X492787Y24037D01*
X491850D01*
X491225Y24350D01*
X490913Y24663D01*
X490600Y25287D01*
Y26537D01*
X490913Y27163D01*
X491225Y27475D01*
X491850Y27787D01*
X492787D01*
X493413Y27475D01*
X493725Y27163D01*
Y49663D02*
X493413Y49350D01*
X492787Y49037D01*
X491850D01*
X491225Y49350D01*
X490913Y49663D01*
X490600Y50287D01*
Y51537D01*
X490913Y52163D01*
X491225Y52475D01*
X491850Y52787D01*
X492787D01*
X493413Y52475D01*
X493725Y52163D01*
Y309663D02*
X493413Y309350D01*
X492787Y309037D01*
X491850D01*
X491225Y309350D01*
X490913Y309663D01*
X490600Y310287D01*
Y311537D01*
X490913Y312163D01*
X491225Y312475D01*
X491850Y312787D01*
X492787D01*
X493413Y312475D01*
X493725Y312163D01*
X498100Y141537D02*
X499663Y145287D01*
X501225Y141537D01*
X498725Y143100D02*
X500600D01*
X498100Y169037D02*
Y172787D01*
X501225D01*
X500600Y170913D02*
X498100D01*
Y169037D02*
X501225D01*
X498100Y199037D02*
Y202787D01*
X501225D01*
X500600Y200913D02*
X498100D01*
Y199037D02*
X501225D01*
X500287Y220913D02*
X500913Y220600D01*
X501225Y219975D01*
X500913Y219350D01*
X500287Y219037D01*
X498100D01*
Y222787D01*
X500287D01*
X500913Y222475D01*
X501225Y221850D01*
X500913Y221225D01*
X500287Y220913D01*
X498100D01*
X500287Y230913D02*
X500913Y230600D01*
X501225Y229975D01*
X500913Y229350D01*
X500287Y229037D01*
X498100D01*
Y232787D01*
X500287D01*
X500913Y232475D01*
X501225Y231850D01*
X500913Y231225D01*
X500287Y230913D01*
X498100D01*
X500287Y240913D02*
X500913Y240600D01*
X501225Y239975D01*
X500913Y239350D01*
X500287Y239037D01*
X498100D01*
Y242787D01*
X500287D01*
X500913Y242475D01*
X501225Y241850D01*
X500913Y241225D01*
X500287Y240913D01*
X498100D01*
X508100Y169037D02*
Y172787D01*
X511225D01*
X510600Y170913D02*
X508100D01*
Y169037D02*
X511225D01*
X508100Y199037D02*
Y202787D01*
X511225D01*
X510600Y200913D02*
X508100D01*
Y199037D02*
X511225D01*
X515287Y220913D02*
X515913Y220600D01*
X516225Y219975D01*
X515913Y219350D01*
X515287Y219037D01*
X513100D01*
Y222787D01*
X515287D01*
X515913Y222475D01*
X516225Y221850D01*
X515913Y221225D01*
X515287Y220913D01*
X513100D01*
X515287Y230913D02*
X515913Y230600D01*
X516225Y229975D01*
X515913Y229350D01*
X515287Y229037D01*
X513100D01*
Y232787D01*
X515287D01*
X515913Y232475D01*
X516225Y231850D01*
X515913Y231225D01*
X515287Y230913D01*
X513100D01*
X515287Y240913D02*
X515913Y240600D01*
X516225Y239975D01*
X515913Y239350D01*
X515287Y239037D01*
X513100D01*
Y242787D01*
X515287D01*
X515913Y242475D01*
X516225Y241850D01*
X515913Y241225D01*
X515287Y240913D01*
X513100D01*
X521225Y49663D02*
X520913Y49350D01*
X520287Y49037D01*
X519350D01*
X518725Y49350D01*
X518413Y49663D01*
X518100Y50287D01*
Y51537D01*
X518413Y52163D01*
X518725Y52475D01*
X519350Y52787D01*
X520287D01*
X520913Y52475D01*
X521225Y52163D01*
Y309663D02*
X520913Y309350D01*
X520287Y309037D01*
X519350D01*
X518725Y309350D01*
X518413Y309663D01*
X518100Y310287D01*
Y311537D01*
X518413Y312163D01*
X518725Y312475D01*
X519350Y312787D01*
X520287D01*
X520913Y312475D01*
X521225Y312163D01*
X528100Y209037D02*
Y212787D01*
X529975D01*
X530600Y212475D01*
X530913Y212163D01*
X531225Y211537D01*
Y210287D01*
X530913Y209663D01*
X530600Y209350D01*
X529975Y209037D01*
X528100D01*
Y249037D02*
Y252787D01*
X529975D01*
X530600Y252475D01*
X530913Y252163D01*
X531225Y251537D01*
Y250287D01*
X530913Y249663D01*
X530600Y249350D01*
X529975Y249037D01*
X528100D01*
X543100Y156537D02*
Y160287D01*
X546225D01*
X545600Y158413D02*
X543100D01*
Y196537D02*
Y200287D01*
X546225D01*
X545600Y198413D02*
X543100D01*
X552787Y45913D02*
X553413Y45600D01*
X553725Y44975D01*
X553413Y44350D01*
X552787Y44037D01*
X550600D01*
Y47787D01*
X552787D01*
X553413Y47475D01*
X553725Y46850D01*
X553413Y46225D01*
X552787Y45913D01*
X550600D01*
X552787Y55913D02*
X553413Y55600D01*
X553725Y54975D01*
X553413Y54350D01*
X552787Y54037D01*
X550600D01*
Y57787D01*
X552787D01*
X553413Y57475D01*
X553725Y56850D01*
X553413Y56225D01*
X552787Y55913D01*
X550600D01*
X555600Y71537D02*
X557163Y75287D01*
X558725Y71537D01*
X556225Y73100D02*
X558100D01*
X555600Y151537D02*
Y155287D01*
X558725D01*
X558100Y153413D02*
X555600D01*
Y191537D02*
Y195287D01*
X558725D01*
X558100Y193413D02*
X555600D01*
X562787Y45913D02*
X563413Y45600D01*
X563725Y44975D01*
X563413Y44350D01*
X562787Y44037D01*
X560600D01*
Y47787D01*
X562787D01*
X563413Y47475D01*
X563725Y46850D01*
X563413Y46225D01*
X562787Y45913D01*
X560600D01*
X562787Y55913D02*
X563413Y55600D01*
X563725Y54975D01*
X563413Y54350D01*
X562787Y54037D01*
X560600D01*
Y57787D01*
X562787D01*
X563413Y57475D01*
X563725Y56850D01*
X563413Y56225D01*
X562787Y55913D01*
X560600D01*
Y76537D02*
X562163Y80287D01*
X563725Y76537D01*
X561225Y78100D02*
X563100D01*
Y281537D02*
X564663Y285287D01*
X566225Y281537D01*
X563725Y283100D02*
X565600D01*
Y81537D02*
X567163Y85287D01*
X568725Y81537D01*
X566225Y83100D02*
X568100D01*
X570287Y193413D02*
X570913Y193100D01*
X571225Y192475D01*
X570913Y191850D01*
X570287Y191537D01*
X568100D01*
Y195287D01*
X570287D01*
X570913Y194975D01*
X571225Y194350D01*
X570913Y193725D01*
X570287Y193413D01*
X568100D01*
X572787Y45913D02*
X573413Y45600D01*
X573725Y44975D01*
X573413Y44350D01*
X572787Y44037D01*
X570600D01*
Y47787D01*
X572787D01*
X573413Y47475D01*
X573725Y46850D01*
X573413Y46225D01*
X572787Y45913D01*
X570600D01*
X572787Y55913D02*
X573413Y55600D01*
X573725Y54975D01*
X573413Y54350D01*
X572787Y54037D01*
X570600D01*
Y57787D01*
X572787D01*
X573413Y57475D01*
X573725Y56850D01*
X573413Y56225D01*
X572787Y55913D01*
X570600D01*
Y101537D02*
X572163Y105287D01*
X573725Y101537D01*
X571225Y103100D02*
X573100D01*
X575600Y106537D02*
X577163Y110287D01*
X578725Y106537D01*
X576225Y108100D02*
X578100D01*
X575600Y276537D02*
X577163Y280287D01*
X578725Y276537D01*
X576225Y278100D02*
X578100D01*
Y156537D02*
X579663Y160287D01*
X581225Y156537D01*
X578725Y158100D02*
X580600D01*
X580287Y193413D02*
X580913Y193100D01*
X581225Y192475D01*
X580913Y191850D01*
X580287Y191537D01*
X578100D01*
Y195287D01*
X580287D01*
X580913Y194975D01*
X581225Y194350D01*
X580913Y193725D01*
X580287Y193413D01*
X578100D01*
X582787Y45913D02*
X583413Y45600D01*
X583725Y44975D01*
X583413Y44350D01*
X582787Y44037D01*
X580600D01*
Y47787D01*
X582787D01*
X583413Y47475D01*
X583725Y46850D01*
X583413Y46225D01*
X582787Y45913D01*
X580600D01*
X582787Y55913D02*
X583413Y55600D01*
X583725Y54975D01*
X583413Y54350D01*
X582787Y54037D01*
X580600D01*
Y57787D01*
X582787D01*
X583413Y57475D01*
X583725Y56850D01*
X583413Y56225D01*
X582787Y55913D01*
X580600D01*
Y86537D02*
X582163Y90287D01*
X583725Y86537D01*
X581225Y88100D02*
X583100D01*
Y286537D02*
X584663Y290287D01*
X586225Y286537D01*
X583725Y288100D02*
X585600D01*
X588100Y151537D02*
X589663Y155287D01*
X591225Y151537D01*
X588725Y153100D02*
X590600D01*
X590287Y193413D02*
X590913Y193100D01*
X591225Y192475D01*
X590913Y191850D01*
X590287Y191537D01*
X588100D01*
Y195287D01*
X590287D01*
X590913Y194975D01*
X591225Y194350D01*
X590913Y193725D01*
X590287Y193413D01*
X588100D01*
X600287D02*
X600913Y193100D01*
X601225Y192475D01*
X600913Y191850D01*
X600287Y191537D01*
X598100D01*
Y195287D01*
X600287D01*
X600913Y194975D01*
X601225Y194350D01*
X600913Y193725D01*
X600287Y193413D01*
X598100D01*
X616225Y49663D02*
X615913Y49350D01*
X615287Y49037D01*
X614350D01*
X613725Y49350D01*
X613413Y49663D01*
X613100Y50287D01*
Y51537D01*
X613413Y52163D01*
X613725Y52475D01*
X614350Y52787D01*
X615287D01*
X615913Y52475D01*
X616225Y52163D01*
X613100Y66537D02*
X614663Y70287D01*
X616225Y66537D01*
X613725Y68100D02*
X615600D01*
X613100Y169037D02*
Y172787D01*
X616225D01*
X615600Y170913D02*
X613100D01*
Y209037D02*
Y212787D01*
X616225D01*
X615600Y210913D02*
X613100D01*
X616225Y309663D02*
X615913Y309350D01*
X615287Y309037D01*
X614350D01*
X613725Y309350D01*
X613413Y309663D01*
X613100Y310287D01*
Y311537D01*
X613413Y312163D01*
X613725Y312475D01*
X614350Y312787D01*
X615287D01*
X615913Y312475D01*
X616225Y312163D01*
X627787Y230913D02*
X628413Y230600D01*
X628725Y229975D01*
X628413Y229350D01*
X627787Y229037D01*
X625600D01*
Y232787D01*
X627787D01*
X628413Y232475D01*
X628725Y231850D01*
X628413Y231225D01*
X627787Y230913D01*
X625600D01*
X632787Y183100D02*
X633725D01*
Y182787D01*
X633413Y182163D01*
X633100Y181850D01*
X632475Y181537D01*
X631850D01*
X631225Y181850D01*
X630913Y182163D01*
X630600Y182787D01*
Y184037D01*
X630913Y184663D01*
X631225Y184975D01*
X631850Y185287D01*
X632475D01*
X633100Y184975D01*
X633413Y184663D01*
X633725Y184037D01*
X632787Y203100D02*
X633725D01*
Y202787D01*
X633413Y202163D01*
X633100Y201850D01*
X632475Y201537D01*
X631850D01*
X631225Y201850D01*
X630913Y202163D01*
X630600Y202787D01*
Y204037D01*
X630913Y204663D01*
X631225Y204975D01*
X631850Y205287D01*
X632475D01*
X633100Y204975D01*
X633413Y204663D01*
X633725Y204037D01*
X637787Y230913D02*
X638413Y230600D01*
X638725Y229975D01*
X638413Y229350D01*
X637787Y229037D01*
X635600D01*
Y232787D01*
X637787D01*
X638413Y232475D01*
X638725Y231850D01*
X638413Y231225D01*
X637787Y230913D01*
X635600D01*
X643725Y49663D02*
X643413Y49350D01*
X642787Y49037D01*
X641850D01*
X641225Y49350D01*
X640913Y49663D01*
X640600Y50287D01*
Y51537D01*
X640913Y52163D01*
X641225Y52475D01*
X641850Y52787D01*
X642787D01*
X643413Y52475D01*
X643725Y52163D01*
Y309663D02*
X643413Y309350D01*
X642787Y309037D01*
X641850D01*
X641225Y309350D01*
X640913Y309663D01*
X640600Y310287D01*
Y311537D01*
X640913Y312163D01*
X641225Y312475D01*
X641850Y312787D01*
X642787D01*
X643413Y312475D01*
X643725Y312163D01*
X645600Y169037D02*
X647163Y172787D01*
X648725Y169037D01*
X646225Y170600D02*
X648100D01*
X645600Y194037D02*
X647163Y197787D01*
X648725Y194037D01*
X646225Y195600D02*
X648100D01*
X647787Y230913D02*
X648413Y230600D01*
X648725Y229975D01*
X648413Y229350D01*
X647787Y229037D01*
X645600D01*
Y232787D01*
X647787D01*
X648413Y232475D01*
X648725Y231850D01*
X648413Y231225D01*
X647787Y230913D01*
X645600D01*
X655600Y174037D02*
Y177787D01*
Y175913D02*
X658725D01*
Y174037D02*
Y177787D01*
X655600Y194037D02*
X657163Y197787D01*
X658725Y194037D01*
X656225Y195600D02*
X658100D01*
X655600Y209037D02*
Y212787D01*
Y210913D02*
X658725D01*
Y209037D02*
Y212787D01*
X657787Y230913D02*
X658413Y230600D01*
X658725Y229975D01*
X658413Y229350D01*
X657787Y229037D01*
X655600D01*
Y232787D01*
X657787D01*
X658413Y232475D01*
X658725Y231850D01*
X658413Y231225D01*
X657787Y230913D01*
X655600D01*
X667787D02*
X668413Y230600D01*
X668725Y229975D01*
X668413Y229350D01*
X667787Y229037D01*
X665600D01*
Y232787D01*
X667787D01*
X668413Y232475D01*
X668725Y231850D01*
X668413Y231225D01*
X667787Y230913D01*
X665600D01*
X675287Y45913D02*
X675913Y45600D01*
X676225Y44975D01*
X675913Y44350D01*
X675287Y44037D01*
X673100D01*
Y47787D01*
X675287D01*
X675913Y47475D01*
X676225Y46850D01*
X675913Y46225D01*
X675287Y45913D01*
X673100D01*
X675287Y55913D02*
X675913Y55600D01*
X676225Y54975D01*
X675913Y54350D01*
X675287Y54037D01*
X673100D01*
Y57787D01*
X675287D01*
X675913Y57475D01*
X676225Y56850D01*
X675913Y56225D01*
X675287Y55913D01*
X673100D01*
X677787Y230913D02*
X678413Y230600D01*
X678725Y229975D01*
X678413Y229350D01*
X677787Y229037D01*
X675600D01*
Y232787D01*
X677787D01*
X678413Y232475D01*
X678725Y231850D01*
X678413Y231225D01*
X677787Y230913D01*
X675600D01*
X678100Y71537D02*
X679663Y75287D01*
X681225Y71537D01*
X678725Y73100D02*
X680600D01*
X682787Y183100D02*
X683725D01*
Y182787D01*
X683413Y182163D01*
X683100Y181850D01*
X682475Y181537D01*
X681850D01*
X681225Y181850D01*
X680913Y182163D01*
X680600Y182787D01*
Y184037D01*
X680913Y184663D01*
X681225Y184975D01*
X681850Y185287D01*
X682475D01*
X683100Y184975D01*
X683413Y184663D01*
X683725Y184037D01*
X682787Y203100D02*
X683725D01*
Y202787D01*
X683413Y202163D01*
X683100Y201850D01*
X682475Y201537D01*
X681850D01*
X681225Y201850D01*
X680913Y202163D01*
X680600Y202787D01*
Y204037D01*
X680913Y204663D01*
X681225Y204975D01*
X681850Y205287D01*
X682475D01*
X683100Y204975D01*
X683413Y204663D01*
X683725Y204037D01*
X685287Y45913D02*
X685913Y45600D01*
X686225Y44975D01*
X685913Y44350D01*
X685287Y44037D01*
X683100D01*
Y47787D01*
X685287D01*
X685913Y47475D01*
X686225Y46850D01*
X685913Y46225D01*
X685287Y45913D01*
X683100D01*
X685287Y55913D02*
X685913Y55600D01*
X686225Y54975D01*
X685913Y54350D01*
X685287Y54037D01*
X683100D01*
Y57787D01*
X685287D01*
X685913Y57475D01*
X686225Y56850D01*
X685913Y56225D01*
X685287Y55913D01*
X683100D01*
Y76537D02*
X684663Y80287D01*
X686225Y76537D01*
X683725Y78100D02*
X685600D01*
X688100Y81537D02*
X689663Y85287D01*
X691225Y81537D01*
X688725Y83100D02*
X690600D01*
Y156537D02*
X692163Y160287D01*
X693725Y156537D01*
X691225Y158100D02*
X693100D01*
X690600Y234037D02*
X692163Y237787D01*
X693725Y234037D01*
X691225Y235600D02*
X693100D01*
X695287Y45913D02*
X695913Y45600D01*
X696225Y44975D01*
X695913Y44350D01*
X695287Y44037D01*
X693100D01*
Y47787D01*
X695287D01*
X695913Y47475D01*
X696225Y46850D01*
X695913Y46225D01*
X695287Y45913D01*
X693100D01*
X695287Y55913D02*
X695913Y55600D01*
X696225Y54975D01*
X695913Y54350D01*
X695287Y54037D01*
X693100D01*
Y57787D01*
X695287D01*
X695913Y57475D01*
X696225Y56850D01*
X695913Y56225D01*
X695287Y55913D01*
X693100D01*
Y96537D02*
X694663Y100287D01*
X696225Y96537D01*
X693725Y98100D02*
X695600D01*
Y151537D02*
X697163Y155287D01*
X698725Y151537D01*
X696225Y153100D02*
X698100D01*
X695600Y229037D02*
X697163Y232787D01*
X698725Y229037D01*
X696225Y230600D02*
X698100D01*
X700600Y101537D02*
X702163Y105287D01*
X703725Y101537D01*
X701225Y103100D02*
X703100D01*
X700600Y224037D02*
X702163Y227787D01*
X703725Y224037D01*
X701225Y225600D02*
X703100D01*
X705287Y45913D02*
X705913Y45600D01*
X706225Y44975D01*
X705913Y44350D01*
X705287Y44037D01*
X703100D01*
Y47787D01*
X705287D01*
X705913Y47475D01*
X706225Y46850D01*
X705913Y46225D01*
X705287Y45913D01*
X703100D01*
X705287Y55913D02*
X705913Y55600D01*
X706225Y54975D01*
X705913Y54350D01*
X705287Y54037D01*
X703100D01*
Y57787D01*
X705287D01*
X705913Y57475D01*
X706225Y56850D01*
X705913Y56225D01*
X705287Y55913D01*
X703100D01*
Y86537D02*
X704663Y90287D01*
X706225Y86537D01*
X703725Y88100D02*
X705600D01*
Y106537D02*
X707163Y110287D01*
X708725Y106537D01*
X706225Y108100D02*
X708100D01*
X705600Y219037D02*
X707163Y222787D01*
X708725Y219037D01*
X706225Y220600D02*
X708100D01*
X710600Y214037D02*
X712163Y217787D01*
X713725Y214037D01*
X711225Y215600D02*
X713100D01*
X715600Y96537D02*
X717163Y100287D01*
X718725Y96537D01*
X716225Y98100D02*
X718100D01*
X715600Y209037D02*
X717163Y212787D01*
X718725Y209037D01*
X716225Y210600D02*
X718100D01*
X738725Y49663D02*
X738413Y49350D01*
X737787Y49037D01*
X736850D01*
X736225Y49350D01*
X735913Y49663D01*
X735600Y50287D01*
Y51537D01*
X735913Y52163D01*
X736225Y52475D01*
X736850Y52787D01*
X737787D01*
X738413Y52475D01*
X738725Y52163D01*
Y309663D02*
X738413Y309350D01*
X737787Y309037D01*
X736850D01*
X736225Y309350D01*
X735913Y309663D01*
X735600Y310287D01*
Y311537D01*
X735913Y312163D01*
X736225Y312475D01*
X736850Y312787D01*
X737787D01*
X738413Y312475D01*
X738725Y312163D01*
X753100Y151537D02*
X754663Y155287D01*
X756225Y151537D01*
X753725Y153100D02*
X755600D01*
X753100Y169037D02*
X754663Y172787D01*
X756225Y169037D01*
X753725Y170600D02*
X755600D01*
X766225Y49663D02*
X765913Y49350D01*
X765287Y49037D01*
X764350D01*
X763725Y49350D01*
X763413Y49663D01*
X763100Y50287D01*
Y51537D01*
X763413Y52163D01*
X763725Y52475D01*
X764350Y52787D01*
X765287D01*
X765913Y52475D01*
X766225Y52163D01*
Y309663D02*
X765913Y309350D01*
X765287Y309037D01*
X764350D01*
X763725Y309350D01*
X763413Y309663D01*
X763100Y310287D01*
Y311537D01*
X763413Y312163D01*
X763725Y312475D01*
X764350Y312787D01*
X765287D01*
X765913Y312475D01*
X766225Y312163D01*
X767787Y158413D02*
X768413Y158100D01*
X768725Y157475D01*
X768413Y156850D01*
X767787Y156537D01*
X765600D01*
Y160287D01*
X767787D01*
X768413Y159975D01*
X768725Y159350D01*
X768413Y158725D01*
X767787Y158413D01*
X765600D01*
X767787Y168413D02*
X768413Y168100D01*
X768725Y167475D01*
X768413Y166850D01*
X767787Y166537D01*
X765600D01*
Y170287D01*
X767787D01*
X768413Y169975D01*
X768725Y169350D01*
X768413Y168725D01*
X767787Y168413D01*
X765600D01*
X767787Y238413D02*
X768413Y238100D01*
X768725Y237475D01*
X768413Y236850D01*
X767787Y236537D01*
X765600D01*
Y240287D01*
X767787D01*
X768413Y239975D01*
X768725Y239350D01*
X768413Y238725D01*
X767787Y238413D01*
X765600D01*
X767787Y248413D02*
X768413Y248100D01*
X768725Y247475D01*
X768413Y246850D01*
X767787Y246537D01*
X765600D01*
Y250287D01*
X767787D01*
X768413Y249975D01*
X768725Y249350D01*
X768413Y248725D01*
X767787Y248413D01*
X765600D01*
X777787Y158413D02*
X778413Y158100D01*
X778725Y157475D01*
X778413Y156850D01*
X777787Y156537D01*
X775600D01*
Y160287D01*
X777787D01*
X778413Y159975D01*
X778725Y159350D01*
X778413Y158725D01*
X777787Y158413D01*
X775600D01*
X777787Y168413D02*
X778413Y168100D01*
X778725Y167475D01*
X778413Y166850D01*
X777787Y166537D01*
X775600D01*
Y170287D01*
X777787D01*
X778413Y169975D01*
X778725Y169350D01*
X778413Y168725D01*
X777787Y168413D01*
X775600D01*
X777787Y238413D02*
X778413Y238100D01*
X778725Y237475D01*
X778413Y236850D01*
X777787Y236537D01*
X775600D01*
Y240287D01*
X777787D01*
X778413Y239975D01*
X778725Y239350D01*
X778413Y238725D01*
X777787Y238413D01*
X775600D01*
X777787Y248413D02*
X778413Y248100D01*
X778725Y247475D01*
X778413Y246850D01*
X777787Y246537D01*
X775600D01*
Y250287D01*
X777787D01*
X778413Y249975D01*
X778725Y249350D01*
X778413Y248725D01*
X777787Y248413D01*
X775600D01*
X778100Y204037D02*
X779663Y207787D01*
X781225Y204037D01*
X778725Y205600D02*
X780600D01*
X778100Y219037D02*
X779663Y222787D01*
X781225Y219037D01*
X778725Y220600D02*
X780600D01*
X787787Y158413D02*
X788413Y158100D01*
X788725Y157475D01*
X788413Y156850D01*
X787787Y156537D01*
X785600D01*
Y160287D01*
X787787D01*
X788413Y159975D01*
X788725Y159350D01*
X788413Y158725D01*
X787787Y158413D01*
X785600D01*
X787787Y168413D02*
X788413Y168100D01*
X788725Y167475D01*
X788413Y166850D01*
X787787Y166537D01*
X785600D01*
Y170287D01*
X787787D01*
X788413Y169975D01*
X788725Y169350D01*
X788413Y168725D01*
X787787Y168413D01*
X785600D01*
X787787Y238413D02*
X788413Y238100D01*
X788725Y237475D01*
X788413Y236850D01*
X787787Y236537D01*
X785600D01*
Y240287D01*
X787787D01*
X788413Y239975D01*
X788725Y239350D01*
X788413Y238725D01*
X787787Y238413D01*
X785600D01*
X787787Y248413D02*
X788413Y248100D01*
X788725Y247475D01*
X788413Y246850D01*
X787787Y246537D01*
X785600D01*
Y250287D01*
X787787D01*
X788413Y249975D01*
X788725Y249350D01*
X788413Y248725D01*
X787787Y248413D01*
X785600D01*
X793100Y256537D02*
X794663Y260287D01*
X796225Y256537D01*
X793725Y258100D02*
X795600D01*
X797787Y45913D02*
X798413Y45600D01*
X798725Y44975D01*
X798413Y44350D01*
X797787Y44037D01*
X795600D01*
Y47787D01*
X797787D01*
X798413Y47475D01*
X798725Y46850D01*
X798413Y46225D01*
X797787Y45913D01*
X795600D01*
X797787Y55913D02*
X798413Y55600D01*
X798725Y54975D01*
X798413Y54350D01*
X797787Y54037D01*
X795600D01*
Y57787D01*
X797787D01*
X798413Y57475D01*
X798725Y56850D01*
X798413Y56225D01*
X797787Y55913D01*
X795600D01*
X797787Y158413D02*
X798413Y158100D01*
X798725Y157475D01*
X798413Y156850D01*
X797787Y156537D01*
X795600D01*
Y160287D01*
X797787D01*
X798413Y159975D01*
X798725Y159350D01*
X798413Y158725D01*
X797787Y158413D01*
X795600D01*
X797787Y168413D02*
X798413Y168100D01*
X798725Y167475D01*
X798413Y166850D01*
X797787Y166537D01*
X795600D01*
Y170287D01*
X797787D01*
X798413Y169975D01*
X798725Y169350D01*
X798413Y168725D01*
X797787Y168413D01*
X795600D01*
X797787Y238413D02*
X798413Y238100D01*
X798725Y237475D01*
X798413Y236850D01*
X797787Y236537D01*
X795600D01*
Y240287D01*
X797787D01*
X798413Y239975D01*
X798725Y239350D01*
X798413Y238725D01*
X797787Y238413D01*
X795600D01*
X797787Y248413D02*
X798413Y248100D01*
X798725Y247475D01*
X798413Y246850D01*
X797787Y246537D01*
X795600D01*
Y250287D01*
X797787D01*
X798413Y249975D01*
X798725Y249350D01*
X798413Y248725D01*
X797787Y248413D01*
X795600D01*
X800600Y71537D02*
X802163Y75287D01*
X803725Y71537D01*
X801225Y73100D02*
X803100D01*
X800600Y99037D02*
X802163Y102787D01*
X803725Y99037D01*
X801225Y100600D02*
X803100D01*
X807787Y45913D02*
X808413Y45600D01*
X808725Y44975D01*
X808413Y44350D01*
X807787Y44037D01*
X805600D01*
Y47787D01*
X807787D01*
X808413Y47475D01*
X808725Y46850D01*
X808413Y46225D01*
X807787Y45913D01*
X805600D01*
X807787Y55913D02*
X808413Y55600D01*
X808725Y54975D01*
X808413Y54350D01*
X807787Y54037D01*
X805600D01*
Y57787D01*
X807787D01*
X808413Y57475D01*
X808725Y56850D01*
X808413Y56225D01*
X807787Y55913D01*
X805600D01*
Y76537D02*
X807163Y80287D01*
X808725Y76537D01*
X806225Y78100D02*
X808100D01*
X807787Y158413D02*
X808413Y158100D01*
X808725Y157475D01*
X808413Y156850D01*
X807787Y156537D01*
X805600D01*
Y160287D01*
X807787D01*
X808413Y159975D01*
X808725Y159350D01*
X808413Y158725D01*
X807787Y158413D01*
X805600D01*
X807787Y168413D02*
X808413Y168100D01*
X808725Y167475D01*
X808413Y166850D01*
X807787Y166537D01*
X805600D01*
Y170287D01*
X807787D01*
X808413Y169975D01*
X808725Y169350D01*
X808413Y168725D01*
X807787Y168413D01*
X805600D01*
X807787Y238413D02*
X808413Y238100D01*
X808725Y237475D01*
X808413Y236850D01*
X807787Y236537D01*
X805600D01*
Y240287D01*
X807787D01*
X808413Y239975D01*
X808725Y239350D01*
X808413Y238725D01*
X807787Y238413D01*
X805600D01*
X807787Y248413D02*
X808413Y248100D01*
X808725Y247475D01*
X808413Y246850D01*
X807787Y246537D01*
X805600D01*
Y250287D01*
X807787D01*
X808413Y249975D01*
X808725Y249350D01*
X808413Y248725D01*
X807787Y248413D01*
X805600D01*
X810600Y81537D02*
X812163Y85287D01*
X813725Y81537D01*
X811225Y83100D02*
X813100D01*
X810600Y91537D02*
X812163Y95287D01*
X813725Y91537D01*
X811225Y93100D02*
X813100D01*
X810600Y106537D02*
X812163Y110287D01*
X813725Y106537D01*
X811225Y108100D02*
X813100D01*
X817787Y45913D02*
X818413Y45600D01*
X818725Y44975D01*
X818413Y44350D01*
X817787Y44037D01*
X815600D01*
Y47787D01*
X817787D01*
X818413Y47475D01*
X818725Y46850D01*
X818413Y46225D01*
X817787Y45913D01*
X815600D01*
X817787Y55913D02*
X818413Y55600D01*
X818725Y54975D01*
X818413Y54350D01*
X817787Y54037D01*
X815600D01*
Y57787D01*
X817787D01*
X818413Y57475D01*
X818725Y56850D01*
X818413Y56225D01*
X817787Y55913D01*
X815600D01*
Y76537D02*
X817163Y80287D01*
X818725Y76537D01*
X816225Y78100D02*
X818100D01*
X817787Y158413D02*
X818413Y158100D01*
X818725Y157475D01*
X818413Y156850D01*
X817787Y156537D01*
X815600D01*
Y160287D01*
X817787D01*
X818413Y159975D01*
X818725Y159350D01*
X818413Y158725D01*
X817787Y158413D01*
X815600D01*
X817787Y168413D02*
X818413Y168100D01*
X818725Y167475D01*
X818413Y166850D01*
X817787Y166537D01*
X815600D01*
Y170287D01*
X817787D01*
X818413Y169975D01*
X818725Y169350D01*
X818413Y168725D01*
X817787Y168413D01*
X815600D01*
X817787Y238413D02*
X818413Y238100D01*
X818725Y237475D01*
X818413Y236850D01*
X817787Y236537D01*
X815600D01*
Y240287D01*
X817787D01*
X818413Y239975D01*
X818725Y239350D01*
X818413Y238725D01*
X817787Y238413D01*
X815600D01*
X817787Y248413D02*
X818413Y248100D01*
X818725Y247475D01*
X818413Y246850D01*
X817787Y246537D01*
X815600D01*
Y250287D01*
X817787D01*
X818413Y249975D01*
X818725Y249350D01*
X818413Y248725D01*
X817787Y248413D01*
X815600D01*
X820600Y106537D02*
X822163Y110287D01*
X823725Y106537D01*
X821225Y108100D02*
X823100D01*
X820600Y116537D02*
X822163Y120287D01*
X823725Y116537D01*
X821225Y118100D02*
X823100D01*
X820600Y281537D02*
X822163Y285287D01*
X823725Y281537D01*
X821225Y283100D02*
X823100D01*
X827787Y45913D02*
X828413Y45600D01*
X828725Y44975D01*
X828413Y44350D01*
X827787Y44037D01*
X825600D01*
Y47787D01*
X827787D01*
X828413Y47475D01*
X828725Y46850D01*
X828413Y46225D01*
X827787Y45913D01*
X825600D01*
X827787Y55913D02*
X828413Y55600D01*
X828725Y54975D01*
X828413Y54350D01*
X827787Y54037D01*
X825600D01*
Y57787D01*
X827787D01*
X828413Y57475D01*
X828725Y56850D01*
X828413Y56225D01*
X827787Y55913D01*
X825600D01*
Y86537D02*
X827163Y90287D01*
X828725Y86537D01*
X826225Y88100D02*
X828100D01*
X825600Y99037D02*
X827163Y102787D01*
X828725Y99037D01*
X826225Y100600D02*
X828100D01*
X825600Y111537D02*
X827163Y115287D01*
X828725Y111537D01*
X826225Y113100D02*
X828100D01*
X827787Y158413D02*
X828413Y158100D01*
X828725Y157475D01*
X828413Y156850D01*
X827787Y156537D01*
X825600D01*
Y160287D01*
X827787D01*
X828413Y159975D01*
X828725Y159350D01*
X828413Y158725D01*
X827787Y158413D01*
X825600D01*
X827787Y168413D02*
X828413Y168100D01*
X828725Y167475D01*
X828413Y166850D01*
X827787Y166537D01*
X825600D01*
Y170287D01*
X827787D01*
X828413Y169975D01*
X828725Y169350D01*
X828413Y168725D01*
X827787Y168413D01*
X825600D01*
X827787Y238413D02*
X828413Y238100D01*
X828725Y237475D01*
X828413Y236850D01*
X827787Y236537D01*
X825600D01*
Y240287D01*
X827787D01*
X828413Y239975D01*
X828725Y239350D01*
X828413Y238725D01*
X827787Y238413D01*
X825600D01*
X827787Y248413D02*
X828413Y248100D01*
X828725Y247475D01*
X828413Y246850D01*
X827787Y246537D01*
X825600D01*
Y250287D01*
X827787D01*
X828413Y249975D01*
X828725Y249350D01*
X828413Y248725D01*
X827787Y248413D01*
X825600D01*
X828100Y286537D02*
X829663Y290287D01*
X831225Y286537D01*
X828725Y288100D02*
X830600D01*
X837787Y158413D02*
X838413Y158100D01*
X838725Y157475D01*
X838413Y156850D01*
X837787Y156537D01*
X835600D01*
Y160287D01*
X837787D01*
X838413Y159975D01*
X838725Y159350D01*
X838413Y158725D01*
X837787Y158413D01*
X835600D01*
X837787Y168413D02*
X838413Y168100D01*
X838725Y167475D01*
X838413Y166850D01*
X837787Y166537D01*
X835600D01*
Y170287D01*
X837787D01*
X838413Y169975D01*
X838725Y169350D01*
X838413Y168725D01*
X837787Y168413D01*
X835600D01*
X837787Y238413D02*
X838413Y238100D01*
X838725Y237475D01*
X838413Y236850D01*
X837787Y236537D01*
X835600D01*
Y240287D01*
X837787D01*
X838413Y239975D01*
X838725Y239350D01*
X838413Y238725D01*
X837787Y238413D01*
X835600D01*
X837787Y248413D02*
X838413Y248100D01*
X838725Y247475D01*
X838413Y246850D01*
X837787Y246537D01*
X835600D01*
Y250287D01*
X837787D01*
X838413Y249975D01*
X838725Y249350D01*
X838413Y248725D01*
X837787Y248413D01*
X835600D01*
X861225Y24663D02*
X860913Y24350D01*
X860287Y24037D01*
X859350D01*
X858725Y24350D01*
X858413Y24663D01*
X858100Y25287D01*
Y26537D01*
X858413Y27163D01*
X858725Y27475D01*
X859350Y27787D01*
X860287D01*
X860913Y27475D01*
X861225Y27163D01*
Y49663D02*
X860913Y49350D01*
X860287Y49037D01*
X859350D01*
X858725Y49350D01*
X858413Y49663D01*
X858100Y50287D01*
Y51537D01*
X858413Y52163D01*
X858725Y52475D01*
X859350Y52787D01*
X860287D01*
X860913Y52475D01*
X861225Y52163D01*
Y309663D02*
X860913Y309350D01*
X860287Y309037D01*
X859350D01*
X858725Y309350D01*
X858413Y309663D01*
X858100Y310287D01*
Y311537D01*
X858413Y312163D01*
X858725Y312475D01*
X859350Y312787D01*
X860287D01*
X860913Y312475D01*
X861225Y312163D01*
D02*
D29*
X15600Y88100D03*
Y108100D03*
Y140600D03*
Y160600D03*
Y193100D03*
Y213100D03*
Y245600D03*
Y265600D03*
X18100Y18100D03*
Y43100D03*
Y303100D03*
X40600Y80600D03*
Y115600D03*
Y133100D03*
Y168100D03*
Y185600D03*
Y220600D03*
Y238100D03*
Y273100D03*
X50600Y38100D03*
Y48100D03*
X60600Y38100D03*
Y48100D03*
Y70600D03*
X63100Y280600D03*
X65600Y65600D03*
Y88100D03*
Y108100D03*
Y140600D03*
Y160600D03*
Y193100D03*
Y213100D03*
Y245600D03*
Y265600D03*
X70600Y38100D03*
Y48100D03*
X75600Y75600D03*
Y85600D03*
X80600Y38100D03*
Y48100D03*
Y80600D03*
X83100Y280600D03*
X85600Y90600D03*
X113100Y43100D03*
Y303100D03*
X140600Y43100D03*
Y303100D03*
X173100Y38100D03*
Y48100D03*
Y60600D03*
X178100Y65600D03*
D03*
Y120600D03*
X183100Y38100D03*
Y48100D03*
Y70600D03*
X188100Y75600D03*
Y120600D03*
X193100Y38100D03*
Y48100D03*
Y90600D03*
X198100Y95600D03*
Y120600D03*
X203100Y38100D03*
Y48100D03*
Y80600D03*
X208100Y70600D03*
Y120600D03*
X218100D03*
X235600Y43100D03*
Y303100D03*
X263100Y43100D03*
Y303100D03*
X295600Y38100D03*
Y48100D03*
X300600Y65600D03*
X305600Y38100D03*
Y48100D03*
Y70600D03*
X308100Y275600D03*
X310600Y75600D03*
X315600Y38100D03*
Y48100D03*
Y100600D03*
X316850Y149350D03*
X320600Y95600D03*
Y270600D03*
X325600Y38100D03*
Y48100D03*
Y80600D03*
X326850Y146850D03*
Y230600D03*
X328100Y280600D03*
X340600Y146850D03*
X350600Y149350D03*
X358100Y43100D03*
Y303100D03*
X368100Y90600D03*
Y163100D03*
Y193100D03*
Y215600D03*
X378100Y85600D03*
Y163100D03*
Y193100D03*
Y215600D03*
X385600Y18100D03*
Y43100D03*
Y303100D03*
X388100Y80600D03*
Y163100D03*
Y193100D03*
Y215600D03*
X398100Y163100D03*
Y193100D03*
Y215600D03*
X408100Y80600D03*
Y163100D03*
Y193100D03*
Y215600D03*
X418100Y38100D03*
Y48100D03*
Y85600D03*
Y163100D03*
Y193100D03*
Y215600D03*
X423100Y65600D03*
X428100Y38100D03*
Y48100D03*
Y70600D03*
Y90600D03*
Y163100D03*
Y193100D03*
Y215600D03*
X433100Y75600D03*
X438100Y38100D03*
Y48100D03*
Y95600D03*
Y163100D03*
Y193100D03*
Y215600D03*
X443100Y100600D03*
X448100Y38100D03*
Y48100D03*
Y60600D03*
Y149350D03*
Y163100D03*
Y193100D03*
Y215600D03*
X458100Y163100D03*
Y193100D03*
Y215600D03*
X468100Y163100D03*
Y193100D03*
X473100Y213100D03*
Y223100D03*
Y233100D03*
X478100Y135600D03*
Y163100D03*
Y193100D03*
X480600Y18100D03*
Y43100D03*
Y303100D03*
X488100Y135600D03*
Y163100D03*
Y193100D03*
Y213100D03*
Y223100D03*
Y233100D03*
X498100Y163100D03*
Y193100D03*
X503100Y213100D03*
Y223100D03*
Y233100D03*
X508100Y43100D03*
Y303100D03*
X518100Y203100D03*
Y243100D03*
X533100Y150600D03*
Y190600D03*
X540600Y38100D03*
Y48100D03*
X545600Y65600D03*
Y145600D03*
Y185600D03*
X550600Y38100D03*
Y48100D03*
Y70600D03*
X553100Y275600D03*
X555600Y75600D03*
X558100Y185600D03*
X560600Y38100D03*
Y48100D03*
Y95600D03*
X565600Y100600D03*
Y270600D03*
X568100Y150600D03*
Y185600D03*
X570600Y38100D03*
Y48100D03*
Y80600D03*
X573100Y280600D03*
X578100Y145600D03*
Y185600D03*
X588100D03*
X603100Y43100D03*
Y60600D03*
Y163100D03*
Y203100D03*
Y303100D03*
X615600Y223100D03*
X620600Y175600D03*
Y195600D03*
X625600Y223100D03*
X630600Y43100D03*
Y303100D03*
X635600Y163100D03*
Y188100D03*
Y223100D03*
X645600Y168100D03*
Y188100D03*
Y203100D03*
Y223100D03*
X655600D03*
X663100Y38100D03*
Y48100D03*
X665600Y223100D03*
X668100Y65600D03*
X670600Y175600D03*
Y195600D03*
X673100Y38100D03*
Y48100D03*
Y70600D03*
X678100Y75600D03*
X680600Y150600D03*
Y228100D03*
X683100Y38100D03*
Y48100D03*
Y90600D03*
X685600Y145600D03*
Y223100D03*
X690600Y95600D03*
Y218100D03*
X693100Y38100D03*
Y48100D03*
Y80600D03*
X695600Y100600D03*
Y213100D03*
X700600Y208100D03*
X705600Y90600D03*
Y203100D03*
X725600Y43100D03*
Y303100D03*
X743100Y145600D03*
Y163100D03*
X753100Y43100D03*
Y303100D03*
X755600Y150600D03*
Y160600D03*
Y230600D03*
Y240600D03*
X765600Y150600D03*
Y160600D03*
Y230600D03*
Y240600D03*
X768100Y198100D03*
Y213100D03*
X775600Y150600D03*
Y160600D03*
Y230600D03*
Y240600D03*
X783100Y250600D03*
X785600Y38100D03*
Y48100D03*
Y150600D03*
Y160600D03*
Y230600D03*
Y240600D03*
X790600Y65600D03*
Y93100D03*
X795600Y38100D03*
Y48100D03*
Y70600D03*
Y150600D03*
Y160600D03*
Y230600D03*
Y240600D03*
X800600Y75600D03*
Y85600D03*
Y100600D03*
X805600Y38100D03*
Y48100D03*
Y70600D03*
Y150600D03*
Y160600D03*
Y230600D03*
Y240600D03*
X810600Y100600D03*
Y110600D03*
Y275600D03*
X815600Y38100D03*
Y48100D03*
Y80600D03*
Y93100D03*
Y105600D03*
Y150600D03*
Y160600D03*
Y230600D03*
Y240600D03*
X818100Y280600D03*
X825600Y150600D03*
Y160600D03*
Y230600D03*
Y240600D03*
X848100Y18100D03*
Y43100D03*
Y303100D03*
X0Y0D02*
M02*
