G04 Layer: BottomLayer*
G04 EasyEDA Pro v1.9.29, 2023-06-21 20:50:08*
G04 Gerber Generator version 0.3*
G04 Scale: 100 percent, Rotated: No, Reflected: No*
G04 Dimensions in millimeters*
G04 Leading zeros omitted, absolute positions, 3 integers and 3 decimals*
%FSLAX33Y33*%
%MOMM*%
%ADD999C,0.2032*%
%ADD10C,0.254*%
%ADD11C,2.999999*%
G75*


G04 Copper Start*
G36*
G01X595Y-80168D02*
G01X595Y-306D01*
G01X218624D01*
G01Y-80168D01*
G01X595D01*
G37*
%LPC*%
G36*
G01X25100Y-65035D02*
G03X28458Y-61677I0J3358D01*
G01Y-19620D01*
G03X25100Y-16262I-3358J0D01*
G01X7478D01*
G03X4120Y-19620I0J-3358D01*
G01Y-61677D01*
G03X7478Y-65035I3358J0D01*
G01X25100D01*
G37*
G36*
G01X181181Y-65035D02*
G03X184539Y-61677I0J3358D01*
G01Y-19620D01*
G03X181181Y-16262I-3358J0D01*
G01X163559D01*
G03X160201Y-19620I0J-3358D01*
G01Y-61677D01*
G03X163559Y-65035I3358J0D01*
G01X181181D01*
G37*
G36*
G01X212374Y-65035D02*
G03X215732Y-61677I0J3358D01*
G01Y-19620D01*
G03X212374Y-16262I-3358J0D01*
G01X194752D01*
G03X191394Y-19620I0J-3358D01*
G01Y-61677D01*
G03X194752Y-65035I3358J0D01*
G01X212374D01*
G37*
G36*
G01X56408Y-65035D02*
G03X59766Y-61677I0J3358D01*
G01Y-19620D01*
G03X56408Y-16262I-3358J0D01*
G01X38786D01*
G03X35428Y-19620I0J-3358D01*
G01Y-61677D01*
G03X38786Y-65035I3358J0D01*
G01X56408D01*
G37*
G36*
G01X118794Y-65035D02*
G03X122152Y-61677I0J3358D01*
G01Y-19620D01*
G03X118794Y-16262I-3358J0D01*
G01X101172D01*
G03X97814Y-19620I0J-3358D01*
G01Y-61677D01*
G03X101172Y-65035I3358J0D01*
G01X118794D01*
G37*
G36*
G01X149988Y-65035D02*
G03X153346Y-61677I0J3358D01*
G01Y-19620D01*
G03X149988Y-16262I-3358J0D01*
G01X132366D01*
G03X129007Y-19620I0J-3358D01*
G01Y-61677D01*
G03X132366Y-65035I3358J0D01*
G01X149988D01*
G37*
G36*
G01X87601Y-65035D02*
G03X90959Y-61677I0J3358D01*
G01Y-19620D01*
G03X87601Y-16262I-3358J0D01*
G01X69979D01*
G03X66621Y-19620I0J-3358D01*
G01Y-61677D01*
G03X69979Y-65035I3358J0D01*
G01X87601D01*
G37*
G36*
G01X2642Y-76800D02*
G03X4500Y-78658I1858J0D01*
G03X6358Y-76800I0J1858D01*
G03X4500Y-74942I-1858J0D01*
G03X2642Y-76800I0J-1858D01*
G37*
G36*
G01X215500Y-6358D02*
G03X217358Y-4500I0J1858D01*
G03X215500Y-2642I-1858J0D01*
G03X213642Y-4500I0J-1858D01*
G03X215500Y-6358I1858J0D01*
G37*
G36*
G01X2642Y-4500D02*
G03X4500Y-6358I1858J0D01*
G03X6358Y-4500I0J1858D01*
G03X4500Y-2642I-1858J0D01*
G03X2642Y-4500I0J-1858D01*
G37*
G36*
G01X215500Y-78658D02*
G03X217358Y-76800I0J1858D01*
G03X215500Y-74942I-1858J0D01*
G03X213642Y-76800I0J-1858D01*
G03X215500Y-78658I1858J0D01*
G37*
%LPD*%
G54D999*
G01X595Y-80168D02*
G01X595Y-306D01*
G01X218624D01*
G01Y-80168D01*
G01X595D01*
G01X25100Y-65035D02*
G03X28458Y-61677I0J3358D01*
G01Y-19620D01*
G03X25100Y-16262I-3358J0D01*
G01X7478D01*
G03X4120Y-19620I0J-3358D01*
G01Y-61677D01*
G03X7478Y-65035I3358J0D01*
G01X25100D01*
G01X181181Y-65035D02*
G03X184539Y-61677I0J3358D01*
G01Y-19620D01*
G03X181181Y-16262I-3358J0D01*
G01X163559D01*
G03X160201Y-19620I0J-3358D01*
G01Y-61677D01*
G03X163559Y-65035I3358J0D01*
G01X181181D01*
G01X212374Y-65035D02*
G03X215732Y-61677I0J3358D01*
G01Y-19620D01*
G03X212374Y-16262I-3358J0D01*
G01X194752D01*
G03X191394Y-19620I0J-3358D01*
G01Y-61677D01*
G03X194752Y-65035I3358J0D01*
G01X212374D01*
G01X56408Y-65035D02*
G03X59766Y-61677I0J3358D01*
G01Y-19620D01*
G03X56408Y-16262I-3358J0D01*
G01X38786D01*
G03X35428Y-19620I0J-3358D01*
G01Y-61677D01*
G03X38786Y-65035I3358J0D01*
G01X56408D01*
G01X118794Y-65035D02*
G03X122152Y-61677I0J3358D01*
G01Y-19620D01*
G03X118794Y-16262I-3358J0D01*
G01X101172D01*
G03X97814Y-19620I0J-3358D01*
G01Y-61677D01*
G03X101172Y-65035I3358J0D01*
G01X118794D01*
G01X149988Y-65035D02*
G03X153346Y-61677I0J3358D01*
G01Y-19620D01*
G03X149988Y-16262I-3358J0D01*
G01X132366D01*
G03X129007Y-19620I0J-3358D01*
G01Y-61677D01*
G03X132366Y-65035I3358J0D01*
G01X149988D01*
G01X87601Y-65035D02*
G03X90959Y-61677I0J3358D01*
G01Y-19620D01*
G03X87601Y-16262I-3358J0D01*
G01X69979D01*
G03X66621Y-19620I0J-3358D01*
G01Y-61677D01*
G03X69979Y-65035I3358J0D01*
G01X87601D01*
G01X2642Y-76800D02*
G03X4500Y-78658I1858J0D01*
G03X6358Y-76800I0J1858D01*
G03X4500Y-74942I-1858J0D01*
G03X2642Y-76800I0J-1858D01*
G01X215500Y-6358D02*
G03X217358Y-4500I0J1858D01*
G03X215500Y-2642I-1858J0D01*
G03X213642Y-4500I0J-1858D01*
G03X215500Y-6358I1858J0D01*
G01X2642Y-4500D02*
G03X4500Y-6358I1858J0D01*
G03X6358Y-4500I0J1858D01*
G03X4500Y-2642I-1858J0D01*
G03X2642Y-4500I0J-1858D01*
G01X215500Y-78658D02*
G03X217358Y-76800I0J1858D01*
G03X215500Y-74942I-1858J0D01*
G03X213642Y-76800I0J-1858D01*
G03X215500Y-78658I1858J0D01*
G04 Copper End*

G04 Rect Start*
G54D10*
G01X109Y347D02*
G01X109Y-80653D01*
G01X219109D01*
G01Y347D01*
G01X109D01*
G04 Rect End*

G04 Pad Start*
G54D11*
G01X215500Y-4500D03*
G01X215500Y-76800D03*
G01X4500Y-4500D03*
G01X4500Y-76800D03*
G04 Pad End*

M02*
