G04 Layer: TopSolderMaskLayer*
G04 EasyEDA Pro v1.9.29, 2023-06-21 20:50:08*
G04 Gerber Generator version 0.3*
G04 Scale: 100 percent, Rotated: No, Reflected: No*
G04 Dimensions in millimeters*
G04 Leading zeros omitted, absolute positions, 3 integers and 3 decimals*
%FSLAX33Y33*%
%MOMM*%
%ADD10C,0.499999*%
%ADD11C,3.101599*%
G75*


G04 Text Start*
G04 //text: BTClock*
G36*
G01X121133Y-68500D02*
G01X121085Y-68503D01*
G01X121056Y-68508D01*
G01X121028Y-68516D01*
G01X120964Y-68527D01*
G01X120921Y-68532D01*
G01X120801Y-68547D01*
G01X120772Y-68553D01*
G01X120390Y-68617D01*
G01X120373Y-68620D01*
G01X120357Y-68625D01*
G01X120344Y-68632D01*
G01X120332Y-68640D01*
G01X120322Y-68651D01*
G01X120315Y-68662D01*
G01X120309Y-68676D01*
G01X120295Y-68747D01*
G01X120252Y-68892D01*
G01X120238Y-68948D01*
G01X120226Y-69004D01*
G01X120210Y-69105D01*
G01X120199Y-69147D01*
G01X120167Y-69253D01*
G01X120149Y-69325D01*
G01X120125Y-69447D01*
G01X120109Y-69504D01*
G01X120099Y-69552D01*
G01X120083Y-69638D01*
G01X120040Y-69783D01*
G01X120026Y-69839D01*
G01X120014Y-69895D01*
G01X119998Y-69995D01*
G01X119987Y-70038D01*
G01X119956Y-70144D01*
G01X119937Y-70216D01*
G01X119913Y-70338D01*
G01X119892Y-70414D01*
G01X119864Y-70537D01*
G01X119849Y-70589D01*
G01X119831Y-70661D01*
G01X119807Y-70783D01*
G01X119765Y-70929D01*
G01X119750Y-70984D01*
G01X119739Y-71040D01*
G01X119722Y-71141D01*
G01X119711Y-71183D01*
G01X119680Y-71289D01*
G01X119665Y-71345D01*
G01X119654Y-71401D01*
G01X119637Y-71502D01*
G01X119626Y-71544D01*
G01X119595Y-71650D01*
G01X119576Y-71721D01*
G01X119552Y-71843D01*
G01X119531Y-71921D01*
G01X119503Y-72043D01*
G01X119489Y-72095D01*
G01X119470Y-72167D01*
G01X119447Y-72289D01*
G01X119404Y-72435D01*
G01X119390Y-72491D01*
G01X119378Y-72546D01*
G01X119362Y-72647D01*
G01X119351Y-72689D01*
G01X119319Y-72795D01*
G01X119305Y-72851D01*
G01X119293Y-72907D01*
G01X119276Y-73008D01*
G01X119266Y-73050D01*
G01X119234Y-73156D01*
G01X119215Y-73228D01*
G01X119192Y-73350D01*
G01X119171Y-73426D01*
G01X119143Y-73549D01*
G01X119128Y-73602D01*
G01X119110Y-73673D01*
G01X119086Y-73795D01*
G01X119075Y-73835D01*
G01X119065Y-73864D01*
G01X119054Y-73888D01*
G01X119058Y-73893D01*
G01X119076Y-73897D01*
G01X119152Y-73904D01*
G01X119467Y-73909D01*
G01X119709Y-73904D01*
G01X119792Y-73898D01*
G01X119827Y-73893D01*
G01X119862Y-73886D01*
G01X119877Y-73881D01*
G01X119883Y-73878D01*
G01X119886Y-73875D01*
G01X119890Y-73872D01*
G01X119891Y-73870D01*
G01X119892Y-73869D01*
G01Y-73868D01*
G01X119893Y-73846D01*
G01X119898Y-73809D01*
G01X119934Y-73686D01*
G01X119953Y-73615D01*
G01X119976Y-73493D01*
G01X119998Y-73416D01*
G01X120026Y-73294D01*
G01X120040Y-73241D01*
G01X120059Y-73169D01*
G01X120083Y-73047D01*
G01X120125Y-72902D01*
G01X120144Y-72830D01*
G01X120167Y-72708D01*
G01X120210Y-72562D01*
G01X120228Y-72491D01*
G01X120252Y-72369D01*
G01X120279Y-72275D01*
G01X120284Y-72254D01*
G01X120291Y-72237D01*
G01X120300Y-72225D01*
G01X120312Y-72221D01*
G01X120326Y-72223D01*
G01X120342Y-72230D01*
G01X120356Y-72241D01*
G01X120369Y-72256D01*
G01X120391Y-72296D01*
G01X120404Y-72313D01*
G01X120417Y-72328D01*
G01X120448Y-72351D01*
G01X120474Y-72377D01*
G01X120530Y-72452D01*
G01X120549Y-72477D01*
G01X120594Y-72531D01*
G01X120637Y-72580D01*
G01X120689Y-72661D01*
G01X120714Y-72694D01*
G01X120730Y-72713D01*
G01X120743Y-72729D01*
G01X120812Y-72837D01*
G01X120867Y-72915D01*
G01X120899Y-72965D01*
G01X121026Y-73177D01*
G01X121049Y-73217D01*
G01X121069Y-73257D01*
G01X121096Y-73320D01*
G01X121117Y-73360D01*
G01X121143Y-73405D01*
G01X121180Y-73490D01*
G01X121202Y-73529D01*
G01X121228Y-73575D01*
G01X121265Y-73659D01*
G01X121287Y-73699D01*
G01X121302Y-73726D01*
G01X121313Y-73747D01*
G01X121345Y-73832D01*
G01X121358Y-73856D01*
G01X121372Y-73874D01*
G01X121379Y-73882D01*
G01X121387Y-73888D01*
G01X121402Y-73893D01*
G01X121429Y-73897D01*
G01X121522Y-73904D01*
G01X121865Y-73909D01*
G01X122310D01*
G01X122289Y-73845D01*
G01X122267Y-73787D01*
G01X122220Y-73682D01*
G01X122204Y-73644D01*
G01X122172Y-73571D01*
G01X122135Y-73491D01*
G01X122103Y-73416D01*
G01X122082Y-73377D01*
G01X122056Y-73331D01*
G01X122018Y-73246D01*
G01X121997Y-73207D01*
G01X121971Y-73164D01*
G01X121928Y-73084D01*
G01X121854Y-72965D01*
G01X121812Y-72891D01*
G01X121783Y-72838D01*
G01X121763Y-72806D01*
G01X121725Y-72753D01*
G01X121706Y-72721D01*
G01X121677Y-72668D01*
G01X121657Y-72636D01*
G01X121610Y-72570D01*
G01X121553Y-72480D01*
G01X121504Y-72414D01*
G01X121452Y-72346D01*
G01X121397Y-72269D01*
G01X121325Y-72176D01*
G01X121302Y-72144D01*
G01X121275Y-72117D01*
G01X121245Y-72095D01*
G01X121234Y-72082D01*
G01X121224Y-72068D01*
G01X121211Y-72038D01*
G01X121202Y-72024D01*
G01X121189Y-72011D01*
G01X121161Y-71989D01*
G01X121148Y-71976D01*
G01X121139Y-71962D01*
G01X121133Y-71947D01*
G01X121130Y-71932D01*
G01X121133Y-71918D01*
G01X121141Y-71905D01*
G01X121154Y-71894D01*
G01X121213Y-71850D01*
G01X121451Y-71661D01*
G01X121505Y-71616D01*
G01X121536Y-71586D01*
G01X121578Y-71554D01*
G01X121607Y-71530D01*
G01X121631Y-71502D01*
G01X121643Y-71487D01*
G01X121655Y-71475D01*
G01X121669Y-71466D01*
G01X121700Y-71452D01*
G01X121713Y-71443D01*
G01X121726Y-71431D01*
G01X121748Y-71401D01*
G01X121775Y-71375D01*
G01X121850Y-71320D01*
G01X121900Y-71280D01*
G01X121920Y-71260D01*
G01X121943Y-71234D01*
G01X121961Y-71210D01*
G01X121976Y-71197D01*
G01X121993Y-71184D01*
G01X122033Y-71162D01*
G01X122050Y-71149D01*
G01X122065Y-71135D01*
G01X122088Y-71104D01*
G01X122115Y-71078D01*
G01X122159Y-71043D01*
G01X122194Y-70999D01*
G01X122220Y-70972D01*
G01X122265Y-70939D01*
G01X122300Y-70908D01*
G01X122342Y-70876D01*
G01X122371Y-70852D01*
G01X122406Y-70808D01*
G01X122433Y-70781D01*
G01X122477Y-70746D01*
G01X122512Y-70701D01*
G01X122539Y-70675D01*
G01X122569Y-70652D01*
G01X122583Y-70637D01*
G01X122596Y-70620D01*
G01X122607Y-70600D01*
G01X122612Y-70588D01*
G01X122620Y-70553D01*
G01X122625Y-70505D01*
G01X122628Y-70409D01*
G01Y-70260D01*
G01X122299D01*
G01X122109Y-70265D01*
G01X122037Y-70270D01*
G01X122000Y-70274D01*
G01X121968Y-70282D01*
G01X121960Y-70285D01*
G01X121953Y-70288D01*
G01X121951Y-70290D01*
G01X121938Y-70308D01*
G01X121911Y-70334D01*
G01X121867Y-70369D01*
G01X121832Y-70414D01*
G01X121806Y-70440D01*
G01X121761Y-70475D01*
G01X121726Y-70520D01*
G01X121700Y-70546D01*
G01X121655Y-70582D01*
G01X121620Y-70626D01*
G01X121593Y-70652D01*
G01X121549Y-70688D01*
G01X121514Y-70732D01*
G01X121487Y-70758D01*
G01X121443Y-70793D01*
G01X121408Y-70838D01*
G01X121381Y-70864D01*
G01X121337Y-70897D01*
G01X121302Y-70929D01*
G01X121260Y-70960D01*
G01X121231Y-70984D01*
G01X121196Y-71029D01*
G01X121169Y-71055D01*
G01X121125Y-71088D01*
G01X121089Y-71119D01*
G01X121048Y-71151D01*
G01X121019Y-71175D01*
G01X120995Y-71204D01*
G01X120983Y-71220D01*
G01X120969Y-71234D01*
G01X120951Y-71246D01*
G01X120911Y-71269D01*
G01X120894Y-71282D01*
G01X120880Y-71295D01*
G01X120867Y-71310D01*
G01X120856Y-71325D01*
G01X120844Y-71337D01*
G01X120830Y-71347D01*
G01X120799Y-71360D01*
G01X120785Y-71369D01*
G01X120773Y-71381D01*
G01X120750Y-71411D01*
G01X120735Y-71425D01*
G01X120718Y-71437D01*
G01X120678Y-71460D01*
G01X120661Y-71473D01*
G01X120646Y-71486D01*
G01X120634Y-71502D01*
G01X120623Y-71516D01*
G01X120610Y-71528D01*
G01X120597Y-71537D01*
G01X120566Y-71551D01*
G01X120552Y-71560D01*
G01X120539Y-71572D01*
G01X120517Y-71600D01*
G01X120504Y-71608D01*
G01X120490Y-71610D01*
G01X120475Y-71608D01*
G01X120462Y-71599D01*
G01X120454Y-71581D01*
G01X120451Y-71556D01*
G01X120454Y-71523D01*
G01X120465Y-71459D01*
G01X120486Y-71380D01*
G01X120514Y-71257D01*
G01X120528Y-71204D01*
G01X120547Y-71133D01*
G01X120571Y-71011D01*
G01X120613Y-70865D01*
G01X120628Y-70810D01*
G01X120639Y-70754D01*
G01X120656Y-70653D01*
G01X120666Y-70610D01*
G01X120698Y-70504D01*
G01X120717Y-70433D01*
G01X120740Y-70311D01*
G01X120783Y-70165D01*
G01X120797Y-70110D01*
G01X120808Y-70054D01*
G01X120825Y-69953D01*
G01X120836Y-69910D01*
G01X120867Y-69805D01*
G01X120886Y-69733D01*
G01X120910Y-69611D01*
G01X120926Y-69553D01*
G01X120937Y-69506D01*
G01X120952Y-69420D01*
G01X120995Y-69274D01*
G01X121013Y-69203D01*
G01X121037Y-69081D01*
G01X121058Y-69004D01*
G01X121086Y-68881D01*
G01X121101Y-68829D01*
G01X121119Y-68757D01*
G01X121143Y-68635D01*
G01X121175Y-68532D01*
G01X121176Y-68518D01*
G01X121170Y-68508D01*
G01X121155Y-68502D01*
G37*
G36*
G01X111859Y-68501D02*
G01X111816Y-68506D01*
G01X111779Y-68516D01*
G01X111716Y-68527D01*
G01X111592Y-68542D01*
G01X111549Y-68552D01*
G01X111528Y-68558D01*
G01X111491Y-68563D01*
G01X111431Y-68566D01*
G01X111396Y-68574D01*
G01X111376Y-68579D01*
G01X111313Y-68590D01*
G01X111190Y-68606D01*
G01X111146Y-68616D01*
G01X111113Y-68627D01*
G01X111089Y-68638D01*
G01X111079Y-68647D01*
G01X111070Y-68664D01*
G01X111063Y-68690D01*
G01X111046Y-68786D01*
G01X111036Y-68829D01*
G01X111004Y-68935D01*
G01X110985Y-69006D01*
G01X110961Y-69129D01*
G01X110946Y-69186D01*
G01X110935Y-69234D01*
G01X110919Y-69319D01*
G01X110877Y-69465D01*
G01X110858Y-69537D01*
G01X110834Y-69658D01*
G01X110818Y-69716D01*
G01X110808Y-69764D01*
G01X110792Y-69849D01*
G01X110750Y-69995D01*
G01X110731Y-70067D01*
G01X110707Y-70189D01*
G01X110691Y-70247D01*
G01X110681Y-70294D01*
G01X110664Y-70380D01*
G01X110622Y-70526D01*
G01X110608Y-70582D01*
G01X110596Y-70637D01*
G01X110579Y-70738D01*
G01X110569Y-70780D01*
G01X110537Y-70886D01*
G01X110518Y-70958D01*
G01X110495Y-71080D01*
G01X110474Y-71157D01*
G01X110446Y-71279D01*
G01X110431Y-71332D01*
G01X110413Y-71403D01*
G01X110389Y-71525D01*
G01X110346Y-71671D01*
G01X110332Y-71727D01*
G01X110320Y-71782D01*
G01X110304Y-71884D01*
G01X110293Y-71926D01*
G01X110261Y-72032D01*
G01X110247Y-72088D01*
G01X110235Y-72143D01*
G01X110219Y-72244D01*
G01X110209Y-72286D01*
G01X110177Y-72393D01*
G01X110162Y-72451D01*
G01X110151Y-72515D01*
G01X110134Y-72641D01*
G01X110125Y-72685D01*
G01X110119Y-72706D01*
G01X110114Y-72749D01*
G01X110111Y-72822D01*
G01X110105Y-72851D01*
G01X110098Y-72880D01*
G01X110094Y-72910D01*
G01X110092Y-72997D01*
G01X110093Y-73066D01*
G01X110096Y-73101D01*
G01X110101Y-73131D01*
G01X110107Y-73151D01*
G01X110113Y-73189D01*
G01X110116Y-73249D01*
G01X110124Y-73284D01*
G01X110155Y-73379D01*
G01X110177Y-73437D01*
G01X110215Y-73517D01*
G01X110235Y-73548D01*
G01X110315Y-73659D01*
G01X110342Y-73686D01*
G01X110416Y-73741D01*
G01X110468Y-73780D01*
G01X110495Y-73798D01*
G01X110521Y-73812D01*
G01X110584Y-73840D01*
G01X110625Y-73861D01*
G01X110650Y-73876D01*
G01X110670Y-73885D01*
G01X110692Y-73893D01*
G01X110765Y-73909D01*
G01X110840Y-73930D01*
G01X110887Y-73941D01*
G01X110993Y-73962D01*
G01X111049Y-73970D01*
G01X111138Y-73973D01*
G01X111169Y-73977D01*
G01X111176Y-73979D01*
G01X111181Y-73981D01*
G01X111184Y-73983D01*
G01X111200Y-73989D01*
G01X111227Y-73983D01*
G01X111242Y-73975D01*
G01X111256Y-73960D01*
G01X111268Y-73937D01*
G01X111279Y-73909D01*
G01X111294Y-73861D01*
G01X111305Y-73813D01*
G01X111322Y-73726D01*
G01X111364Y-73580D01*
G01X111390Y-73481D01*
G01X111407Y-73405D01*
G01X111422Y-73353D01*
G01X111427Y-73326D01*
G01X111428Y-73315D01*
G01X111424Y-73305D01*
G01X111409Y-73297D01*
G01X111387Y-73289D01*
G01X111300Y-73274D01*
G01X111248Y-73261D01*
G01X111216Y-73252D01*
G01X111185Y-73239D01*
G01X111155Y-73225D01*
G01X111127Y-73208D01*
G01X111100Y-73188D01*
G01X111075Y-73167D01*
G01X111054Y-73148D01*
G01X111031Y-73122D01*
G01X111004Y-73079D01*
G01X110983Y-73039D01*
G01X110978Y-73026D01*
G01X110974Y-73006D01*
G01X110967Y-72949D01*
G01X110962Y-72819D01*
G01X110961Y-72764D01*
G01X110965Y-72565D01*
G01X110970Y-72509D01*
G01X110972Y-72499D01*
G01X111004Y-72393D01*
G01X111022Y-72321D01*
G01X111046Y-72199D01*
G01X111089Y-72053D01*
G01X111107Y-71982D01*
G01X111131Y-71860D01*
G01X111174Y-71714D01*
G01X111188Y-71658D01*
G01X111200Y-71602D01*
G01X111216Y-71502D01*
G01X111227Y-71459D01*
G01X111259Y-71353D01*
G01X111277Y-71282D01*
G01X111301Y-71160D01*
G01X111343Y-71014D01*
G01X111358Y-70958D01*
G01X111369Y-70902D01*
G01X111386Y-70801D01*
G01X111396Y-70759D01*
G01X111428Y-70653D01*
G01X111447Y-70582D01*
G01X111470Y-70460D01*
G01X111492Y-70382D01*
G01X111520Y-70260D01*
G01X111534Y-70208D01*
G01X111553Y-70136D01*
G01X111577Y-70014D01*
G01X111598Y-69937D01*
G01X111626Y-69815D01*
G01X111640Y-69762D01*
G01X111659Y-69690D01*
G01X111683Y-69569D01*
G01X111704Y-69492D01*
G01X111732Y-69369D01*
G01X111746Y-69317D01*
G01X111765Y-69245D01*
G01X111789Y-69123D01*
G01X111810Y-69046D01*
G01X111838Y-68924D01*
G01X111852Y-68871D01*
G01X111871Y-68799D01*
G01X111895Y-68678D01*
G01X111916Y-68601D01*
G01X111927Y-68553D01*
G01X111928Y-68540D01*
G01Y-68530D01*
G01X111926Y-68521D01*
G01X111922Y-68513D01*
G01X111915Y-68507D01*
G01X111907Y-68503D01*
G01X111897Y-68501D01*
G37*
G36*
G01X108777Y-68967D02*
G01X108535Y-68971D01*
G01X108481Y-68975D01*
G01X108471Y-68977D01*
G01X108449Y-68982D01*
G01X108385Y-68993D01*
G01X108262Y-69009D01*
G01X108219Y-69018D01*
G01X108178Y-69030D01*
G01X108082Y-69051D01*
G01X107949Y-69094D01*
G01X107846Y-69131D01*
G01X107726Y-69179D01*
G01X107690Y-69195D01*
G01X107650Y-69216D01*
G01X107605Y-69242D01*
G01X107520Y-69280D01*
G01X107481Y-69301D01*
G01X107387Y-69359D01*
G01X107325Y-69399D01*
G01X107247Y-69455D01*
G01X107172Y-69502D01*
G01X107142Y-69526D01*
G01X107128Y-69542D01*
G01X107111Y-69565D01*
G01X107098Y-69577D01*
G01X107084Y-69586D01*
G01X107054Y-69599D01*
G01X107040Y-69608D01*
G01X107027Y-69620D01*
G01X107004Y-69651D01*
G01X106987Y-69667D01*
G01X106967Y-69682D01*
G01X106918Y-69714D01*
G01X106899Y-69730D01*
G01X106886Y-69746D01*
G01X106882Y-69754D01*
G01X106872Y-69777D01*
G01X106862Y-69791D01*
G01X106850Y-69804D01*
G01X106821Y-69827D01*
G01X106794Y-69853D01*
G01X106759Y-69897D01*
G01X106730Y-69921D01*
G01X106715Y-69933D01*
G01X106700Y-69948D01*
G01X106688Y-69965D01*
G01X106656Y-70022D01*
G01X106639Y-70043D01*
G01X106602Y-70086D01*
G01X106539Y-70176D01*
G01X106507Y-70221D01*
G01X106475Y-70271D01*
G01X106411Y-70377D01*
G01X106389Y-70417D01*
G01X106370Y-70457D01*
G01X106343Y-70520D01*
G01X106321Y-70560D01*
G01X106295Y-70605D01*
G01X106242Y-70727D01*
G01X106215Y-70783D01*
G01X106189Y-70854D01*
G01X106167Y-70913D01*
G01X106136Y-70983D01*
G01X106128Y-71008D01*
G01X106121Y-71036D01*
G01X106109Y-71097D01*
G01X106101Y-71125D01*
G01X106093Y-71150D01*
G01X106073Y-71194D01*
G01X106067Y-71215D01*
G01X106063Y-71236D01*
G01X106061Y-71278D01*
G01X106056Y-71315D01*
G01X106046Y-71350D01*
G01X106035Y-71403D01*
G01X106019Y-71502D01*
G01X106004Y-71561D01*
G01X105998Y-71604D01*
G01X105995Y-71677D01*
G01X105990Y-71705D01*
G01X105985Y-71723D01*
G01X105979Y-71767D01*
G01X105977Y-71834D01*
G01X105974Y-71948D01*
G01X105970Y-71996D01*
G01X105961Y-72027D01*
G01X105956Y-72064D01*
G01Y-72106D01*
G01X105961Y-72143D01*
G01X105971Y-72180D01*
G01X105974Y-72210D01*
G01X105976Y-72297D01*
G01X105978Y-72366D01*
G01X105981Y-72401D01*
G01X105986Y-72431D01*
G01X105993Y-72454D01*
G01X106003Y-72512D01*
G01X106019Y-72623D01*
G01X106030Y-72668D01*
G01X106104Y-72891D01*
G01X106125Y-72949D01*
G01X106173Y-73054D01*
G01X106200Y-73118D01*
G01X106213Y-73143D01*
G01X106226Y-73166D01*
G01X106274Y-73233D01*
G01X106331Y-73323D01*
G01X106380Y-73389D01*
G01X106400Y-73414D01*
G01X106419Y-73434D01*
G01X106446Y-73458D01*
G01X106469Y-73475D01*
G01X106496Y-73502D01*
G01X106531Y-73546D01*
G01X106575Y-73581D01*
G01X106602Y-73608D01*
G01X106624Y-73637D01*
G01X106637Y-73649D01*
G01X106651Y-73658D01*
G01X106681Y-73671D01*
G01X106695Y-73678D01*
G01X106708Y-73687D01*
G01X106731Y-73708D01*
G01X106763Y-73729D01*
G01X106822Y-73761D01*
G01X106874Y-73793D01*
G01X106894Y-73803D01*
G01X107015Y-73856D01*
G01X107072Y-73883D01*
G01X107143Y-73909D01*
G01X107204Y-73928D01*
G01X107334Y-73958D01*
G01X107387Y-73973D01*
G01X107487Y-73998D01*
G01X107515Y-74004D01*
G01X107532Y-74007D01*
G01X107637Y-74013D01*
G01X107896Y-74015D01*
G01X108200Y-74011D01*
G01X108248Y-74006D01*
G01X108257Y-74004D01*
G01X108275Y-74000D01*
G01X108322Y-73995D01*
G01X108408Y-73991D01*
G01X108439Y-73986D01*
G01X108467Y-73978D01*
G01X108519Y-73967D01*
G01X108618Y-73952D01*
G01X108697Y-73930D01*
G01X108770Y-73913D01*
G01X108818Y-73898D01*
G01X108885Y-73869D01*
G01X108961Y-73850D01*
G01X109009Y-73834D01*
G01X109074Y-73806D01*
G01X109137Y-73786D01*
G01X109174Y-73771D01*
G01X109225Y-73742D01*
G01X109265Y-73729D01*
G01X109283Y-73721D01*
G01X109296Y-73708D01*
G01X109304Y-73689D01*
G01X109307Y-73665D01*
G01X109304Y-73617D01*
G01X109299Y-73588D01*
G01X109292Y-73563D01*
G01X109287Y-73526D01*
G01X109283Y-73466D01*
G01X109270Y-73415D01*
G01X109265Y-73378D01*
G01X109262Y-73318D01*
G01X109249Y-73267D01*
G01X109244Y-73230D01*
G01X109241Y-73169D01*
G01X109228Y-73118D01*
G01X109223Y-73081D01*
G01X109221Y-73041D01*
G01X109217Y-73023D01*
G01X109210Y-73009D01*
G01X109201Y-72997D01*
G01X109190Y-72989D01*
G01X109177Y-72986D01*
G01X109163Y-72989D01*
G01X109131Y-73007D01*
G01X109094Y-73023D01*
G01X109034Y-73042D01*
G01X109000Y-73061D01*
G01X108982Y-73071D01*
G01X108962Y-73079D01*
G01X108940Y-73086D01*
G01X108889Y-73098D01*
G01X108841Y-73114D01*
G01X108774Y-73143D01*
G01X108724Y-73156D01*
G01X108676Y-73167D01*
G01X108602Y-73188D01*
G01X108554Y-73199D01*
G01X108448Y-73220D01*
G01X108410Y-73226D01*
G01X108352Y-73230D01*
G01X108313Y-73233D01*
G01X108278Y-73241D01*
G01X108267Y-73243D01*
G01X108224Y-73248D01*
G01X108002Y-73252D01*
G01X107787Y-73248D01*
G01X107738Y-73243D01*
G01X107729Y-73241D01*
G01X107709Y-73236D01*
G01X107661Y-73225D01*
G01X107600Y-73214D01*
G01X107573Y-73206D01*
G01X107548Y-73198D01*
G01X107483Y-73169D01*
G01X107430Y-73153D01*
G01X107408Y-73145D01*
G01X107387Y-73135D01*
G01X107281Y-73061D01*
G01X107222Y-73017D01*
G01X107172Y-72976D01*
G01X107154Y-72957D01*
G01X107141Y-72939D01*
G01X107136Y-72931D01*
G01X107127Y-72908D01*
G01X107119Y-72893D01*
G01X107111Y-72881D01*
G01X107077Y-72841D01*
G01X107048Y-72795D01*
G01X107025Y-72756D01*
G01X107006Y-72716D01*
G01X106995Y-72689D01*
G01X106958Y-72589D01*
G01X106938Y-72524D01*
G01X106926Y-72471D01*
G01X106895Y-72280D01*
G01X106891Y-72252D01*
G01X106888Y-72161D01*
G01X106883Y-72113D01*
G01X106878Y-72095D01*
G01X106874Y-72076D01*
G01X106870Y-72048D01*
G01X106867Y-71968D01*
G01X106869Y-71905D01*
G01X106874Y-71861D01*
G01X106883Y-71821D01*
G01X106886Y-71793D01*
G01X106889Y-71714D01*
G01X106890Y-71651D01*
G01X106895Y-71606D01*
G01X106905Y-71567D01*
G01X106915Y-71509D01*
G01X106931Y-71398D01*
G01X106942Y-71353D01*
G01X106974Y-71247D01*
G01X107016Y-71109D01*
G01X107058Y-70982D01*
G01X107074Y-70939D01*
G01X107096Y-70895D01*
G01X107122Y-70849D01*
G01X107159Y-70765D01*
G01X107180Y-70725D01*
G01X107292Y-70547D01*
G01X107409Y-70383D01*
G01X107435Y-70356D01*
G01X107466Y-70334D01*
G01X107480Y-70319D01*
G01X107493Y-70302D01*
G01X107516Y-70262D01*
G01X107530Y-70245D01*
G01X107548Y-70230D01*
G01X107578Y-70213D01*
G01X107596Y-70201D01*
G01X107612Y-70187D01*
G01X107625Y-70173D01*
G01X107643Y-70150D01*
G01X107669Y-70123D01*
G01X107744Y-70068D01*
G01X107769Y-70049D01*
G01X107822Y-70008D01*
G01X107981Y-69910D01*
G01X108008Y-69895D01*
G01X108037Y-69881D01*
G01X108067Y-69869D01*
G01X108156Y-69836D01*
G01X108226Y-69805D01*
G01X108252Y-69797D01*
G01X108280Y-69790D01*
G01X108366Y-69773D01*
G01X108424Y-69757D01*
G01X108477Y-69746D01*
G01X108511Y-69741D01*
G01X108583Y-69733D01*
G01X108679Y-69730D01*
G01X108727Y-69725D01*
G01X108762Y-69715D01*
G01X108804Y-69710D01*
G01X108855D01*
G01X108897Y-69715D01*
G01X108915Y-69719D01*
G01X108933Y-69725D01*
G01X108959Y-69728D01*
G01X109087Y-69732D01*
G01X109129Y-69736D01*
G01X109166Y-69746D01*
G01X109219Y-69757D01*
G01X109289Y-69768D01*
G01X109320Y-69775D01*
G01X109360Y-69789D01*
G01X109416Y-69812D01*
G01X109492Y-69832D01*
G01X109540Y-69847D01*
G01X109619Y-69884D01*
G01X109694Y-69916D01*
G01X109734Y-69937D01*
G01X109774Y-69961D01*
G01X109805Y-69974D01*
G01X109820Y-69976D01*
G01X109832Y-69971D01*
G01X109841Y-69960D01*
G01X109854Y-69922D01*
G01X109870Y-69885D01*
G01X109901Y-69831D01*
G01X109938Y-69746D01*
G01X109959Y-69707D01*
G01X109986Y-69662D01*
G01X110007Y-69614D01*
G01X110050Y-69508D01*
G01X110065Y-69471D01*
G01X110087Y-69431D01*
G01X110113Y-69386D01*
G01X110134Y-69338D01*
G01X110138Y-69325D01*
G01X110141Y-69314D01*
G01Y-69304D01*
G01X110139Y-69295D01*
G01X110136Y-69288D01*
G01X110130Y-69282D01*
G01X110123Y-69277D01*
G01X110093Y-69268D01*
G01X110076Y-69261D01*
G01X110061Y-69253D01*
G01X110037Y-69232D01*
G01X110023Y-69224D01*
G01X110005Y-69217D01*
G01X109946Y-69197D01*
G01X109895Y-69169D01*
G01X109858Y-69153D01*
G01X109795Y-69134D01*
G01X109731Y-69105D01*
G01X109683Y-69090D01*
G01X109609Y-69073D01*
G01X109466Y-69030D01*
G01X109407Y-69016D01*
G01X109343Y-69005D01*
G01X109127Y-68977D01*
G01X109091Y-68974D01*
G01X108955Y-68968D01*
G37*
G36*
G01X99942Y-69030D02*
G01X99549Y-69036D01*
G01X99503Y-69039D01*
G01X99496Y-69041D01*
G01X99476Y-69045D01*
G01X99446Y-69049D01*
G01X99358Y-69051D01*
G01X99289Y-69053D01*
G01X99255Y-69055D01*
G01X99225Y-69061D01*
G01X99203Y-69067D01*
G01X99161Y-69072D01*
G01X99088Y-69075D01*
G01X99059Y-69081D01*
G01X99034Y-69088D01*
G01X98997Y-69093D01*
G01X98937Y-69097D01*
G01X98884Y-69110D01*
G01X98831Y-69121D01*
G01X98762Y-69132D01*
G01X98735Y-69139D01*
G01X98715Y-69147D01*
G01X98707Y-69153D01*
G01X98701Y-69158D01*
G01X98691Y-69171D01*
G01X98682Y-69192D01*
G01X98675Y-69219D01*
G01X98659Y-69317D01*
G01X98648Y-69359D01*
G01X98616Y-69465D01*
G01X98602Y-69521D01*
G01X98590Y-69577D01*
G01X98573Y-69677D01*
G01X98563Y-69719D01*
G01X98531Y-69826D01*
G01X98512Y-69897D01*
G01X98489Y-70019D01*
G01X98473Y-70077D01*
G01X98462Y-70125D01*
G01X98446Y-70210D01*
G01X98404Y-70356D01*
G01X98385Y-70428D01*
G01X98362Y-70550D01*
G01X98346Y-70607D01*
G01X98335Y-70655D01*
G01X98319Y-70741D01*
G01X98277Y-70886D01*
G01X98258Y-70958D01*
G01X98245Y-71026D01*
G01X99111D01*
G01X99112Y-71008D01*
G01X99116Y-70983D01*
G01X99140Y-70894D01*
G01X99151Y-70839D01*
G01X99168Y-70738D01*
G01X99178Y-70695D01*
G01X99210Y-70589D01*
G01X99229Y-70518D01*
G01X99253Y-70396D01*
G01X99273Y-70319D01*
G01X99302Y-70196D01*
G01X99316Y-70144D01*
G01X99334Y-70073D01*
G01X99358Y-69951D01*
G01X99369Y-69910D01*
G01X99401Y-69826D01*
G01X99406Y-69813D01*
G01X99414Y-69802D01*
G01X99421Y-69792D01*
G01X99430Y-69783D01*
G01X99440Y-69776D01*
G01X99451Y-69770D01*
G01X99462Y-69766D01*
G01X99503Y-69758D01*
G01X99533Y-69754D01*
G01X99603Y-69751D01*
G01X99652Y-69750D01*
G01X99690Y-69745D01*
G01X99708Y-69741D01*
G01X99719Y-69738D01*
G01X99761Y-69735D01*
G01X99973Y-69730D01*
G01X100173Y-69734D01*
G01X100227Y-69738D01*
G01X100256Y-69745D01*
G01X100299Y-69751D01*
G01X100371Y-69754D01*
G01X100400Y-69760D01*
G01X100514Y-69794D01*
G01X100550Y-69805D01*
G01X100583Y-69818D01*
G01X100614Y-69832D01*
G01X100642Y-69847D01*
G01X100727Y-69900D01*
G01X100756Y-69924D01*
G01X100780Y-69953D01*
G01X100822Y-70017D01*
G01X100832Y-70034D01*
G01X100841Y-70054D01*
G01X100848Y-70077D01*
G01X100864Y-70149D01*
G01X100875Y-70186D01*
G01X100880Y-70207D01*
G01X100883Y-70237D01*
G01X100886Y-70324D01*
G01X100884Y-70394D01*
G01X100882Y-70428D01*
G01X100877Y-70458D01*
G01X100843Y-70558D01*
G01X100833Y-70587D01*
G01X100817Y-70621D01*
G01X100806Y-70636D01*
G01X100790Y-70654D01*
G01X100758Y-70695D01*
G01X100734Y-70725D01*
G01X100690Y-70760D01*
G01X100664Y-70786D01*
G01X100640Y-70817D01*
G01X100626Y-70830D01*
G01X100608Y-70843D01*
G01X100549Y-70876D01*
G01X100497Y-70908D01*
G01X100477Y-70918D01*
G01X100430Y-70939D01*
G01X100371Y-70960D01*
G01X100303Y-70982D01*
G01X100247Y-70996D01*
G01X100191Y-71008D01*
G01X100027Y-71035D01*
G01X100007Y-71037D01*
G01X99881Y-71043D01*
G01X99549Y-71045D01*
G01X99166Y-71041D01*
G01X99124Y-71037D01*
G01X99116Y-71036D01*
G01X99115D01*
G01X99114Y-71035D01*
G01X99111Y-71026D01*
G01X98245D01*
G01X98234Y-71080D01*
G01X98218Y-71138D01*
G01X98208Y-71186D01*
G01X98192Y-71271D01*
G01X98149Y-71417D01*
G01X98131Y-71488D01*
G01X98107Y-71610D01*
G01X98091Y-71668D01*
G01X98081Y-71715D01*
G01X98064Y-71801D01*
G01X98022Y-71947D01*
G01X98003Y-72019D01*
G01X97979Y-72141D01*
G01X97964Y-72198D01*
G01X97953Y-72246D01*
G01X97937Y-72332D01*
G01X97895Y-72477D01*
G01X97876Y-72549D01*
G01X97852Y-72671D01*
G01X97836Y-72728D01*
G01X97826Y-72776D01*
G01X97810Y-72862D01*
G01X97768Y-73008D01*
G01X97749Y-73079D01*
G01X97725Y-73201D01*
G01X97717Y-73230D01*
G01X98573D01*
G01X98584Y-73167D01*
G01X98595Y-73111D01*
G01X98637Y-72965D01*
G01X98652Y-72910D01*
G01X98663Y-72854D01*
G01X98680Y-72753D01*
G01X98690Y-72711D01*
G01X98722Y-72604D01*
G01X98740Y-72533D01*
G01X98764Y-72411D01*
G01X98781Y-72353D01*
G01X98791Y-72306D01*
G01X98807Y-72220D01*
G01X98849Y-72074D01*
G01X98868Y-72003D01*
G01X98892Y-71880D01*
G01X98918Y-71787D01*
G01X98923Y-71767D01*
G01X98934Y-71757D01*
G01X98959Y-71748D01*
G01X99000Y-71741D01*
G01X99128Y-71730D01*
G01X99433Y-71724D01*
G01X99913Y-71730D01*
G01X99957Y-71734D01*
G01X99962Y-71735D01*
G01X99979Y-71739D01*
G01X100017Y-71745D01*
G01X100077Y-71748D01*
G01X100112Y-71756D01*
G01X100207Y-71788D01*
G01X100265Y-71809D01*
G01X100335Y-71842D01*
G01X100358Y-71857D01*
G01X100408Y-71894D01*
G01X100433Y-71915D01*
G01X100453Y-71934D01*
G01X100477Y-71960D01*
G01X100550Y-72064D01*
G01X100562Y-72088D01*
G01X100571Y-72112D01*
G01X100589Y-72186D01*
G01X100602Y-72232D01*
G01X100607Y-72278D01*
G01X100610Y-72382D01*
G01X100608Y-72475D01*
G01X100603Y-72526D01*
G01X100589Y-72578D01*
G01X100572Y-72651D01*
G01X100561Y-72684D01*
G01X100551Y-72702D01*
G01X100493Y-72795D01*
G01X100477Y-72820D01*
G01X100453Y-72849D01*
G01X100438Y-72864D01*
G01X100414Y-72881D01*
G01X100388Y-72908D01*
G01X100353Y-72952D01*
G01X100323Y-72976D01*
G01X100227Y-73044D01*
G01X100204Y-73058D01*
G01X100180Y-73071D01*
G01X100154Y-73082D01*
G01X100048Y-73124D01*
G01X99947Y-73161D01*
G01X99898Y-73176D01*
G01X99862Y-73185D01*
G01X99804Y-73196D01*
G01X99711Y-73209D01*
G01X99649Y-73224D01*
G01X99606Y-73230D01*
G01X99533Y-73233D01*
G01X99505Y-73238D01*
G01X99484Y-73243D01*
G01X99429Y-73248D01*
G01X99125Y-73252D01*
G01X98829Y-73248D01*
G01X98787Y-73244D01*
G01X98778Y-73242D01*
G01X98776Y-73241D01*
G01X98775D01*
G01X98764Y-73236D01*
G01X98744Y-73233D01*
G01X98669Y-73230D01*
G01X98573D01*
G01X97717D01*
G01X97709Y-73259D01*
G01X97699Y-73306D01*
G01X97683Y-73392D01*
G01X97640Y-73538D01*
G01X97622Y-73610D01*
G01X97598Y-73732D01*
G01X97587Y-73771D01*
G01X97583Y-73786D01*
G01X97582Y-73800D01*
G01X97583Y-73813D01*
G01X97587Y-73824D01*
G01X97596Y-73834D01*
G01X97614Y-73843D01*
G01X97639Y-73850D01*
G01X97736Y-73867D01*
G01X97795Y-73882D01*
G01X97832Y-73887D01*
G01X97892Y-73891D01*
G01X97943Y-73903D01*
G01X97981Y-73908D01*
G01X98040Y-73912D01*
G01X98075Y-73920D01*
G01X98094Y-73924D01*
G01X98118Y-73928D01*
G01X98231Y-73932D01*
G01X98269Y-73936D01*
G01X98297Y-73943D01*
G01X98346Y-73949D01*
G01X98553Y-73954D01*
G01X98592Y-73958D01*
G01X98601Y-73960D01*
G01X98604Y-73961D01*
G01X98605Y-73962D01*
G01X98613Y-73965D01*
G01X98633Y-73967D01*
G01X98824Y-73972D01*
G01X98987Y-73973D01*
G01X99333Y-73968D01*
G01X99383Y-73964D01*
G01X99390Y-73962D01*
G01X99410Y-73958D01*
G01X99438Y-73954D01*
G01X99518Y-73952D01*
G01X99580Y-73950D01*
G01X99625Y-73945D01*
G01X99661Y-73936D01*
G01X99699Y-73931D01*
G01X99759Y-73928D01*
G01X99812Y-73915D01*
G01X99871Y-73904D01*
G01X99982Y-73888D01*
G01X100027Y-73877D01*
G01X100133Y-73845D01*
G01X100232Y-73820D01*
G01X100285Y-73808D01*
G01X100318Y-73796D01*
G01X100337Y-73787D01*
G01X100362Y-73772D01*
G01X100382Y-73763D01*
G01X100405Y-73756D01*
G01X100455Y-73744D01*
G01X100487Y-73733D01*
G01X100506Y-73723D01*
G01X100551Y-73697D01*
G01X100636Y-73660D01*
G01X100676Y-73639D01*
G01X100854Y-73527D01*
G01X100914Y-73484D01*
G01X101006Y-73412D01*
G01X101039Y-73389D01*
G01X101066Y-73362D01*
G01X101101Y-73318D01*
G01X101130Y-73294D01*
G01X101144Y-73283D01*
G01X101156Y-73270D01*
G01X101166Y-73256D01*
G01X101179Y-73226D01*
G01X101188Y-73212D01*
G01X101200Y-73199D01*
G01X101229Y-73176D01*
G01X101241Y-73164D01*
G01X101250Y-73150D01*
G01X101263Y-73119D01*
G01X101279Y-73087D01*
G01X101310Y-73034D01*
G01X101347Y-72950D01*
G01X101368Y-72910D01*
G01X101384Y-72884D01*
G01X101395Y-72862D01*
G01X101416Y-72806D01*
G01X101430Y-72758D01*
G01X101442Y-72711D01*
G01X101458Y-72623D01*
G01X101475Y-72563D01*
G01X101485Y-72500D01*
G01X101490Y-72456D01*
G01X101497Y-72367D01*
G01X101501Y-72234D01*
G01X101499Y-72140D01*
G01X101494Y-72090D01*
G01X101480Y-72037D01*
G01X101463Y-71964D01*
G01X101452Y-71931D01*
G01X101443Y-71913D01*
G01X101427Y-71888D01*
G01X101412Y-71851D01*
G01X101399Y-71810D01*
G01X101392Y-71793D01*
G01X101384Y-71778D01*
G01X101362Y-71754D01*
G01X101350Y-71738D01*
G01X101305Y-71668D01*
G01X101281Y-71639D01*
G01X101265Y-71624D01*
G01X101242Y-71607D01*
G01X101215Y-71580D01*
G01X101191Y-71549D01*
G01X101175Y-71534D01*
G01X101154Y-71517D01*
G01X101130Y-71502D01*
G01X101008Y-71427D01*
G01X100936Y-71395D01*
G01X100915Y-71382D01*
G01X100898Y-71368D01*
G01X100886Y-71353D01*
G01X100879Y-71338D01*
G01X100880Y-71327D01*
G01X100890Y-71317D01*
G01X100927Y-71304D01*
G01X100964Y-71289D01*
G01X101016Y-71260D01*
G01X101075Y-71241D01*
G01X101093Y-71234D01*
G01X101107Y-71225D01*
G01X101132Y-71204D01*
G01X101148Y-71191D01*
G01X101233Y-71137D01*
G01X101299Y-71088D01*
G01X101324Y-71067D01*
G01X101344Y-71048D01*
G01X101368Y-71022D01*
G01X101385Y-70999D01*
G01X101412Y-70972D01*
G01X101443Y-70948D01*
G01X101458Y-70932D01*
G01X101475Y-70911D01*
G01X101513Y-70851D01*
G01X101538Y-70818D01*
G01X101554Y-70799D01*
G01X101575Y-70762D01*
G01X101607Y-70693D01*
G01X101618Y-70676D01*
G01X101638Y-70652D01*
G01X101647Y-70637D01*
G01X101654Y-70620D01*
G01X101673Y-70558D01*
G01X101697Y-70504D01*
G01X101706Y-70479D01*
G01X101714Y-70449D01*
G01X101734Y-70335D01*
G01X101747Y-70282D01*
G01X101753Y-70226D01*
G01X101755Y-70091D01*
G01X101753Y-69956D01*
G01X101747Y-69899D01*
G01X101734Y-69852D01*
G01X101718Y-69779D01*
G01X101706Y-69746D01*
G01X101697Y-69728D01*
G01X101671Y-69682D01*
G01X101638Y-69610D01*
G01X101625Y-69590D01*
G01X101612Y-69573D01*
G01X101596Y-69560D01*
G01X101582Y-69549D01*
G01X101570Y-69537D01*
G01X101560Y-69523D01*
G01X101547Y-69492D01*
G01X101538Y-69479D01*
G01X101526Y-69466D01*
G01X101496Y-69443D01*
G01X101470Y-69417D01*
G01X101447Y-69387D01*
G01X101434Y-69375D01*
G01X101421Y-69366D01*
G01X101390Y-69353D01*
G01X101376Y-69346D01*
G01X101364Y-69337D01*
G01X101323Y-69303D01*
G01X101278Y-69274D01*
G01X101238Y-69252D01*
G01X101199Y-69232D01*
G01X101099Y-69190D01*
G01X101055Y-69169D01*
G01X101007Y-69153D01*
G01X100934Y-69136D01*
G01X100790Y-69094D01*
G01X100739Y-69081D01*
G01X100710Y-69076D01*
G01X100653Y-69072D01*
G01X100616Y-69067D01*
G01X100581Y-69058D01*
G01X100557Y-69054D01*
G01X100444Y-69050D01*
G01X100406Y-69045D01*
G01X100387Y-69041D01*
G01X100373Y-69038D01*
G01X100310Y-69035D01*
G37*
G36*
G01X102562Y-69073D02*
G01X102540Y-69147D01*
G01X102526Y-69203D01*
G01X102514Y-69258D01*
G01X102498Y-69359D01*
G01X102487Y-69401D01*
G01X102455Y-69508D01*
G01X102437Y-69579D01*
G01X102413Y-69701D01*
G01X102402Y-69741D01*
G01X102399Y-69756D01*
G01X102397Y-69770D01*
G01X102399Y-69782D01*
G01X102402Y-69794D01*
G01X102416Y-69799D01*
G01X102451Y-69803D01*
G01X102685Y-69812D01*
G01X103113Y-69815D01*
G01X103604Y-69824D01*
G01X103714Y-69832D01*
G01X103757Y-69837D01*
G01X103788Y-69843D01*
G01X103801Y-69847D01*
G01X103809Y-69851D01*
G01X103811Y-69854D01*
G01X103812Y-69855D01*
G01X103813Y-69856D01*
G01Y-69857D01*
G01X103812Y-69878D01*
G01X103807Y-69915D01*
G01X103771Y-70038D01*
G01X103752Y-70110D01*
G01X103728Y-70232D01*
G01X103712Y-70289D01*
G01X103702Y-70337D01*
G01X103686Y-70423D01*
G01X103643Y-70568D01*
G01X103625Y-70640D01*
G01X103601Y-70762D01*
G01X103585Y-70819D01*
G01X103575Y-70867D01*
G01X103558Y-70953D01*
G01X103516Y-71099D01*
G01X103497Y-71170D01*
G01X103474Y-71292D01*
G01X103458Y-71350D01*
G01X103447Y-71397D01*
G01X103431Y-71483D01*
G01X103389Y-71629D01*
G01X103370Y-71700D01*
G01X103347Y-71823D01*
G01X103330Y-71880D01*
G01X103320Y-71928D01*
G01X103304Y-72013D01*
G01X103262Y-72159D01*
G01X103243Y-72230D01*
G01X103219Y-72352D01*
G01X103203Y-72410D01*
G01X103193Y-72458D01*
G01X103177Y-72543D01*
G01X103134Y-72689D01*
G01X103116Y-72761D01*
G01X103092Y-72883D01*
G01X103076Y-72941D01*
G01X103065Y-72988D01*
G01X103049Y-73074D01*
G01X103007Y-73220D01*
G01X102988Y-73291D01*
G01X102964Y-73413D01*
G01X102943Y-73490D01*
G01X102915Y-73612D01*
G01X102901Y-73665D01*
G01X102882Y-73737D01*
G01X102861Y-73845D01*
G01X102853Y-73874D01*
G01X102848Y-73888D01*
G01X102852Y-73893D01*
G01X102871Y-73897D01*
G01X102949Y-73904D01*
G01X103272Y-73909D01*
G01X103707D01*
G01X103728Y-73835D01*
G01X103743Y-73779D01*
G01X103754Y-73723D01*
G01X103771Y-73623D01*
G01X103781Y-73580D01*
G01X103813Y-73474D01*
G01X103832Y-73402D01*
G01X103856Y-73281D01*
G01X103871Y-73223D01*
G01X103882Y-73175D01*
G01X103898Y-73090D01*
G01X103940Y-72944D01*
G01X103959Y-72873D01*
G01X103983Y-72750D01*
G01X103999Y-72693D01*
G01X104009Y-72645D01*
G01X104025Y-72560D01*
G01X104067Y-72414D01*
G01X104086Y-72342D01*
G01X104110Y-72220D01*
G01X104131Y-72143D01*
G01X104159Y-72021D01*
G01X104174Y-71968D01*
G01X104192Y-71897D01*
G01X104216Y-71775D01*
G01X104258Y-71629D01*
G01X104273Y-71573D01*
G01X104284Y-71517D01*
G01X104301Y-71417D01*
G01X104312Y-71374D01*
G01X104343Y-71268D01*
G01X104362Y-71197D01*
G01X104386Y-71075D01*
G01X104402Y-71017D01*
G01X104412Y-70969D01*
G01X104428Y-70884D01*
G01X104471Y-70738D01*
G01X104489Y-70666D01*
G01X104513Y-70544D01*
G01X104529Y-70487D01*
G01X104539Y-70439D01*
G01X104556Y-70353D01*
G01X104598Y-70208D01*
G01X104617Y-70136D01*
G01X104640Y-70014D01*
G01X104656Y-69956D01*
G01X104667Y-69908D01*
G01X104683Y-69815D01*
G01X106125D01*
G01X106146Y-69751D01*
G01X106161Y-69704D01*
G01X106172Y-69656D01*
G01X106189Y-69569D01*
G01X106231Y-69423D01*
G01X106250Y-69351D01*
G01X106274Y-69229D01*
G01X106300Y-69136D01*
G01X106316Y-69073D01*
G37*
G36*
G01X114069Y-70176D02*
G01X113926Y-70178D01*
G01X113871Y-70183D01*
G01X113859Y-70186D01*
G01X113838Y-70192D01*
G01X113785Y-70202D01*
G01X113696Y-70217D01*
G01X113646Y-70229D01*
G01X113613Y-70240D01*
G01X113486Y-70282D01*
G01X113383Y-70319D01*
G01X113332Y-70340D01*
G01X113293Y-70362D01*
G01X113199Y-70419D01*
G01X113137Y-70460D01*
G01X113029Y-70536D01*
G01X112970Y-70580D01*
G01X112839Y-70685D01*
G01X112814Y-70705D01*
G01X112794Y-70725D01*
G01X112770Y-70751D01*
G01X112743Y-70788D01*
G01X112711Y-70823D01*
G01X112679Y-70865D01*
G01X112648Y-70907D01*
G01X112605Y-70956D01*
G01X112542Y-71045D01*
G01X112510Y-71091D01*
G01X112414Y-71243D01*
G01X112404Y-71263D01*
G01X112367Y-71348D01*
G01X112346Y-71387D01*
G01X112329Y-71413D01*
G01X112319Y-71435D01*
G01X112298Y-71491D01*
G01X112277Y-71549D01*
G01X112246Y-71619D01*
G01X112229Y-71667D01*
G01X112210Y-71743D01*
G01X112187Y-71799D01*
G01X112178Y-71824D01*
G01X112169Y-71854D01*
G01X112149Y-71968D01*
G01X112128Y-72048D01*
G01X112118Y-72095D01*
G01X112096Y-72223D01*
G01X112075Y-72393D01*
G01X112069Y-72476D01*
G01X112067Y-72530D01*
G01X112892D01*
G01X112893Y-72461D01*
G01X112896Y-72427D01*
G01X112901Y-72397D01*
G01X112907Y-72374D01*
G01X112910Y-72350D01*
G01X112915Y-72237D01*
G01X112919Y-72199D01*
G01X112929Y-72162D01*
G01X112940Y-72109D01*
G01X112955Y-72011D01*
G01X112966Y-71968D01*
G01X113040Y-71745D01*
G01X113056Y-71702D01*
G01X113077Y-71658D01*
G01X113104Y-71613D01*
G01X113141Y-71528D01*
G01X113162Y-71489D01*
G01X113188Y-71446D01*
G01X113222Y-71384D01*
G01X113236Y-71361D01*
G01X113274Y-71310D01*
G01X113325Y-71243D01*
G01X113349Y-71210D01*
G01X113375Y-71184D01*
G01X113420Y-71149D01*
G01X113444Y-71119D01*
G01X113455Y-71104D01*
G01X113470Y-71091D01*
G01X113487Y-71078D01*
G01X113544Y-71045D01*
G01X113565Y-71030D01*
G01X113583Y-71014D01*
G01X113620Y-70992D01*
G01X113682Y-70966D01*
G01X113721Y-70945D01*
G01X113748Y-70929D01*
G01X113772Y-70921D01*
G01X113801Y-70914D01*
G01X113990Y-70882D01*
G01X114019Y-70878D01*
G01X114080Y-70876D01*
G01X114135Y-70878D01*
G01X114167Y-70884D01*
G01X114193Y-70892D01*
G01X114241Y-70902D01*
G01X114299Y-70914D01*
G01X114323Y-70921D01*
G01X114342Y-70929D01*
G01X114349Y-70934D01*
G01X114368Y-70950D01*
G01X114399Y-70971D01*
G01X114438Y-70993D01*
G01X114453Y-71006D01*
G01X114460Y-71012D01*
G01X114465Y-71019D01*
G01X114469Y-71027D01*
G01X114478Y-71050D01*
G01X114485Y-71064D01*
G01X114494Y-71077D01*
G01X114514Y-71101D01*
G01X114536Y-71138D01*
G01X114578Y-71236D01*
G01X114598Y-71279D01*
G01X114605Y-71300D01*
G01X114609Y-71321D01*
G01X114610Y-71363D01*
G01X114616Y-71400D01*
G01X114625Y-71436D01*
G01X114629Y-71462D01*
G01X114633Y-71588D01*
G01X114637Y-71625D01*
G01X114639Y-71633D01*
G01X114646Y-71651D01*
G01X114647Y-71663D01*
G01X114646Y-71677D01*
G01X114637Y-71713D01*
G01X114634Y-71743D01*
G01X114631Y-71830D01*
G01X114630Y-71899D01*
G01X114627Y-71934D01*
G01X114622Y-71964D01*
G01X114615Y-71987D01*
G01X114605Y-72040D01*
G01X114589Y-72138D01*
G01X114578Y-72180D01*
G01X114504Y-72403D01*
G01X114467Y-72506D01*
G01X114446Y-72557D01*
G01X114424Y-72596D01*
G01X114398Y-72641D01*
G01X114366Y-72715D01*
G01X114353Y-72740D01*
G01X114339Y-72763D01*
G01X114271Y-72859D01*
G01X114227Y-72919D01*
G01X114186Y-72969D01*
G01X114167Y-72989D01*
G01X114141Y-73012D01*
G01X114118Y-73030D01*
G01X114091Y-73056D01*
G01X114068Y-73086D01*
G01X114053Y-73100D01*
G01X114036Y-73113D01*
G01X113984Y-73142D01*
G01X113953Y-73162D01*
G01X113909Y-73193D01*
G01X113886Y-73206D01*
G01X113862Y-73219D01*
G01X113836Y-73230D01*
G01X113777Y-73252D01*
G01X113709Y-73273D01*
G01X113689Y-73277D01*
G01X113642Y-73286D01*
G01X113587Y-73291D01*
G01X113486Y-73294D01*
G01X113382Y-73292D01*
G01X113340Y-73288D01*
G01X113331Y-73286D01*
G01X113329Y-73285D01*
G01X113327Y-73284D01*
G01X113318Y-73278D01*
G01X113281Y-73267D01*
G01X113211Y-73253D01*
G01X113190Y-73245D01*
G01X113181Y-73240D01*
G01X113173Y-73235D01*
G01X113156Y-73220D01*
G01X113114Y-73188D01*
G01X113085Y-73164D01*
G01X113061Y-73135D01*
G01X112994Y-73039D01*
G01X112982Y-73015D01*
G01X112973Y-72991D01*
G01X112960Y-72939D01*
G01X112944Y-72891D01*
G01X112925Y-72847D01*
G01X112918Y-72822D01*
G01X112913Y-72779D01*
G01X112910Y-72708D01*
G01X112905Y-72677D01*
G01X112898Y-72648D01*
G01X112894Y-72618D01*
G01X112892Y-72530D01*
G01X112067D01*
G01X112064Y-72668D01*
G01X112067Y-72811D01*
G01X112072Y-72867D01*
G01X112074Y-72878D01*
G01X112081Y-72900D01*
G01X112091Y-72958D01*
G01X112102Y-73037D01*
G01X112110Y-73071D01*
G01X112123Y-73113D01*
G01X112147Y-73169D01*
G01X112160Y-73220D01*
G01X112166Y-73245D01*
G01X112178Y-73277D01*
G01X112187Y-73296D01*
G01X112213Y-73341D01*
G01X112245Y-73414D01*
G01X112261Y-73443D01*
G01X112272Y-73458D01*
G01X112309Y-73502D01*
G01X112363Y-73576D01*
G01X112403Y-73626D01*
G01X112422Y-73647D01*
G01X112449Y-73670D01*
G01X112472Y-73687D01*
G01X112499Y-73713D01*
G01X112521Y-73743D01*
G01X112534Y-73756D01*
G01X112548Y-73765D01*
G01X112578Y-73777D01*
G01X112592Y-73784D01*
G01X112605Y-73793D01*
G01X112629Y-73813D01*
G01X112666Y-73835D01*
G01X112727Y-73861D01*
G01X112767Y-73883D01*
G01X112793Y-73898D01*
G01X112815Y-73909D01*
G01X112870Y-73930D01*
G01X112931Y-73949D01*
G01X113094Y-73983D01*
G01X113141Y-73994D01*
G01X113178Y-74004D01*
G01X113203Y-74009D01*
G01X113247Y-74013D01*
G01X113390Y-74015D01*
G01X113533Y-74013D01*
G01X113589Y-74007D01*
G01X113600Y-74005D01*
G01X113620Y-74000D01*
G01X113662Y-73995D01*
G01X113735Y-73991D01*
G01X113764Y-73986D01*
G01X113790Y-73978D01*
G01X113838Y-73967D01*
G01X113898Y-73956D01*
G01X113926Y-73949D01*
G01X113951Y-73940D01*
G01X113996Y-73921D01*
G01X114043Y-73904D01*
G01X114094Y-73893D01*
G01X114127Y-73881D01*
G01X114146Y-73872D01*
G01X114191Y-73845D01*
G01X114276Y-73808D01*
G01X114315Y-73787D01*
G01X114408Y-73729D01*
G01X114448Y-73703D01*
G01X114514Y-73654D01*
G01X114582Y-73603D01*
G01X114629Y-73570D01*
G01X114664Y-73538D01*
G01X114705Y-73506D01*
G01X114734Y-73482D01*
G01X114770Y-73438D01*
G01X114796Y-73411D01*
G01X114826Y-73389D01*
G01X114838Y-73376D01*
G01X114847Y-73362D01*
G01X114860Y-73332D01*
G01X114870Y-73318D01*
G01X114882Y-73305D01*
G01X114911Y-73283D01*
G01X114923Y-73270D01*
G01X114932Y-73256D01*
G01X114945Y-73226D01*
G01X114952Y-73212D01*
G01X114960Y-73199D01*
G01X114994Y-73159D01*
G01X115023Y-73113D01*
G01X115130Y-72944D01*
G01X115152Y-72904D01*
G01X115171Y-72864D01*
G01X115214Y-72764D01*
G01X115251Y-72685D01*
G01X115268Y-72647D01*
G01X115305Y-72546D01*
G01X115310Y-72530D01*
G01X115353Y-72393D01*
G01X115371Y-72321D01*
G01X115395Y-72199D01*
G01X115410Y-72141D01*
G01X115421Y-72088D01*
G01X115427Y-72053D01*
G01X115454Y-71886D01*
G01X115458Y-71846D01*
G01X115461Y-71772D01*
G01X115466Y-71743D01*
G01X115471Y-71725D01*
G01X115477Y-71671D01*
G01X115480Y-71544D01*
G01X115477Y-71417D01*
G01X115472Y-71369D01*
G01X115464Y-71336D01*
G01X115459Y-71299D01*
G01X115456Y-71239D01*
G01X115448Y-71204D01*
G01X115442Y-71187D01*
G01X115432Y-71139D01*
G01X115421Y-71078D01*
G01X115414Y-71051D01*
G01X115405Y-71026D01*
G01X115379Y-70968D01*
G01X115353Y-70897D01*
G01X115336Y-70854D01*
G01X115315Y-70810D01*
G01X115232Y-70677D01*
G01X115183Y-70610D01*
G01X115162Y-70586D01*
G01X115143Y-70566D01*
G01X115116Y-70542D01*
G01X115093Y-70525D01*
G01X115067Y-70499D01*
G01X115043Y-70467D01*
G01X115026Y-70451D01*
G01X115006Y-70436D01*
G01X114919Y-70380D01*
G01X114863Y-70341D01*
G01X114838Y-70327D01*
G01X114810Y-70314D01*
G01X114721Y-70282D01*
G01X114651Y-70251D01*
G01X114626Y-70242D01*
G01X114598Y-70235D01*
G01X114512Y-70218D01*
G01X114452Y-70202D01*
G01X114388Y-70192D01*
G01X114345Y-70186D01*
G01X114261Y-70180D01*
G37*
G36*
G01X118131Y-70176D02*
G01X117957Y-70179D01*
G01X117898Y-70184D01*
G01X117871Y-70191D01*
G01X117834Y-70196D01*
G01X117773Y-70200D01*
G01X117739Y-70208D01*
G01X117721Y-70213D01*
G01X117673Y-70223D01*
G01X117613Y-70235D01*
G01X117585Y-70242D01*
G01X117560Y-70251D01*
G01X117515Y-70271D01*
G01X117467Y-70286D01*
G01X117417Y-70299D01*
G01X117384Y-70310D01*
G01X117365Y-70319D01*
G01X117340Y-70334D01*
G01X117303Y-70350D01*
G01X117243Y-70369D01*
G01X117208Y-70388D01*
G01X117174Y-70409D01*
G01X117102Y-70448D01*
G01X117071Y-70468D01*
G01X117004Y-70515D01*
G01X116914Y-70572D01*
G01X116848Y-70621D01*
G01X116794Y-70666D01*
G01X116762Y-70695D01*
G01X116721Y-70727D01*
G01X116705Y-70740D01*
G01X116689Y-70756D01*
G01X116673Y-70777D01*
G01X116641Y-70826D01*
G01X116617Y-70855D01*
G01X116601Y-70870D01*
G01X116577Y-70888D01*
G01X116562Y-70905D01*
G01X116545Y-70925D01*
G01X116507Y-70985D01*
G01X116482Y-71018D01*
G01X116466Y-71037D01*
G01X116453Y-71053D01*
G01X116384Y-71161D01*
G01X116345Y-71216D01*
G01X116331Y-71239D01*
G01X116318Y-71264D01*
G01X116291Y-71326D01*
G01X116270Y-71366D01*
G01X116254Y-71392D01*
G01X116243Y-71414D01*
G01X116222Y-71470D01*
G01X116201Y-71528D01*
G01X116169Y-71599D01*
G01X116153Y-71641D01*
G01X116095Y-71830D01*
G01X116085Y-71863D01*
G01X116076Y-71899D01*
G01X116066Y-71958D01*
G01X116053Y-72050D01*
G01X116037Y-72113D01*
G01X116032Y-72155D01*
G01X116029Y-72228D01*
G01X116023Y-72257D01*
G01X116018Y-72277D01*
G01X116014Y-72320D01*
G01X116010Y-72552D01*
G01X116013Y-72775D01*
G01X116018Y-72826D01*
G01X116020Y-72836D01*
G01X116026Y-72856D01*
G01X116036Y-72910D01*
G01X116048Y-72979D01*
G01X116055Y-73010D01*
G01X116068Y-73049D01*
G01X116092Y-73106D01*
G01X116105Y-73156D01*
G01X116112Y-73181D01*
G01X116123Y-73214D01*
G01X116132Y-73233D01*
G01X116158Y-73278D01*
G01X116190Y-73350D01*
G01X116206Y-73380D01*
G01X116217Y-73394D01*
G01X116246Y-73429D01*
G01X116291Y-73499D01*
G01X116315Y-73528D01*
G01X116331Y-73543D01*
G01X116354Y-73560D01*
G01X116380Y-73586D01*
G01X116416Y-73631D01*
G01X116445Y-73654D01*
G01X116486Y-73686D01*
G01X116536Y-73729D01*
G01X116614Y-73782D01*
G01X116699Y-73835D01*
G01X116725Y-73849D01*
G01X116750Y-73861D01*
G01X116773Y-73871D01*
G01X116837Y-73891D01*
G01X116903Y-73920D01*
G01X116945Y-73936D01*
G01X116996Y-73952D01*
G01X117055Y-73966D01*
G01X117119Y-73977D01*
G01X117226Y-73991D01*
G01X117257Y-73998D01*
G01X117265Y-74000D01*
G01X117268Y-74002D01*
G01X117270Y-74003D01*
G01X117272Y-74004D01*
G01X117290Y-74009D01*
G01X117401Y-74015D01*
G01X117495D01*
G01X117669Y-74012D01*
G01X117728Y-74007D01*
G01X117756Y-74000D01*
G01X117799Y-73995D01*
G01X117871Y-73991D01*
G01X117900Y-73986D01*
G01X117927Y-73978D01*
G01X117980Y-73967D01*
G01X118050Y-73956D01*
G01X118081Y-73949D01*
G01X118120Y-73935D01*
G01X118176Y-73912D01*
G01X118252Y-73893D01*
G01X118300Y-73876D01*
G01X118365Y-73848D01*
G01X118417Y-73832D01*
G01X118437Y-73824D01*
G01X118456Y-73813D01*
G01X118473Y-73800D01*
G01X118488Y-73784D01*
G01X118501Y-73767D01*
G01X118505Y-73758D01*
G01X118508Y-73748D01*
G01X118511Y-73739D01*
G01X118513Y-73718D01*
G01X118510Y-73678D01*
G01X118502Y-73644D01*
G01X118498Y-73625D01*
G01X118495Y-73602D01*
G01X118490Y-73488D01*
G01X118486Y-73450D01*
G01X118481Y-73432D01*
G01X118477Y-73413D01*
G01X118473Y-73389D01*
G01X118469Y-73276D01*
G01X118465Y-73238D01*
G01X118455Y-73204D01*
G01X118450Y-73172D01*
G01X118449Y-73156D01*
G01X118446Y-73143D01*
G01X118436Y-73135D01*
G01X118419Y-73132D01*
G01X118397Y-73135D01*
G01X118346Y-73148D01*
G01X118279Y-73176D01*
G01X118231Y-73193D01*
G01X118158Y-73209D01*
G01X118084Y-73230D01*
G01X118036Y-73241D01*
G01X117930Y-73262D01*
G01X117892Y-73268D01*
G01X117834Y-73273D01*
G01X117795Y-73275D01*
G01X117760Y-73284D01*
G01X117739Y-73288D01*
G01X117707Y-73291D01*
G01X117639Y-73294D01*
G01X117612D01*
G01X117526Y-73292D01*
G01X117478Y-73287D01*
G01X117445Y-73278D01*
G01X117391Y-73267D01*
G01X117323Y-73256D01*
G01X117281Y-73245D01*
G01X117260Y-73235D01*
G01X117216Y-73209D01*
G01X117155Y-73176D01*
G01X117132Y-73161D01*
G01X117069Y-73113D01*
G01X117046Y-73091D01*
G01X117027Y-73067D01*
G01X117013Y-73042D01*
G01X116996Y-73004D01*
G01X116980Y-72975D01*
G01X116970Y-72960D01*
G01X116955Y-72943D01*
G01X116946Y-72928D01*
G01X116939Y-72911D01*
G01X116917Y-72833D01*
G01X116901Y-72780D01*
G01X116890Y-72732D01*
G01X116869Y-72626D01*
G01X116862Y-72568D01*
G01X116859Y-72436D01*
G01X116858Y-72393D01*
G01X116861Y-72249D01*
G01X116866Y-72194D01*
G01X116868Y-72182D01*
G01X116874Y-72164D01*
G01X116879Y-72127D01*
G01X116882Y-72066D01*
G01X116901Y-71995D01*
G01X116922Y-71899D01*
G01X116932Y-71862D01*
G01X116964Y-71777D01*
G01X117007Y-71671D01*
G01X117039Y-71598D01*
G01X117071Y-71536D01*
G01X117145Y-71417D01*
G01X117167Y-71382D01*
G01X117193Y-71348D01*
G01X117230Y-71304D01*
G01X117251Y-71274D01*
G01X117278Y-71248D01*
G01X117323Y-71212D01*
G01X117346Y-71183D01*
G01X117358Y-71169D01*
G01X117370Y-71157D01*
G01X117384Y-71147D01*
G01X117415Y-71135D01*
G01X117428Y-71128D01*
G01X117441Y-71119D01*
G01X117482Y-71085D01*
G01X117527Y-71056D01*
G01X117566Y-71034D01*
G01X117606Y-71014D01*
G01X117706Y-70971D01*
G01X117765Y-70946D01*
G01X117794Y-70938D01*
G01X117908Y-70918D01*
G01X117969Y-70903D01*
G01X117993Y-70900D01*
G01X118105Y-70895D01*
G01X118138Y-70891D01*
G01X118146Y-70889D01*
G01X118164Y-70882D01*
G01X118176Y-70881D01*
G01X118190Y-70882D01*
G01X118225Y-70891D01*
G01X118253Y-70894D01*
G01X118333Y-70897D01*
G01X118395Y-70899D01*
G01X118440Y-70903D01*
G01X118478Y-70913D01*
G01X118526Y-70923D01*
G01X118586Y-70935D01*
G01X118614Y-70942D01*
G01X118639Y-70951D01*
G01X118704Y-70979D01*
G01X118747Y-70992D01*
G01X118798Y-71002D01*
G01X118810Y-71003D01*
G01X118820Y-71001D01*
G01X118828Y-70992D01*
G01X118836Y-70979D01*
G01X118848Y-70940D01*
G01X118864Y-70903D01*
G01X118892Y-70852D01*
G01X118912Y-70791D01*
G01X118927Y-70754D01*
G01X118958Y-70698D01*
G01X118995Y-70599D01*
G01X119017Y-70556D01*
G01X119033Y-70529D01*
G01X119043Y-70507D01*
G01X119065Y-70451D01*
G01X119087Y-70388D01*
G01X119097Y-70367D01*
G01X119091Y-70348D01*
G01X119054Y-70335D01*
G01X119028Y-70329D01*
G01X118996Y-70317D01*
G01X118977Y-70308D01*
G01X118951Y-70293D01*
G01X118929Y-70284D01*
G01X118903Y-70277D01*
G01X118818Y-70260D01*
G01X118741Y-70240D01*
G01X118693Y-70229D01*
G01X118587Y-70208D01*
G01X118524Y-70197D01*
G01X118439Y-70186D01*
G01X118368Y-70181D01*
G37*
G04 Text End*

G04 Rect Start*
G54D10*
G01X3478Y-19650D02*
G01X3478Y-61707D01*
G03X7478Y-65707I4000J0D01*
G01X25100D01*
G03X29100Y-61707I0J4000D01*
G01Y-19650D01*
G03X25100Y-15650I-4000J0D01*
G01X7478D01*
G03X3478Y-19650I0J-4000D01*
G01X34786Y-19650D02*
G01X34786Y-61707D01*
G03X38786Y-65707I4000J0D01*
G01X56408D01*
G03X60408Y-61707I0J4000D01*
G01Y-19650D01*
G03X56408Y-15650I-4000J0D01*
G01X38786D01*
G03X34786Y-19650I0J-4000D01*
G01X97172Y-19650D02*
G01X97172Y-61707D01*
G03X101172Y-65707I4000J0D01*
G01X118794D01*
G03X122794Y-61707I0J4000D01*
G01Y-19650D01*
G03X118794Y-15650I-4000J0D01*
G01X101172D01*
G03X97172Y-19650I0J-4000D01*
G01X128366Y-19650D02*
G01X128366Y-61707D01*
G03X132366Y-65707I4000J0D01*
G01X149988D01*
G03X153988Y-61707I0J4000D01*
G01Y-19650D01*
G03X149988Y-15650I-4000J0D01*
G01X132366D01*
G03X128366Y-19650I0J-4000D01*
G01X190752Y-19650D02*
G01X190752Y-61707D01*
G03X194752Y-65707I4000J0D01*
G01X212374D01*
G03X216374Y-61707I0J4000D01*
G01Y-19650D01*
G03X212374Y-15650I-4000J0D01*
G01X194752D01*
G03X190752Y-19650I0J-4000D01*
G01X65979Y-19650D02*
G01X65979Y-61707D01*
G03X69979Y-65707I4000J0D01*
G01X87601D01*
G03X91601Y-61707I0J4000D01*
G01Y-19650D01*
G03X87601Y-15650I-4000J0D01*
G01X69979D01*
G03X65979Y-19650I0J-4000D01*
G01X159559Y-19650D02*
G01X159559Y-61707D01*
G03X163559Y-65707I4000J0D01*
G01X181181D01*
G03X185181Y-61707I0J4000D01*
G01Y-19650D01*
G03X181181Y-15650I-4000J0D01*
G01X163559D01*
G03X159559Y-19650I0J-4000D01*
G04 Rect End*

G04 Pad Start*
G54D11*
G01X215500Y-4500D03*
G01X215500Y-76800D03*
G01X4500Y-4500D03*
G01X4500Y-76800D03*
G04 Pad End*

M02*
