G04 Layer: BottomSolderMaskLayer*
G04 EasyEDA Pro v1.9.29, 2023-06-21 20:50:08*
G04 Gerber Generator version 0.3*
G04 Scale: 100 percent, Rotated: No, Reflected: No*
G04 Dimensions in millimeters*
G04 Leading zeros omitted, absolute positions, 3 integers and 3 decimals*
%FSLAX33Y33*%
%MOMM*%
%ADD10C,0.499999*%
%ADD11C,3.101599*%
G75*


G04 Rect Start*
G54D10*
G01X66399Y-20150D02*
G01X66399Y-61150D01*
G03X70399Y-65150I4000J0D01*
G01X87021D01*
G03X91021Y-61150I0J4000D01*
G01Y-20150D01*
G03X87021Y-16150I-4000J0D01*
G01X70399D01*
G03X66399Y-20150I0J-4000D01*
G01X191240Y-19650D02*
G01X191240Y-61650D01*
G03X194740Y-65150I3500J0D01*
G01X212362D01*
G03X215862Y-61650I0J3500D01*
G01Y-19650D01*
G03X212362Y-16150I-3500J0D01*
G01X194740D01*
G03X191240Y-19650I0J-3500D01*
G01X160029Y-19650D02*
G01X160029Y-61650D01*
G03X163529Y-65150I3500J0D01*
G01X181151D01*
G03X184651Y-61650I0J3500D01*
G01Y-19650D01*
G03X181151Y-16150I-3500J0D01*
G01X163529D01*
G03X160029Y-19650I0J-3500D01*
G01X128819Y-19650D02*
G01X128819Y-61650D01*
G03X132319Y-65150I3500J0D01*
G01X149941D01*
G03X153441Y-61650I0J3500D01*
G01Y-19650D01*
G03X149941Y-16150I-3500J0D01*
G01X132319D01*
G03X128819Y-19650I0J-3500D01*
G01X97609Y-19650D02*
G01X97609Y-61650D01*
G03X101109Y-65150I3500J0D01*
G01X118731D01*
G03X122231Y-61650I0J3500D01*
G01Y-19650D01*
G03X118731Y-16150I-3500J0D01*
G01X101109D01*
G03X97609Y-19650I0J-3500D01*
G01X35188Y-20150D02*
G01X35188Y-61150D01*
G03X39188Y-65150I4000J0D01*
G01X55810D01*
G03X59810Y-61150I0J4000D01*
G01Y-20150D01*
G03X55810Y-16150I-4000J0D01*
G01X39188D01*
G03X35188Y-20150I0J-4000D01*
G01X3978Y-19650D02*
G01X3978Y-61650D01*
G03X7478Y-65150I3500J0D01*
G01X25100D01*
G03X28600Y-61650I0J3500D01*
G01Y-19650D01*
G03X25100Y-16150I-3500J0D01*
G01X7478D01*
G03X3978Y-19650I0J-3500D01*
G04 Rect End*

G04 Pad Start*
G54D11*
G01X215500Y-4500D03*
G01X215500Y-76800D03*
G01X4500Y-4500D03*
G01X4500Y-76800D03*
G04 Pad End*

M02*
