G04 Layer: BoardOutlineLayer*
G04 EasyEDA Pro v1.9.29, 2023-06-21 20:50:08*
G04 Gerber Generator version 0.3*
G04 Scale: 100 percent, Rotated: No, Reflected: No*
G04 Dimensions in millimeters*
G04 Leading zeros omitted, absolute positions, 3 integers and 3 decimals*
%FSLAX33Y33*%
%MOMM*%
%ADD10C,0.1*%
%ADD11C,0.0254*%
G75*


G04 PolygonModel Start*
G54D10*
G01X-13Y52D02*
G01X219687Y52D01*
G01Y-81247D01*
G01X-13D01*
G01Y52D01*
G04 PolygonModel End*

G04 Rect Start*
G54D11*
G01X191752Y-19620D02*
G01X191752Y-61677D01*
G03X194752Y-64677I3000J0D01*
G01X212374D01*
G03X215374Y-61677I0J3000D01*
G01Y-19620D01*
G03X212374Y-16620I-3000J0D01*
G01X194752D01*
G03X191752Y-19620I0J-3000D01*
G01X66979Y-19620D02*
G01X66979Y-61677D01*
G03X69979Y-64677I3000J0D01*
G01X87601D01*
G03X90601Y-61677I0J3000D01*
G01Y-19620D01*
G03X87601Y-16620I-3000J0D01*
G01X69979D01*
G03X66979Y-19620I0J-3000D01*
G01X129366Y-19620D02*
G01X129366Y-61677D01*
G03X132366Y-64677I3000J0D01*
G01X149988D01*
G03X152988Y-61677I0J3000D01*
G01Y-19620D01*
G03X149988Y-16620I-3000J0D01*
G01X132366D01*
G03X129366Y-19620I0J-3000D01*
G01X160559Y-19620D02*
G01X160559Y-61677D01*
G03X163559Y-64677I3000J0D01*
G01X181181D01*
G03X184181Y-61677I0J3000D01*
G01Y-19620D01*
G03X181181Y-16620I-3000J0D01*
G01X163559D01*
G03X160559Y-19620I0J-3000D01*
G01X98172Y-19620D02*
G01X98172Y-61677D01*
G03X101172Y-64677I3000J0D01*
G01X118794D01*
G03X121794Y-61677I0J3000D01*
G01Y-19620D01*
G03X118794Y-16620I-3000J0D01*
G01X101172D01*
G03X98172Y-19620I0J-3000D01*
G01X4478Y-19620D02*
G01X4478Y-61677D01*
G03X7478Y-64677I3000J0D01*
G01X25100D01*
G03X28100Y-61677I0J3000D01*
G01Y-19620D01*
G03X25100Y-16620I-3000J0D01*
G01X7478D01*
G03X4478Y-19620I0J-3000D01*
G01X35786Y-19620D02*
G01X35786Y-61677D01*
G03X38786Y-64677I3000J0D01*
G01X56408D01*
G03X59408Y-61677I0J3000D01*
G01Y-19620D01*
G03X56408Y-16620I-3000J0D01*
G01X38786D01*
G03X35786Y-19620I0J-3000D01*
G04 Rect End*

M02*
