G04 Layer: DrillDrawingLayer*
G04 EasyEDA Pro v1.9.29, 2023-06-21 20:50:08*
G04 Gerber Generator version 0.3*
G04 Scale: 100 percent, Rotated: No, Reflected: No*
G04 Dimensions in millimeters*
G04 Leading zeros omitted, absolute positions, 3 integers and 3 decimals*
%FSLAX33Y33*%
%MOMM*%
%ADD10C,0.254*%
G75*


G04 Image Start*
G36*
G01X215301Y-4301D02*
G01X215301Y-4337D01*
G01X215337D01*
G01X215663D01*
G01Y-4663D01*
G01X215337D01*
G01Y-4337D01*
G01X215301D01*
G01Y-4700D01*
G01X215699D01*
G01Y-4301D01*
G37*
G36*
G01X215301Y-76601D02*
G01X215301Y-76637D01*
G01X215337D01*
G01X215663D01*
G01Y-76963D01*
G01X215337D01*
G01Y-76637D01*
G01X215301D01*
G01Y-77000D01*
G01X215699D01*
G01Y-76601D01*
G37*
G36*
G01X4301Y-4301D02*
G01X4301Y-4337D01*
G01X4337D01*
G01X4663D01*
G01Y-4663D01*
G01X4337D01*
G01Y-4337D01*
G01X4301D01*
G01Y-4700D01*
G01X4700D01*
G01Y-4301D01*
G37*
G36*
G01X4301Y-76601D02*
G01X4301Y-76637D01*
G01X4337D01*
G01X4663D01*
G01Y-76963D01*
G01X4337D01*
G01Y-76637D01*
G01X4301D01*
G01Y-77000D01*
G01X4700D01*
G01Y-76601D01*
G37*
G04 Image End*
G54D10*

M02*
